<svg id="Layer_1" data-name="Layer 1" xmlns="http://www.w3.org/2000/svg" viewBox="0 0 1062.51 561.22"><defs><style>.cls-1,.cls-23{fill:#fff;}.cls-2{fill:#48a69e;}.cls-3{font-size:19px;}.cls-11,.cls-14,.cls-19,.cls-3,.cls-7{fill:#646e85;}.cls-14,.cls-19,.cls-3,.cls-32{font-family:Roboto-Regular, Roboto;}.cls-4{letter-spacing:-0.01em;}.cls-5{letter-spacing:-0.01em;}.cls-6{letter-spacing:-0.01em;}.cls-13,.cls-15,.cls-20,.cls-21,.cls-22,.cls-30,.cls-36,.cls-38,.cls-39,.cls-8{fill:none;}.cls-11,.cls-15,.cls-20,.cls-21,.cls-36,.cls-38,.cls-39,.cls-8{stroke:#646e85;}.cls-11,.cls-13,.cls-15,.cls-20,.cls-21,.cls-22,.cls-23,.cls-25,.cls-8{stroke-miterlimit:10;}.cls-11,.cls-8{stroke-width:2.19px;}.cls-9{letter-spacing:-0.05em;}.cls-10{letter-spacing:0.01em;}.cls-12{opacity:0.6;}.cls-13,.cls-30{stroke:#48a69e;}.cls-13,.cls-15{stroke-width:2.08px;}.cls-14{font-size:14px;}.cls-16{letter-spacing:0.01em;}.cls-17{letter-spacing:-0.02em;}.cls-18{letter-spacing:-0.02em;}.cls-19{font-size:23px;}.cls-20{stroke-width:2px;}.cls-21{stroke-width:2.9px;opacity:0.2;}.cls-22,.cls-23,.cls-25{stroke:#626c87;stroke-width:1.95px;}.cls-24{fill:#626c87;}.cls-25{fill:#f2eb80;}.cls-26{letter-spacing:-0.01em;}.cls-27{letter-spacing:0em;}.cls-28{letter-spacing:0.01em;}.cls-29{letter-spacing:-0.01em;}.cls-30,.cls-36,.cls-38,.cls-39{stroke-linejoin:round;}.cls-30{stroke-width:0.94px;}.cls-31,.cls-32{isolation:isolate;}.cls-32{font-size:11.29px;fill:#5c5c5c;}.cls-33{letter-spacing:0.01em;}.cls-34{letter-spacing:-0.02em;}.cls-35{letter-spacing:-0.02em;}.cls-36,.cls-38,.cls-39{stroke-linecap:round;}.cls-36{stroke-width:2.5px;}.cls-37{letter-spacing:-0.01em;}.cls-38,.cls-39{stroke-width:1.2px;}.cls-38,.cls-40{opacity:0.3;}.cls-41{fill:#515070;}</style></defs><rect class="cls-1" width="1062.51" height="561.22"/><path class="cls-2" d="M486.77,25.46a12.7,12.7,0,0,1,12.69,12.69v93.08a12.7,12.7,0,0,1-12.69,12.69H368.25a12.7,12.7,0,0,1-12.68-12.69V38.15a12.7,12.7,0,0,1,12.68-12.69H486.77m0-2.18H368.25a14.86,14.86,0,0,0-14.86,14.87v93.08a14.86,14.86,0,0,0,14.86,14.87H486.77a14.86,14.86,0,0,0,14.87-14.87V38.15a14.86,14.86,0,0,0-14.87-14.87Z"/><text class="cls-3" transform="translate(366.02 77.96)"><tspan class="cls-4">O</tspan><tspan class="cls-5" x="12.87" y="0">A</tspan><tspan x="25.16" y="0">uth P</tspan><tspan class="cls-6" x="69" y="0">r</tspan><tspan class="cls-4" x="75.24" y="0">o</tspan><tspan x="85.88" y="0">xy </tspan><tspan x="0" y="22.8">Plugin</tspan></text><path class="cls-7" d="M342,91.63V77.75a.8.8,0,0,1,1.27-.66L353.05,84a.81.81,0,0,1,0,1.32l-9.79,6.94A.81.81,0,0,1,342,91.63Z"/><line class="cls-8" x1="344.32" y1="84.69" x2="244.46" y2="84.69"/><path class="cls-2" d="M486.91,231.32A12.7,12.7,0,0,1,499.59,244v93.08a12.7,12.7,0,0,1-12.68,12.69H368.39a12.7,12.7,0,0,1-12.69-12.69V244a12.7,12.7,0,0,1,12.69-12.69H486.91m0-2.18H368.39A14.87,14.87,0,0,0,353.52,244v93.08A14.87,14.87,0,0,0,368.39,352H486.91a14.87,14.87,0,0,0,14.87-14.87V244a14.87,14.87,0,0,0-14.87-14.87Z"/><text class="cls-3" transform="translate(366.16 283.82)">Phan<tspan class="cls-6" x="43.27" y="0">t</tspan><tspan x="49.29" y="0">om</tspan><tspan class="cls-9" x="0" y="22.8">T</tspan><tspan x="10.42" y="22.8">o</tspan><tspan class="cls-6" x="21.25" y="22.8">k</tspan><tspan x="30.7" y="22.8">en Plugin</tspan></text><path class="cls-7" d="M342.13,305.24V291.36a.8.8,0,0,1,1.27-.66l9.78,6.94a.8.8,0,0,1,0,1.31l-9.78,6.95A.81.81,0,0,1,342.13,305.24Z"/><line class="cls-8" x1="344.45" y1="298.3" x2="244.59" y2="298.3"/><path class="cls-7" d="M486.91,434.9a12.8,12.8,0,0,1,12.78,12.78v93.09a12.8,12.8,0,0,1-12.78,12.78H368.39a12.8,12.8,0,0,1-12.78-12.78V447.68a12.79,12.79,0,0,1,12.78-12.78H486.91m0-2.09H368.39a14.87,14.87,0,0,0-14.87,14.87v93.09a14.87,14.87,0,0,0,14.87,14.87H486.91a14.87,14.87,0,0,0,14.87-14.87V447.68a14.87,14.87,0,0,0-14.87-14.87Z"/><text class="cls-3" transform="translate(368.34 498.23)">Mic<tspan class="cls-6" x="31.14" y="0">r</tspan><tspan x="37.39" y="0">ose</tspan><tspan class="cls-10" x="68.09" y="0">r</tspan><tspan x="74.68" y="0">vices</tspan></text><path class="cls-7" d="M342,499.8V485.92a.81.81,0,0,1,1.27-.66l9.79,6.95a.8.8,0,0,1,0,1.31l-9.79,6.94A.8.8,0,0,1,342,499.8Z"/><line class="cls-8" x1="344.32" y1="492.86" x2="244.46" y2="492.86"/><path class="cls-7" d="M436.77,217.5H422.89a.81.81,0,0,0-.66,1.27l6.95,9.78a.8.8,0,0,0,1.31,0l6.94-9.78A.8.8,0,0,0,436.77,217.5Z"/><path class="cls-7" d="M436.77,420.75H422.89a.81.81,0,0,0-.66,1.27l6.95,9.78a.8.8,0,0,0,1.31,0l6.94-9.78A.8.8,0,0,0,436.77,420.75Z"/><polyline class="cls-11" points="429.83 146.1 429.83 194.97 429.83 221.27"/><polyline class="cls-11" points="429.83 351.96 429.83 400.83 429.83 425.21"/><g class="cls-12"><path class="cls-13" d="M500.3,33.12h87.9a4.43,4.43,0,0,1,4.43,4.43V68.32a4.43,4.43,0,0,1-4.43,4.44H508"/><path class="cls-2" d="M513.76,66.15V79.36a.76.76,0,0,1-1.21.62l-9.3-6.6a.77.77,0,0,1,0-1.25l9.3-6.6A.76.76,0,0,1,513.76,66.15Z"/></g><g class="cls-12"><path class="cls-13" d="M500.33,93.5h87.9a4.43,4.43,0,0,1,4.43,4.43v30.78a4.43,4.43,0,0,1-4.43,4.43H508.07"/><path class="cls-2" d="M513.79,126.54v13.2a.77.77,0,0,1-1.21.63l-9.3-6.61a.77.77,0,0,1,0-1.25l9.3-6.6A.77.77,0,0,1,513.79,126.54Z"/></g><text class="cls-14" transform="translate(535.89 49.28)">Dec<tspan class="cls-10" x="23.93" y="0">r</tspan><tspan x="28.79" y="0">ypt</tspan><tspan x="4.85" y="16.8">Cookie</tspan></text><text class="cls-14" transform="translate(549.95 111.2)">CSRF<tspan x="-12.11" y="16.8">Checks</tspan></text><g class="cls-12"><path class="cls-13" d="M500.33,303h87.9a4.43,4.43,0,0,1,4.43,4.44v30.77a4.43,4.43,0,0,1-4.43,4.43H508.07"/><path class="cls-2" d="M513.79,336v13.21a.76.76,0,0,1-1.21.62l-9.3-6.6a.77.77,0,0,1,0-1.25l9.3-6.61A.77.77,0,0,1,513.79,336Z"/></g><text class="cls-14" transform="translate(544.84 319.58)">Scope<tspan x="-6.99" y="16.8">Checks</tspan></text><polyline class="cls-11" points="735.85 243.81 556.51 243.81 501.78 243.81"/><path class="cls-7" d="M731.88,250.75V236.87a.81.81,0,0,1,1.28-.66l9.78,6.94a.81.81,0,0,1,0,1.32l-9.78,6.94A.81.81,0,0,1,731.88,250.75Z"/><polyline class="cls-11" points="508.98 281.23 688.33 281.23 743.28 281.23"/><path class="cls-7" d="M513,288.17V274.29a.8.8,0,0,0-1.27-.66l-9.78,6.94a.8.8,0,0,0,0,1.32l9.78,6.94A.8.8,0,0,0,513,288.17Z"/><g class="cls-12"><path class="cls-15" d="M500.33,443.44H599.2a4.43,4.43,0,0,1,4.43,4.43v30.77a4.43,4.43,0,0,1-4.43,4.44H511.09"/><path class="cls-7" d="M513.79,476.47v13.21a.77.77,0,0,1-1.21.63l-9.3-6.61a.77.77,0,0,1,0-1.25l9.3-6.6A.76.76,0,0,1,513.79,476.47Z"/></g><g class="cls-12"><path class="cls-15" d="M500.33,503.82H599.2a4.43,4.43,0,0,1,4.43,4.44V539a4.43,4.43,0,0,1-4.43,4.43H511.64"/><path class="cls-7" d="M513.79,536.86v13.21a.76.76,0,0,1-1.21.62l-9.3-6.6a.77.77,0,0,1,0-1.25l9.3-6.61A.77.77,0,0,1,513.79,536.86Z"/></g><text class="cls-14" transform="translate(567.94 459.6)">J<tspan class="cls-16" x="7.72" y="0">W</tspan><tspan class="cls-17" x="20.24" y="0">T</tspan><tspan x="28.32" y="0"> </tspan><tspan class="cls-18" x="-30.41" y="16.8">V</tspan><tspan x="-21.81" y="16.8">alidation</tspan></text><text class="cls-14" transform="translate(574.49 521.52)">API <tspan class="cls-5" x="-58.17" y="16.8">A</tspan><tspan x="-49.12" y="16.8">uthorization</tspan></text><text class="cls-19" transform="translate(46.03 81.36)">API Request</text><text class="cls-19" transform="translate(40.58 505.16)">API Response</text><path class="cls-7" d="M31.82,518.09V505.38a.74.74,0,0,0-1.16-.6l-8.95,6.35a.75.75,0,0,0,0,1.21l9,6.35A.74.74,0,0,0,31.82,518.09Z"/><polyline class="cls-20" points="29.7 511.74 121.07 511.74 199.48 511.74"/><path class="cls-7" d="M189.06,98.13V85.43a.73.73,0,0,1,1.16-.6l8.95,6.35a.73.73,0,0,1,0,1.2l-8.95,6.35A.73.73,0,0,1,189.06,98.13Z"/><polyline class="cls-20" points="191.19 91.78 99.81 91.78 21.4 91.78"/><rect class="cls-21" x="744.41" y="188.73" width="307.63" height="147.7" rx="11.67"/><path class="cls-22" d="M937.06,250.11h17.07a4.34,4.34,0,0,1,4.32,4.33v13.29a4.34,4.34,0,0,1-4.32,4.33H842.33a4.34,4.34,0,0,1-4.33-4.33V254.44a4.34,4.34,0,0,1,4.33-4.33h13"/><line class="cls-23" x1="855.29" y1="250.11" x2="860.11" y2="250.11"/><circle class="cls-24" cx="946.79" cy="260.86" r="2.38"/><line class="cls-25" x1="845.66" y1="256.15" x2="845.66" y2="266.02"/><line class="cls-25" x1="850.48" y1="256.15" x2="850.48" y2="266.02"/><line class="cls-25" x1="855.29" y1="256.15" x2="855.29" y2="266.02"/><line class="cls-25" x1="860.11" y1="256.15" x2="860.11" y2="266.02"/><path class="cls-24" d="M917.33,235l-.48.48a13.74,13.74,0,0,1-9.45,4.31,8.67,8.67,0,0,1-8.94-9c0-5.2,3.67-9,8.72-9a14.43,14.43,0,0,1,8.84,3.48l.48.42,4.85-5.06-.55-.47a22.27,22.27,0,0,0-14.13-5.1,15.93,15.93,0,0,0-13.29,6.63h-8.93l-.52,4.4h7.33a17.71,17.71,0,0,0-.51,2.47h-11l-.52,4.39h11.49a16.37,16.37,0,0,0,.5,2.47H874.73l-.52,4.4h19.13a16.1,16.1,0,0,0,13.54,6.63,21.86,21.86,0,0,0,14.85-6l.52-.47Z"/><polygon class="cls-24" points="878.54 228.6 875.3 228.6 874.78 232.99 878.02 232.99 878.54 228.6"/><text class="cls-19" transform="translate(803.42 313.68)"><tspan class="cls-26">A</tspan><tspan class="cls-27" x="14.88" y="0">uthorization Se</tspan><tspan class="cls-28" x="168.56" y="0">r</tspan><tspan class="cls-29" x="176.54" y="0">v</tspan><tspan x="187.54" y="0">er</tspan></text><text class="cls-14" transform="translate(638.55 267.51)">Int<tspan class="cls-6" x="16.11" y="0">r</tspan><tspan x="20.71" y="0">ospection</tspan></text><g id="Graphic_56" data-name="Graphic 56"><path class="cls-1" d="M709.67,237.19h8.41v-5.5a5.65,5.65,0,0,1,0-11.1V215.1H677a2.3,2.3,0,0,0-2.39,2.19V235a2.32,2.32,0,0,0,2.39,2.2h36.62"/><path class="cls-30" d="M709.67,237.19h8.41v-5.5a5.65,5.65,0,0,1,0-11.1V215.1H677a2.3,2.3,0,0,0-2.39,2.19V235a2.32,2.32,0,0,0,2.39,2.2h36.62"/><g class="cls-31"><text class="cls-32" transform="translate(682.1 229.75)">Ref</text></g></g><g id="Graphic_56-2" data-name="Graphic 56"><path class="cls-1" d="M556.1,277.07h8.41v-5.5a5.65,5.65,0,0,1,0-11.1V255H523.38a2.3,2.3,0,0,0-2.39,2.19v17.68a2.31,2.31,0,0,0,2.39,2.2H560"/><path class="cls-30" d="M556.1,277.07h8.41v-5.5a5.65,5.65,0,0,1,0-11.1V255H523.38a2.3,2.3,0,0,0-2.39,2.19v17.68a2.31,2.31,0,0,0,2.39,2.2H560"/><g class="cls-31"><text class="cls-32" transform="translate(528.53 269.63)">J<tspan class="cls-33" x="6.23" y="0">W</tspan><tspan class="cls-34" x="16.33" y="0">T</tspan></text></g></g><g id="Graphic_56-3" data-name="Graphic 56"><path class="cls-1" d="M472.69,192.63h8.41v-5.5a5.65,5.65,0,0,1,0-11.1v-5.49H440a2.3,2.3,0,0,0-2.39,2.19v17.68a2.32,2.32,0,0,0,2.39,2.2h36.61"/><path class="cls-30" d="M472.69,192.63h8.41v-5.5a5.65,5.65,0,0,1,0-11.1v-5.49H440a2.3,2.3,0,0,0-2.39,2.19v17.68a2.32,2.32,0,0,0,2.39,2.2h36.61"/><g class="cls-31"><text class="cls-32" transform="translate(445.12 185.19)">Ref</text></g></g><g id="Graphic_56-4" data-name="Graphic 56"><path class="cls-1" d="M472.69,398.63h8.41v-5.5a5.65,5.65,0,0,1,0-11.1v-5.49H440a2.3,2.3,0,0,0-2.39,2.19v17.68a2.32,2.32,0,0,0,2.39,2.2h36.61"/><path class="cls-30" d="M472.69,398.63h8.41v-5.5a5.65,5.65,0,0,1,0-11.1v-5.49H440a2.3,2.3,0,0,0-2.39,2.19v17.68a2.32,2.32,0,0,0,2.39,2.2h36.61"/><g class="cls-31"><text class="cls-32" transform="translate(445.12 391.19)">J<tspan class="cls-33" x="6.23" y="0">W</tspan><tspan class="cls-35" x="16.33" y="0">T</tspan></text></g></g><rect class="cls-36" x="200.48" y="55.82" width="43.98" height="487.13" rx="7.9"/><text class="cls-19" transform="translate(150.26 27.75)">R<tspan class="cls-37" x="14.16" y="0">ev</tspan><tspan x="37.2" y="0">erse P</tspan><tspan class="cls-6" x="101.41" y="0">r</tspan><tspan class="cls-4" x="108.97" y="0">o</tspan><tspan x="121.85" y="0">xy</tspan></text><path class="cls-38" d="M114.53,124.88a7.48,7.48,0,0,1-1.26.1,7.8,7.8,0,0,1-7.8-7.8c0-.15,0-.3,0-.46a7.82,7.82,0,0,1-3.16-4.85,21.45,21.45,0,1,0,17.71,18A7.83,7.83,0,0,1,114.53,124.88Z"/><circle class="cls-39" cx="93.2" cy="124.37" r="4.3"/><circle class="cls-39" cx="96.89" cy="146.24" r="2.78"/><circle class="cls-39" cx="101.15" cy="129.34" r="1.52"/><circle class="cls-39" cx="94.27" cy="137.77" r="1.52"/><circle class="cls-39" cx="104.78" cy="139.21" r="3.39"/><circle class="cls-39" cx="83.07" cy="129.34" r="2.12"/><circle class="cls-39" cx="112.67" cy="134.18" r="2.12"/><circle class="cls-39" cx="86.21" cy="139.21" r="3.39"/><path class="cls-39" d="M113.59,124.88a7.48,7.48,0,0,1-1.26.1,7.8,7.8,0,0,1-7.8-7.8c0-.15,0-.3,0-.46a7.82,7.82,0,0,1-3.16-4.85,21.45,21.45,0,1,0,17.71,18A7.81,7.81,0,0,1,113.59,124.88Z"/><g class="cls-40"><path class="cls-39" d="M88,145.58a1.81,1.81,0,0,1,1.81,1.81"/><path class="cls-39" d="M90.19,134.56a3,3,0,0,1,3-3"/><path class="cls-39" d="M105.67,148.6a3,3,0,0,1,3-3"/><path class="cls-39" d="M98.81,136.7a1.51,1.51,0,0,1,0,2.14"/><path class="cls-39" d="M97.57,116.43a1.51,1.51,0,0,1-2.14,0"/><path class="cls-39" d="M108.44,131.84a1.52,1.52,0,0,1-2.13,0"/></g><g id="Curity_symbol_grey"><path class="cls-41" d="M486.33,126.68l-.26.26a7.51,7.51,0,0,1-5.16,2.36,4.74,4.74,0,0,1-4.89-4.91,4.68,4.68,0,0,1,4.77-4.91,7.86,7.86,0,0,1,4.82,1.89l.27.24,2.65-2.77-.3-.25a12.15,12.15,0,0,0-7.73-2.8,8.72,8.72,0,0,0-7.26,3.63h-4.8l-.28,2.37h4a8,8,0,0,0-.27,1.29h-6l-.28,2.37h6.24a8.66,8.66,0,0,0,.26,1.29h-9l-.28,2.59h10.33a8.79,8.79,0,0,0,7.4,3.62,12,12,0,0,0,8.12-3.27l.28-.26Z"/><polygon class="cls-41" points="465.23 123.08 463.48 123.08 463.2 125.45 464.95 125.45 465.23 123.08"/></g><g id="Curity_symbol_grey-2" data-name="Curity_symbol_grey"><path class="cls-41" d="M486.33,334.08l-.26.26a7.51,7.51,0,0,1-5.16,2.36,4.74,4.74,0,0,1-4.89-4.91,4.68,4.68,0,0,1,4.77-4.91,7.81,7.81,0,0,1,4.82,1.9l.27.23,2.65-2.77-.3-.25a12.14,12.14,0,0,0-7.73-2.79,8.71,8.71,0,0,0-7.26,3.62h-4.8l-.28,2.37h4a8,8,0,0,0-.27,1.29h-6l-.28,2.37h6.24a8.66,8.66,0,0,0,.26,1.29h-9l-.28,2.59h10.33a8.79,8.79,0,0,0,7.4,3.62,12,12,0,0,0,8.12-3.27l.28-.26Z"/><polygon class="cls-41" points="465.23 330.48 463.48 330.48 463.2 332.85 464.95 332.85 465.23 330.48"/></g></svg>