<?xml version="1.0" encoding="UTF-8"?><svg id="Layer_1" xmlns="http://www.w3.org/2000/svg" xmlns:xlink="http://www.w3.org/1999/xlink" viewBox="0 0 2357 1167"><defs><style>.cls-1,.cls-2,.cls-3,.cls-4,.cls-5,.cls-6,.cls-7,.cls-8{fill:none;}.cls-9{fill:#f2eb80;}.cls-9,.cls-10,.cls-11,.cls-12,.cls-2,.cls-13,.cls-14,.cls-3,.cls-4,.cls-5,.cls-6,.cls-7,.cls-15{stroke-miterlimit:10;}.cls-9,.cls-10,.cls-2,.cls-13,.cls-6,.cls-15{stroke:#626c87;}.cls-9,.cls-2,.cls-15{stroke-width:3.21px;}.cls-16{clip-path:url(#clippath);}.cls-17,.cls-10,.cls-11,.cls-12,.cls-14,.cls-15{fill:#fff;}.cls-18{fill:#326de6;}.cls-19{fill:#646e85;}.cls-20{fill:#636d88;}.cls-21{fill:#5c5c5c;}.cls-22{fill:#626c87;}.cls-23{fill:#48a69e;}.cls-10,.cls-13,.cls-6{stroke-width:3.31px;}.cls-11,.cls-3,.cls-4{stroke-width:2px;}.cls-11,.cls-4,.cls-5{stroke:#646e85;}.cls-12{stroke-width:2.06px;}.cls-12,.cls-14,.cls-3,.cls-7,.cls-8{stroke:#48a69e;}.cls-13{fill:url(#Namnlös_övertoning_119);}.cls-24{clip-path:url(#clippath-1);}.cls-14{stroke-width:2.2px;}.cls-5{opacity:.5;stroke-width:2.04px;}.cls-7{stroke-width:2.34px;}.cls-8{stroke-linejoin:round;stroke-width:2.43px;}</style><clipPath id="clippath"><rect class="cls-1" x="2124" y="113" width="92.91" height="90.48"/></clipPath><clipPath id="clippath-1"><rect class="cls-1" x="2124" y="113" width="92.91" height="90.48"/></clipPath><linearGradient id="Namnlös_övertoning_119" x1="1564.87" y1="604.39" x2="1564.87" y2="551.34" gradientTransform="matrix(1, 0, 0, 1, 0, 0)" gradientUnits="userSpaceOnUse"><stop offset="0" stop-color="#4aa69e" stop-opacity=".8"/><stop offset=".09" stop-color="#5cafa7" stop-opacity=".82"/><stop offset=".54" stop-color="#b3d9d6" stop-opacity=".92"/><stop offset=".85" stop-color="#e9f4f3" stop-opacity=".98"/><stop offset="1" stop-color="#fff"/></linearGradient></defs><rect class="cls-17" x="-20" y="-21" width="2385" height="1201"/><g><g><g><g><path class="cls-2" d="M1715.34,204.32h28.1c3.92,0,7.13,3.21,7.13,7.13v21.89c0,3.92-3.21,7.13-7.13,7.13h-184.16c-3.92,0-7.13-3.21-7.13-7.13v-21.89c0-3.92,3.21-7.13,7.13-7.13h21.35"/><line class="cls-15" x1="1580.64" y1="204.32" x2="1588.57" y2="204.32"/><circle class="cls-22" cx="1731.36" cy="222.02" r="3.92"/><g><line class="cls-9" x1="1564.77" y1="214.26" x2="1564.77" y2="230.53"/><line class="cls-9" x1="1572.7" y1="214.26" x2="1572.7" y2="230.53"/><line class="cls-9" x1="1580.64" y1="214.26" x2="1580.64" y2="230.53"/><line class="cls-9" x1="1588.57" y1="214.26" x2="1588.57" y2="230.53"/></g></g><g><path class="cls-22" d="M1682.83,179.43l-.8,.8c-4.51,4.51-10.18,7.1-15.56,7.1-8.53,0-14.72-6.23-14.72-14.81s6.04-14.8,14.37-14.8c4.82,0,10.53,2.25,14.55,5.72l.81,.7,7.98-8.34-.9-.77c-6.13-5.26-14.84-8.41-23.29-8.41-9.31,0-17.2,4.23-21.88,10.93h-14.71l-.86,7.24h12.08c-.39,1.31-.66,2.67-.84,4.07h-18.08l-.86,7.24h18.94c.18,1.4,.45,2.76,.82,4.06h-27.22l-.86,7.24h31.52c4.69,6.75,12.68,10.93,22.31,10.93,12.09,0,20.52-6.18,24.46-9.87l.84-.79-8.09-8.27Z"/><polygon class="cls-22" points="1618.93 168.88 1613.6 168.88 1612.74 176.12 1618.07 176.12 1618.93 168.88"/></g></g><g><path class="cls-19" d="M1544.39,293.17c-.26,2.26-1.1,4-2.5,5.22s-3.26,1.84-5.59,1.84c-2.52,0-4.54-.9-6.06-2.71-1.52-1.81-2.28-4.22-2.28-7.25v-2.05c0-1.98,.35-3.73,1.06-5.23s1.71-2.66,3.01-3.46,2.8-1.21,4.51-1.21c2.27,0,4.08,.63,5.45,1.9s2.16,3.01,2.39,5.25h-2.83c-.24-1.7-.77-2.94-1.59-3.7-.82-.76-1.96-1.15-3.42-1.15-1.8,0-3.21,.67-4.23,1.99-1.02,1.33-1.53,3.22-1.53,5.67v2.07c0,2.32,.48,4.16,1.45,5.53s2.32,2.05,4.06,2.05c1.56,0,2.76-.35,3.6-1.06,.84-.71,1.39-1.94,1.66-3.7h2.83Z"/><path class="cls-19" d="M1557.59,298.37c-1.05,1.24-2.6,1.86-4.64,1.86-1.69,0-2.98-.49-3.86-1.47s-1.33-2.43-1.34-4.36v-10.31h2.71v10.24c0,2.4,.98,3.6,2.93,3.6,2.07,0,3.45-.77,4.13-2.31v-11.53h2.71v15.85h-2.58l-.06-1.57Z"/><path class="cls-19" d="M1572,286.52c-.41-.07-.85-.1-1.33-.1-1.78,0-2.98,.76-3.62,2.27v11.25h-2.71v-15.85h2.64l.04,1.83c.89-1.42,2.15-2.12,3.78-2.12,.53,0,.93,.07,1.2,.21v2.52Z"/><path class="cls-19" d="M1574.51,279.89c0-.44,.13-.81,.4-1.11,.27-.3,.67-.45,1.19-.45s.93,.15,1.2,.45,.41,.67,.41,1.11-.14,.81-.41,1.1-.67,.44-1.2,.44-.93-.15-1.19-.44c-.27-.29-.4-.66-.4-1.1Zm2.93,20.05h-2.71v-15.85h2.71v15.85Z"/><path class="cls-19" d="M1585.45,280.25v3.84h2.96v2.09h-2.96v9.84c0,.64,.13,1.11,.4,1.43,.26,.32,.71,.48,1.35,.48,.31,0,.74-.06,1.29-.18v2.18c-.71,.19-1.41,.29-2.08,.29-1.21,0-2.12-.37-2.74-1.1s-.92-1.77-.92-3.12v-9.83h-2.89v-2.09h2.89v-3.84h2.71Z"/><path class="cls-19" d="M1596.76,295.97l3.69-11.88h2.9l-6.37,18.3c-.99,2.64-2.55,3.96-4.7,3.96l-.51-.04-1.01-.19v-2.2l.73,.06c.92,0,1.63-.19,2.15-.56,.51-.37,.93-1.05,1.27-2.04l.6-1.61-5.65-15.67h2.96l3.96,11.88Z"/><path class="cls-19" d="M1625.4,294.36h-8.94l-2.01,5.58h-2.9l8.14-21.33h2.46l8.16,21.33h-2.89l-2.04-5.58Zm-8.09-2.3h7.25l-3.63-9.98-3.62,9.98Z"/><path class="cls-19" d="M1632.11,291.88c0-2.43,.58-4.39,1.73-5.87s2.66-2.22,4.53-2.22,3.33,.63,4.41,1.9v-8.26h2.71v22.5h-2.49l-.13-1.7c-1.08,1.33-2.59,1.99-4.53,1.99s-3.33-.75-4.49-2.26c-1.16-1.5-1.74-3.47-1.74-5.89v-.21Zm2.71,.31c0,1.8,.37,3.2,1.11,4.22s1.77,1.52,3.08,1.52c1.72,0,2.97-.77,3.76-2.31v-7.28c-.81-1.49-2.06-2.24-3.74-2.24-1.33,0-2.36,.51-3.11,1.54s-1.11,2.54-1.11,4.56Z"/><path class="cls-19" d="M1652.23,284.09l.07,1.76c1.16-1.37,2.73-2.05,4.7-2.05,2.22,0,3.73,.85,4.53,2.55,.53-.76,1.21-1.38,2.06-1.85s1.84-.7,3-.7c3.48,0,5.24,1.84,5.3,5.52v10.62h-2.71v-10.46c0-1.13-.26-1.98-.78-2.54s-1.39-.84-2.61-.84c-1.01,0-1.84,.3-2.5,.9s-1.05,1.41-1.16,2.42v10.52h-2.72v-10.39c0-2.3-1.13-3.46-3.38-3.46-1.78,0-2.99,.76-3.65,2.27v11.57h-2.71v-15.85h2.56Z"/><path class="cls-19" d="M1675.99,279.89c0-.44,.13-.81,.4-1.11,.27-.3,.67-.45,1.19-.45s.93,.15,1.2,.45,.41,.67,.41,1.11-.14,.81-.41,1.1-.67,.44-1.2,.44-.93-.15-1.19-.44c-.27-.29-.4-.66-.4-1.1Zm2.93,20.05h-2.71v-15.85h2.71v15.85Z"/><path class="cls-19" d="M1685.82,284.09l.09,1.99c1.21-1.52,2.79-2.29,4.75-2.29,3.35,0,5.04,1.89,5.07,5.67v10.47h-2.71v-10.49c0-1.14-.27-1.99-.78-2.53-.51-.55-1.31-.82-2.4-.82-.88,0-1.65,.23-2.31,.7s-1.18,1.08-1.55,1.85v11.29h-2.71v-15.85h2.56Z"/><path class="cls-19" d="M1724.05,299.94h-2.83l-10.74-16.44v16.44h-2.83v-21.33h2.83l10.77,16.51v-16.51h2.8v21.33Z"/><path class="cls-19" d="M1727.91,291.87c0-1.55,.3-2.95,.92-4.19s1.46-2.2,2.55-2.87,2.33-1.01,3.73-1.01c2.16,0,3.9,.75,5.24,2.24,1.33,1.49,2,3.48,2,5.96v.19c0,1.54-.3,2.93-.89,4.15s-1.44,2.18-2.53,2.86c-1.1,.68-2.36,1.03-3.79,1.03-2.15,0-3.89-.75-5.22-2.24-1.33-1.49-2-3.47-2-5.93v-.19Zm2.72,.32c0,1.76,.41,3.17,1.22,4.23,.81,1.06,1.91,1.6,3.27,1.6s2.47-.54,3.28-1.62,1.22-2.59,1.22-4.53c0-1.74-.41-3.15-1.24-4.23-.83-1.08-1.92-1.62-3.29-1.62s-2.42,.53-3.24,1.6-1.23,2.59-1.23,4.57Z"/><path class="cls-19" d="M1745.08,291.88c0-2.43,.58-4.39,1.73-5.87s2.66-2.22,4.53-2.22,3.33,.63,4.41,1.9v-8.26h2.71v22.5h-2.49l-.13-1.7c-1.08,1.33-2.59,1.99-4.53,1.99s-3.33-.75-4.49-2.26c-1.16-1.5-1.74-3.47-1.74-5.89v-.21Zm2.71,.31c0,1.8,.37,3.2,1.11,4.22s1.77,1.52,3.08,1.52c1.72,0,2.97-.77,3.76-2.31v-7.28c-.81-1.49-2.06-2.24-3.74-2.24-1.33,0-2.36,.51-3.11,1.54s-1.11,2.54-1.11,4.56Z"/><path class="cls-19" d="M1769.23,300.23c-2.15,0-3.9-.71-5.24-2.12s-2.02-3.3-2.02-5.66v-.5c0-1.57,.3-2.98,.9-4.21,.6-1.24,1.44-2.2,2.52-2.9,1.08-.7,2.25-1.05,3.51-1.05,2.06,0,3.66,.68,4.8,2.04s1.71,3.3,1.71,5.83v1.13h-10.74c.04,1.56,.5,2.83,1.37,3.79s1.99,1.44,3.33,1.44c.96,0,1.77-.2,2.43-.59s1.25-.91,1.74-1.55l1.66,1.29c-1.33,2.04-3.32,3.06-5.98,3.06Zm-.34-14.21c-1.09,0-2.01,.4-2.75,1.19s-1.2,1.91-1.38,3.35h7.94v-.21c-.08-1.38-.45-2.44-1.11-3.2s-1.56-1.14-2.7-1.14Z"/></g></g><rect class="cls-4" x="1472.86" y="112.85" width="357" height="229" rx="9.35" ry="9.35"/></g><g><g><g><g><path class="cls-2" d="M1700.23,965.34h28.1c3.92,0,7.13,3.21,7.13,7.13v21.89c0,3.92-3.21,7.13-7.13,7.13h-184.16c-3.92,0-7.13-3.21-7.13-7.13v-21.89c0-3.92,3.21-7.13,7.13-7.13h21.35"/><line class="cls-15" x1="1565.53" y1="965.34" x2="1573.46" y2="965.34"/><circle class="cls-22" cx="1716.25" cy="983.04" r="3.92"/><g><line class="cls-9" x1="1549.66" y1="975.28" x2="1549.66" y2="991.55"/><line class="cls-9" x1="1557.6" y1="975.28" x2="1557.6" y2="991.55"/><line class="cls-9" x1="1565.53" y1="975.28" x2="1565.53" y2="991.55"/><line class="cls-9" x1="1573.46" y1="975.28" x2="1573.46" y2="991.55"/></g></g><g><path class="cls-22" d="M1667.72,940.45l-.8,.8c-4.51,4.51-10.18,7.1-15.56,7.1-8.53,0-14.72-6.23-14.72-14.81s6.04-14.8,14.37-14.8c4.82,0,10.53,2.25,14.55,5.72l.81,.7,7.98-8.34-.9-.77c-6.13-5.26-14.84-8.41-23.29-8.41-9.31,0-17.2,4.23-21.88,10.93h-14.71l-.86,7.24h12.08c-.39,1.31-.66,2.67-.84,4.07h-18.08l-.86,7.24h18.94c.18,1.4,.45,2.76,.82,4.06h-27.22l-.86,7.24h31.52c4.69,6.75,12.68,10.93,22.31,10.93,12.09,0,20.52-6.18,24.46-9.87l.84-.79-8.09-8.27Z"/><polygon class="cls-22" points="1603.82 929.9 1598.49 929.9 1597.63 937.14 1602.96 937.14 1603.82 929.9"/></g></g><g><path class="cls-19" d="M1529.29,1054.2c-.26,2.26-1.1,4-2.5,5.22-1.4,1.22-3.26,1.84-5.59,1.84-2.52,0-4.54-.9-6.06-2.71-1.52-1.81-2.28-4.22-2.28-7.25v-2.05c0-1.98,.35-3.73,1.06-5.23,.71-1.5,1.71-2.66,3.01-3.46,1.3-.81,2.8-1.21,4.51-1.21,2.27,0,4.08,.63,5.45,1.9,1.37,1.27,2.16,3.02,2.39,5.25h-2.83c-.24-1.7-.77-2.94-1.59-3.7-.82-.76-1.96-1.15-3.42-1.15-1.8,0-3.21,.67-4.22,1.99-1.02,1.33-1.53,3.22-1.53,5.67v2.07c0,2.32,.48,4.16,1.45,5.53,.97,1.37,2.32,2.05,4.06,2.05,1.56,0,2.76-.35,3.6-1.06,.84-.71,1.39-1.94,1.66-3.7h2.83Z"/><path class="cls-19" d="M1542.48,1059.4c-1.05,1.24-2.6,1.86-4.64,1.86-1.69,0-2.98-.49-3.86-1.47-.88-.98-1.33-2.43-1.34-4.36v-10.31h2.71v10.24c0,2.4,.98,3.6,2.93,3.6,2.07,0,3.45-.77,4.13-2.31v-11.53h2.71v15.85h-2.58l-.06-1.57Z"/><path class="cls-19" d="M1556.9,1047.54c-.41-.07-.85-.1-1.33-.1-1.78,0-2.98,.76-3.62,2.27v11.25h-2.71v-15.85h2.64l.04,1.83c.89-1.42,2.15-2.12,3.78-2.12,.53,0,.93,.07,1.2,.21v2.52Z"/><path class="cls-19" d="M1559.4,1040.91c0-.44,.13-.81,.4-1.11,.27-.3,.67-.45,1.19-.45s.93,.15,1.2,.45,.41,.67,.41,1.11-.14,.81-.41,1.1-.67,.44-1.2,.44-.93-.15-1.19-.44c-.27-.29-.4-.66-.4-1.1Zm2.93,20.05h-2.71v-15.85h2.71v15.85Z"/><path class="cls-19" d="M1570.34,1041.28v3.84h2.96v2.09h-2.96v9.84c0,.64,.13,1.11,.4,1.43s.71,.48,1.35,.48c.31,0,.74-.06,1.29-.18v2.18c-.71,.19-1.41,.29-2.08,.29-1.21,0-2.12-.37-2.74-1.1s-.92-1.77-.92-3.12v-9.83h-2.89v-2.09h2.89v-3.84h2.71Z"/><path class="cls-19" d="M1581.65,1056.99l3.69-11.88h2.9l-6.37,18.3c-.99,2.64-2.55,3.96-4.7,3.96l-.51-.04-1.01-.19v-2.2l.73,.06c.92,0,1.63-.19,2.15-.56,.51-.37,.94-1.05,1.27-2.04l.6-1.61-5.65-15.67h2.96l3.96,11.88Z"/><path class="cls-19" d="M1606.34,1052.33h-5.01v8.63h-2.83v-21.33h7.06c2.4,0,4.25,.55,5.54,1.64,1.29,1.09,1.94,2.69,1.94,4.78,0,1.33-.36,2.49-1.08,3.47-.72,.99-1.71,1.72-2.99,2.21l5.01,9.05v.18h-3.02l-4.63-8.63Zm-5.01-2.3h4.32c1.4,0,2.51-.36,3.33-1.09,.83-.72,1.24-1.69,1.24-2.91,0-1.32-.39-2.33-1.18-3.04-.79-.71-1.92-1.06-3.4-1.07h-4.31v8.1Z"/><path class="cls-19" d="M1626.35,1059.4c-1.05,1.24-2.6,1.86-4.64,1.86-1.69,0-2.98-.49-3.86-1.47-.88-.98-1.33-2.43-1.34-4.36v-10.31h2.71v10.24c0,2.4,.98,3.6,2.93,3.6,2.07,0,3.45-.77,4.13-2.31v-11.53h2.71v15.85h-2.58l-.06-1.57Z"/><path class="cls-19" d="M1635.66,1045.11l.09,1.99c1.21-1.52,2.79-2.29,4.75-2.29,3.35,0,5.04,1.89,5.07,5.67v10.47h-2.71v-10.49c0-1.14-.27-1.99-.78-2.53-.51-.55-1.31-.82-2.39-.82-.88,0-1.65,.23-2.31,.7s-1.18,1.08-1.55,1.85v11.29h-2.71v-15.85h2.56Z"/><path class="cls-19" d="M1653.33,1041.28v3.84h2.96v2.09h-2.96v9.84c0,.64,.13,1.11,.39,1.43s.71,.48,1.35,.48c.31,0,.74-.06,1.29-.18v2.18c-.71,.19-1.41,.29-2.08,.29-1.21,0-2.12-.37-2.74-1.1s-.92-1.77-.92-3.12v-9.83h-2.88v-2.09h2.88v-3.84h2.71Z"/><path class="cls-19" d="M1659.46,1040.91c0-.44,.13-.81,.4-1.11,.27-.3,.67-.45,1.19-.45s.93,.15,1.2,.45,.41,.67,.41,1.11-.14,.81-.41,1.1-.67,.44-1.2,.44-.93-.15-1.19-.44c-.27-.29-.4-.66-.4-1.1Zm2.93,20.05h-2.71v-15.85h2.71v15.85Z"/><path class="cls-19" d="M1669.28,1045.11l.07,1.76c1.16-1.37,2.73-2.05,4.7-2.05,2.22,0,3.73,.85,4.53,2.55,.53-.76,1.21-1.38,2.06-1.85,.85-.47,1.84-.7,3-.7,3.48,0,5.24,1.84,5.3,5.52v10.62h-2.71v-10.46c0-1.13-.26-1.98-.78-2.54-.52-.56-1.39-.84-2.61-.84-1.01,0-1.84,.3-2.5,.9-.66,.6-1.05,1.41-1.16,2.42v10.52h-2.72v-10.39c0-2.3-1.13-3.46-3.38-3.46-1.78,0-2.99,.76-3.65,2.27v11.57h-2.71v-15.85h2.56Z"/><path class="cls-19" d="M1699.6,1061.26c-2.15,0-3.9-.71-5.24-2.12-1.35-1.41-2.02-3.3-2.02-5.66v-.5c0-1.57,.3-2.98,.9-4.21,.6-1.23,1.44-2.2,2.52-2.9,1.08-.7,2.25-1.05,3.51-1.05,2.06,0,3.66,.68,4.8,2.04s1.71,3.3,1.71,5.83v1.13h-10.74c.04,1.56,.49,2.82,1.37,3.79,.87,.96,1.98,1.44,3.33,1.44,.96,0,1.77-.2,2.43-.59s1.25-.91,1.74-1.55l1.65,1.29c-1.33,2.04-3.32,3.06-5.98,3.06Zm-.34-14.21c-1.09,0-2.01,.4-2.75,1.19-.74,.8-1.2,1.91-1.38,3.35h7.94v-.21c-.08-1.38-.45-2.44-1.11-3.2-.66-.76-1.56-1.13-2.7-1.13Z"/><path class="cls-19" d="M1733.16,1060.96h-2.83l-10.74-16.44v16.44h-2.83v-21.33h2.83l10.77,16.51v-16.51h2.8v21.33Z"/><path class="cls-19" d="M1737.01,1052.89c0-1.55,.3-2.95,.92-4.19,.61-1.24,1.46-2.2,2.55-2.87,1.09-.67,2.33-1.01,3.73-1.01,2.16,0,3.9,.75,5.24,2.24,1.33,1.49,2,3.48,2,5.96v.19c0,1.54-.3,2.93-.89,4.15-.59,1.22-1.44,2.18-2.53,2.86-1.1,.68-2.36,1.03-3.79,1.03-2.15,0-3.89-.75-5.22-2.24-1.33-1.49-2-3.47-2-5.93v-.19Zm2.72,.32c0,1.76,.41,3.17,1.22,4.23,.81,1.06,1.91,1.6,3.27,1.6s2.47-.54,3.28-1.62c.81-1.08,1.21-2.59,1.21-4.53,0-1.74-.41-3.15-1.24-4.23-.83-1.08-1.92-1.62-3.29-1.62s-2.42,.53-3.24,1.6-1.23,2.59-1.23,4.57Z"/><path class="cls-19" d="M1754.18,1052.91c0-2.43,.58-4.39,1.73-5.87,1.15-1.48,2.66-2.22,4.53-2.22s3.32,.63,4.41,1.9v-8.26h2.71v22.5h-2.49l-.13-1.7c-1.08,1.33-2.59,1.99-4.53,1.99s-3.33-.75-4.49-2.26c-1.16-1.5-1.74-3.47-1.74-5.89v-.21Zm2.71,.31c0,1.8,.37,3.2,1.11,4.22s1.77,1.52,3.08,1.52c1.72,0,2.97-.77,3.76-2.31v-7.28c-.81-1.49-2.05-2.24-3.73-2.24-1.33,0-2.36,.51-3.11,1.54s-1.11,2.54-1.11,4.56Z"/><path class="cls-19" d="M1778.34,1061.26c-2.15,0-3.9-.71-5.24-2.12-1.35-1.41-2.02-3.3-2.02-5.66v-.5c0-1.57,.3-2.98,.9-4.21,.6-1.23,1.44-2.2,2.52-2.9,1.08-.7,2.25-1.05,3.51-1.05,2.06,0,3.66,.68,4.8,2.04s1.71,3.3,1.71,5.83v1.13h-10.74c.04,1.56,.5,2.82,1.37,3.79,.88,.96,1.99,1.44,3.33,1.44,.96,0,1.77-.2,2.43-.59s1.24-.91,1.74-1.55l1.66,1.29c-1.33,2.04-3.32,3.06-5.98,3.06Zm-.34-14.21c-1.09,0-2.01,.4-2.75,1.19-.74,.8-1.2,1.91-1.38,3.35h7.94v-.21c-.08-1.38-.45-2.44-1.11-3.2-.66-.76-1.56-1.13-2.7-1.13Z"/></g></g><rect class="cls-4" x="1469.86" y="873.87" width="357" height="229" rx="9.35" ry="9.35"/></g><g><line class="cls-4" x1="1091" y1="219.79" x2="1460" y2="219.79"/><path class="cls-19" d="M1450,210.26v19.08c0,.9,1.01,1.42,1.75,.9l13.44-9.54c.62-.44,.62-1.36,0-1.8l-13.44-9.54c-.73-.52-1.75,0-1.75,.9Z"/></g><g><line class="cls-4" x1="1091" y1="984.67" x2="1460" y2="984.67"/><path class="cls-19" d="M1450,975.13v19.08c0,.9,1.01,1.42,1.75,.9l13.44-9.54c.62-.44,.62-1.36,0-1.8l-13.44-9.54c-.73-.52-1.75,0-1.75,.9Z"/></g><g id="Kubernetes"><g class="cls-16"><g class="cls-24"><path class="cls-18" d="M2153.67,202.03c-2.16,0-4.21-.96-5.59-2.7l-21.03-26.13c-1.38-1.74-1.92-3.96-1.38-6.13l7.51-32.62c.48-2.16,1.92-3.91,3.9-4.87l30.4-14.54c.96-.48,2.04-.72,3.12-.72s2.16,.24,3.13,.72l30.4,14.48c1.98,.96,3.43,2.7,3.91,4.87l7.51,32.62c.48,2.16,0,4.39-1.38,6.13l-21.03,26.13c-1.38,1.68-3.43,2.7-5.59,2.7l-33.88,.06Z"/><path class="cls-17" d="M2170.55,115.82c.84,0,1.68,.18,2.46,.54l30.4,14.48c1.56,.78,2.76,2.22,3.12,3.91l7.51,32.62c.42,1.74,0,3.54-1.14,4.93l-21.03,26.13c-1.08,1.38-2.76,2.16-4.51,2.16h-33.7c-1.74,0-3.42-.78-4.51-2.16l-21.03-26.13c-1.08-1.38-1.5-3.19-1.14-4.93l7.51-32.62c.42-1.74,1.56-3.18,3.12-3.91l30.4-14.54c.78-.3,1.68-.48,2.52-.48m0-2.82h0c-1.26,0-2.52,.3-3.73,.84l-30.4,14.54c-2.4,1.14-4.09,3.24-4.69,5.83l-7.51,32.62c-.6,2.58,0,5.23,1.68,7.33l21.03,26.13c1.62,2.04,4.09,3.18,6.67,3.18h33.7c2.58,0,5.05-1.14,6.67-3.18l21.03-26.13c1.68-2.04,2.28-4.75,1.68-7.33l-7.51-32.62c-.6-2.58-2.28-4.68-4.69-5.83l-30.28-14.54c-1.14-.54-2.4-.84-3.66-.84"/><path class="cls-17" d="M2201.01,164.79h0q-.06,0,0,0h-.06c-.06,0-.12,0-.12-.06-.12,0-.24-.06-.36-.06-.42-.06-.78-.12-1.14-.12-.18,0-.36,0-.6-.06h-.06c-1.26-.12-2.28-.24-3.24-.54-.42-.18-.54-.42-.66-.66,0-.06-.06-.06-.06-.12l-.78-.24c.36-2.76,.24-5.65-.42-8.47-.66-2.82-1.8-5.47-3.37-7.87l.6-.54v-.12c0-.3,.06-.6,.3-.9,.72-.66,1.62-1.2,2.7-1.86,.18-.12,.36-.18,.54-.3,.36-.18,.66-.36,1.02-.6,.06-.06,.18-.12,.3-.24,.06-.06,.12-.06,.12-.12,.84-.72,1.02-1.92,.42-2.7-.3-.42-.84-.66-1.38-.66-.48,0-.9,.18-1.32,.48l-.12,.12c-.12,.06-.18,.18-.3,.24-.3,.3-.54,.54-.78,.84-.12,.12-.24,.3-.42,.42-.84,.9-1.62,1.62-2.4,2.16-.18,.12-.36,.18-.54,.18-.12,0-.24,0-.36-.06h-.12l-.72,.48c-.78-.84-1.62-1.56-2.46-2.28-3.61-2.82-7.99-4.57-12.56-4.99l-.06-.78-.12-.12c-.18-.18-.42-.36-.48-.78-.06-.96,.06-2.04,.18-3.24v-.06c0-.18,.06-.42,.12-.6,.06-.36,.12-.72,.18-1.14v-.54c0-1.08-.84-1.98-1.86-1.98-.48,0-.96,.24-1.32,.6-.36,.36-.54,.84-.54,1.38v.48c0,.42,.06,.78,.18,1.14,.06,.18,.06,.36,.12,.6v.06c.12,1.2,.3,2.28,.18,3.24-.06,.42-.3,.6-.48,.78l-.12,.12-.06,.78c-1.08,.12-2.16,.24-3.24,.48-4.63,1.02-8.71,3.36-11.89,6.73l-.6-.42h-.12c-.12,0-.24,.06-.36,.06-.18,0-.36-.06-.54-.18-.78-.54-1.56-1.32-2.4-2.22-.12-.12-.24-.3-.42-.42-.24-.3-.48-.54-.78-.84-.06-.06-.18-.12-.3-.24-.06-.06-.12-.06-.12-.12-.36-.3-.84-.48-1.32-.48-.54,0-1.08,.24-1.38,.66-.6,.78-.42,1.98,.42,2.7,.06,0,.06,.06,.12,.06,.12,.06,.18,.18,.3,.24,.36,.24,.66,.42,1.02,.6,.18,.06,.36,.18,.54,.3,1.08,.66,1.98,1.2,2.7,1.86,.3,.3,.3,.6,.3,.9v.12l.6,.54c-.12,.18-.24,.3-.3,.48-3,4.75-4.15,10.33-3.37,15.86l-.78,.24c0,.06-.06,.06-.06,.12-.12,.24-.3,.48-.66,.66-.9,.3-1.98,.42-3.24,.54h-.06c-.18,0-.42,0-.6,.06-.36,0-.72,.06-1.14,.12-.12,0-.24,.06-.36,.06-.06,0-.12,0-.18,.06-1.08,.24-1.74,1.26-1.56,2.22,.18,.84,.96,1.38,1.92,1.38,.18,0,.3,0,.48-.06,.06,0,.12,0,.12-.06,.12,0,.24-.06,.36-.06,.42-.12,.72-.24,1.08-.42,.18-.06,.36-.18,.54-.24h.06c1.14-.42,2.16-.78,3.12-.9h.12c.36,0,.6,.18,.78,.3,.06,0,.06,.06,.12,.06l.84-.12c1.44,4.44,4.21,8.41,7.87,11.29,.84,.66,1.68,1.2,2.58,1.74l-.36,.78c0,.06,.06,.06,.06,.12,.12,.24,.24,.54,.12,.96-.36,.9-.9,1.8-1.56,2.82v.06c-.12,.18-.24,.3-.36,.48-.24,.3-.42,.6-.66,.96-.06,.06-.12,.18-.18,.3,0,.06-.06,.12-.06,.12-.48,1.02-.12,2.16,.78,2.58,.24,.12,.48,.18,.72,.18,.72,0,1.44-.48,1.8-1.14,0-.06,.06-.12,.06-.12,.06-.12,.12-.24,.18-.3,.18-.42,.24-.72,.36-1.08,.06-.18,.12-.36,.18-.54,.42-1.2,.72-2.16,1.26-3,.24-.36,.54-.42,.78-.54q.06,0,.12-.06l.42-.78c2.64,1.02,5.53,1.56,8.41,1.56,1.74,0,3.54-.18,5.23-.6,1.08-.24,2.1-.54,3.12-.9l.36,.66q.06,0,.12,.06c.3,.06,.54,.18,.78,.54,.48,.84,.84,1.86,1.26,3v.06c.06,.18,.12,.36,.18,.54,.12,.36,.18,.72,.36,1.08,.06,.12,.12,.18,.18,.3,0,.06,.06,.12,.06,.12,.36,.72,1.08,1.14,1.8,1.14,.24,0,.48-.06,.72-.18,.42-.24,.78-.6,.9-1.08,.12-.48,.12-1.02-.12-1.5,0-.06-.06-.06-.06-.12-.06-.12-.12-.24-.18-.3-.18-.36-.42-.66-.66-.96-.12-.18-.24-.3-.36-.48v-.06c-.66-1.02-1.26-1.92-1.56-2.82-.12-.42,0-.66,.06-.96,0-.06,.06-.06,.06-.12l-.3-.72c3.18-1.86,5.89-4.51,7.93-7.75,1.08-1.68,1.92-3.54,2.52-5.41l.72,.12c.06,0,.06-.06,.12-.06,.24-.12,.42-.3,.78-.3h.12c.96,.12,1.98,.48,3.12,.9h.06c.18,.06,.36,.18,.54,.24,.36,.18,.66,.3,1.08,.42,.12,0,.24,.06,.36,.06,.06,0,.12,0,.18,.06,.18,.06,.3,.06,.48,.06,.9,0,1.68-.6,1.92-1.38,0-.72-.66-1.68-1.74-1.98m-27.81-2.94l-2.64,1.26-2.64-1.26-.66-2.82,1.8-2.28h2.94l1.8,2.28-.6,2.82Zm15.68-6.25c.48,2.04,.6,4.09,.42,6.07l-9.19-2.64c-.84-.24-1.32-1.08-1.14-1.92,.06-.24,.18-.48,.36-.66l7.27-6.55c1.02,1.68,1.8,3.6,2.28,5.71m-5.17-9.31l-7.87,5.59c-.66,.42-1.56,.3-2.1-.36-.18-.18-.24-.42-.3-.66l-.54-9.79c4.14,.48,7.93,2.34,10.81,5.23m-17.42-4.93c.66-.12,1.26-.24,1.92-.36l-.54,9.61c-.06,.84-.72,1.56-1.62,1.56-.24,0-.54-.06-.72-.18l-7.99-5.71c2.46-2.46,5.53-4.15,8.95-4.93m-11.83,8.53l7.15,6.37c.66,.54,.72,1.56,.18,2.22-.18,.24-.42,.42-.72,.48l-9.31,2.7c-.36-4.09,.54-8.23,2.7-11.77m-1.62,16.28l9.55-1.62c.78-.06,1.5,.48,1.68,1.26,.06,.36,.06,.66-.06,.96l-3.67,8.83c-3.36-2.16-6.07-5.47-7.51-9.43m21.93,11.96c-1.38,.3-2.76,.48-4.2,.48-2.1,0-4.15-.36-6.07-.96l4.75-8.59c.48-.54,1.26-.78,1.92-.42,.3,.18,.54,.42,.72,.66l4.63,8.35c-.54,.18-1.14,.3-1.74,.48m11.71-8.35c-1.5,2.4-3.48,4.33-5.77,5.83l-3.78-9.07c-.18-.72,.12-1.5,.84-1.86,.24-.12,.54-.18,.84-.18l9.61,1.62c-.36,1.32-.96,2.52-1.74,3.66"/></g></g></g><g><path class="cls-19" d="M2131.9,263.84l-2.61,2.71v7.21h-2.81v-21.33h2.81v10.55l9.48-10.55h3.4l-8.39,9.42,9.05,11.91h-3.37l-7.56-9.92Z"/><path class="cls-19" d="M2154.31,272.19c-1.05,1.24-2.6,1.86-4.64,1.86-1.69,0-2.98-.49-3.86-1.47-.88-.98-1.33-2.43-1.34-4.36v-10.31h2.71v10.24c0,2.4,.98,3.6,2.93,3.6,2.07,0,3.45-.77,4.13-2.31v-11.53h2.71v15.85h-2.58l-.06-1.57Z"/><path class="cls-19" d="M2174.48,266c0,2.42-.56,4.37-1.67,5.84-1.11,1.47-2.61,2.2-4.48,2.2-2,0-3.55-.71-4.64-2.12l-.13,1.83h-2.49v-22.5h2.71v8.39c1.09-1.36,2.6-2.04,4.53-2.04s3.44,.73,4.53,2.18c1.1,1.46,1.65,3.45,1.65,5.98v.23Zm-2.71-.31c0-1.85-.36-3.27-1.07-4.28s-1.74-1.51-3.08-1.51c-1.79,0-3.07,.83-3.85,2.49v6.86c.83,1.66,2.12,2.49,3.88,2.49,1.3,0,2.31-.5,3.03-1.51s1.08-2.52,1.08-4.54Z"/><path class="cls-19" d="M2184.47,274.05c-2.15,0-3.9-.71-5.24-2.12-1.35-1.41-2.02-3.3-2.02-5.66v-.5c0-1.57,.3-2.98,.9-4.21,.6-1.24,1.44-2.2,2.52-2.9,1.08-.7,2.25-1.05,3.51-1.05,2.06,0,3.66,.68,4.8,2.04s1.71,3.3,1.71,5.83v1.13h-10.74c.04,1.56,.49,2.83,1.37,3.79,.87,.96,1.98,1.44,3.33,1.44,.96,0,1.77-.2,2.43-.59s1.25-.91,1.74-1.55l1.65,1.29c-1.33,2.04-3.32,3.06-5.98,3.06Zm-.34-14.21c-1.09,0-2.01,.4-2.75,1.19-.74,.79-1.2,1.91-1.38,3.35h7.94v-.21c-.08-1.38-.45-2.44-1.11-3.2-.66-.76-1.56-1.14-2.7-1.14Z"/><path class="cls-19" d="M2201.45,260.33c-.41-.07-.86-.1-1.33-.1-1.78,0-2.98,.76-3.62,2.27v11.25h-2.71v-15.85h2.64l.04,1.83c.89-1.42,2.15-2.12,3.78-2.12,.53,0,.93,.07,1.2,.21v2.52Z"/><path class="cls-19" d="M2206.5,257.9l.09,1.99c1.21-1.52,2.79-2.29,4.75-2.29,3.35,0,5.04,1.89,5.07,5.67v10.47h-2.71v-10.49c0-1.14-.27-1.99-.78-2.53-.51-.55-1.31-.82-2.4-.82-.88,0-1.65,.23-2.31,.7s-1.18,1.08-1.55,1.85v11.29h-2.71v-15.85h2.56Z"/><path class="cls-19" d="M2227.07,274.05c-2.15,0-3.9-.71-5.24-2.12-1.35-1.41-2.02-3.3-2.02-5.66v-.5c0-1.57,.3-2.98,.9-4.21,.6-1.24,1.44-2.2,2.52-2.9,1.08-.7,2.25-1.05,3.51-1.05,2.06,0,3.66,.68,4.8,2.04s1.71,3.3,1.71,5.83v1.13h-10.74c.04,1.56,.49,2.83,1.37,3.79,.87,.96,1.98,1.44,3.33,1.44,.96,0,1.77-.2,2.43-.59s1.25-.91,1.74-1.55l1.65,1.29c-1.33,2.04-3.32,3.06-5.98,3.06Zm-.34-14.21c-1.09,0-2.01,.4-2.75,1.19-.74,.79-1.2,1.91-1.38,3.35h7.94v-.21c-.08-1.38-.45-2.44-1.11-3.2-.66-.76-1.56-1.14-2.7-1.14Z"/><path class="cls-19" d="M2240.06,254.07v3.84h2.96v2.09h-2.96v9.84c0,.63,.13,1.11,.39,1.43s.71,.48,1.35,.48c.31,0,.74-.06,1.29-.18v2.18c-.71,.19-1.41,.29-2.08,.29-1.21,0-2.12-.37-2.74-1.1s-.92-1.77-.92-3.12v-9.83h-2.88v-2.09h2.88v-3.84h2.71Z"/><path class="cls-19" d="M2252.76,274.05c-2.15,0-3.9-.71-5.24-2.12-1.35-1.41-2.02-3.3-2.02-5.66v-.5c0-1.57,.3-2.98,.9-4.21,.6-1.24,1.44-2.2,2.52-2.9,1.08-.7,2.25-1.05,3.51-1.05,2.06,0,3.66,.68,4.8,2.04s1.71,3.3,1.71,5.83v1.13h-10.74c.04,1.56,.49,2.83,1.37,3.79,.87,.96,1.98,1.44,3.33,1.44,.96,0,1.77-.2,2.43-.59s1.25-.91,1.74-1.55l1.65,1.29c-1.33,2.04-3.32,3.06-5.98,3.06Zm-.34-14.21c-1.09,0-2.01,.4-2.75,1.19-.74,.79-1.2,1.91-1.38,3.35h7.94v-.21c-.08-1.38-.45-2.44-1.11-3.2-.66-.76-1.56-1.14-2.7-1.14Z"/><path class="cls-19" d="M2271.3,269.55c0-.73-.28-1.3-.83-1.71-.55-.4-1.51-.75-2.88-1.05-1.37-.29-2.46-.64-3.27-1.05-.8-.41-1.4-.9-1.79-1.46-.38-.57-.58-1.24-.58-2.02,0-1.3,.55-2.4,1.65-3.3,1.1-.9,2.5-1.35,4.21-1.35,1.8,0,3.25,.46,4.37,1.39,1.12,.93,1.68,2.11,1.68,3.56h-2.72c0-.74-.32-1.38-.95-1.92-.63-.54-1.42-.81-2.38-.81s-1.76,.21-2.31,.64-.83,.99-.83,1.68c0,.65,.26,1.15,.78,1.48s1.45,.65,2.8,.95c1.35,.3,2.45,.66,3.29,1.08s1.46,.93,1.87,1.52c.41,.59,.61,1.31,.61,2.16,0,1.42-.57,2.55-1.7,3.41-1.13,.86-2.6,1.28-4.41,1.28-1.27,0-2.39-.22-3.37-.67s-1.74-1.08-2.29-1.88c-.55-.81-.83-1.68-.83-2.62h2.71c.05,.91,.41,1.63,1.09,2.16,.68,.53,1.57,.8,2.69,.8,1.03,0,1.85-.21,2.47-.62,.62-.41,.93-.97,.93-1.66Z"/><path class="cls-19" d="M2138.53,299.89h-9.24v7.56h10.74v2.3h-13.55v-21.33h13.4v2.3h-10.59v6.87h9.24v2.3Z"/><path class="cls-19" d="M2145.67,293.9l.09,1.99c1.21-1.52,2.79-2.29,4.75-2.29,3.35,0,5.04,1.89,5.07,5.67v10.47h-2.71v-10.49c0-1.14-.27-1.99-.78-2.53-.51-.55-1.31-.82-2.39-.82-.88,0-1.65,.23-2.31,.7s-1.18,1.08-1.55,1.85v11.29h-2.71v-15.85h2.56Z"/><path class="cls-19" d="M2159.01,301.7c0-2.47,.57-4.44,1.71-5.9,1.14-1.46,2.66-2.19,4.54-2.19s3.44,.68,4.53,2.05l.13-1.76h2.47v15.47c0,2.05-.61,3.67-1.82,4.85-1.21,1.18-2.85,1.77-4.9,1.77-1.14,0-2.26-.24-3.36-.73s-1.93-1.16-2.5-2.01l1.41-1.63c1.16,1.44,2.58,2.15,4.26,2.15,1.32,0,2.35-.37,3.08-1.11,.74-.74,1.11-1.79,1.11-3.13v-1.36c-1.08,1.25-2.56,1.88-4.44,1.88s-3.36-.75-4.51-2.24c-1.15-1.49-1.72-3.53-1.72-6.11Zm2.72,.31c0,1.79,.37,3.19,1.1,4.21,.73,1.02,1.76,1.53,3.08,1.53,1.71,0,2.96-.78,3.76-2.33v-7.24c-.83-1.51-2.07-2.27-3.73-2.27-1.32,0-2.35,.51-3.09,1.54s-1.11,2.54-1.11,4.56Z"/><path class="cls-19" d="M2176.5,289.7c0-.44,.13-.81,.4-1.11,.27-.3,.67-.45,1.19-.45s.93,.15,1.2,.45,.41,.67,.41,1.11-.14,.81-.41,1.1-.67,.44-1.2,.44-.93-.15-1.19-.44c-.27-.29-.4-.66-.4-1.1Zm2.93,20.05h-2.71v-15.85h2.71v15.85Z"/><path class="cls-19" d="M2186.33,293.9l.09,1.99c1.21-1.52,2.79-2.29,4.75-2.29,3.35,0,5.04,1.89,5.07,5.67v10.47h-2.71v-10.49c0-1.14-.27-1.99-.78-2.53-.51-.55-1.31-.82-2.39-.82-.88,0-1.65,.23-2.31,.7s-1.18,1.08-1.55,1.85v11.29h-2.71v-15.85h2.56Z"/><path class="cls-19" d="M2206.9,310.05c-2.15,0-3.9-.71-5.24-2.12-1.35-1.41-2.02-3.3-2.02-5.66v-.5c0-1.57,.3-2.98,.9-4.21,.6-1.24,1.44-2.2,2.52-2.9,1.08-.7,2.25-1.05,3.51-1.05,2.06,0,3.66,.68,4.8,2.04s1.71,3.3,1.71,5.83v1.13h-10.74c.04,1.56,.5,2.83,1.37,3.79,.88,.96,1.99,1.44,3.33,1.44,.96,0,1.77-.2,2.43-.59s1.24-.91,1.74-1.55l1.66,1.29c-1.33,2.04-3.32,3.06-5.98,3.06Zm-.34-14.21c-1.09,0-2.01,.4-2.75,1.19-.74,.79-1.2,1.91-1.38,3.35h7.94v-.21c-.08-1.38-.45-2.44-1.11-3.2-.66-.76-1.56-1.14-2.7-1.14Z"/></g><g><path class="cls-19" d="M1550.03,731.61h-8.94l-2.01,5.58h-2.9l8.14-21.33h2.46l8.16,21.33h-2.88l-2.04-5.58Zm-8.09-2.3h7.25l-3.63-9.98-3.62,9.98Z"/><path class="cls-19" d="M1560.63,728.84v8.35h-2.81v-21.33h7.87c2.33,0,4.16,.6,5.49,1.79,1.32,1.19,1.98,2.77,1.98,4.73,0,2.07-.65,3.66-1.94,4.78-1.29,1.12-3.15,1.68-5.56,1.68h-5.03Zm0-2.3h5.05c1.5,0,2.66-.35,3.46-1.06,.8-.71,1.2-1.73,1.2-3.07,0-1.27-.4-2.29-1.2-3.05s-1.9-1.16-3.3-1.19h-5.21v8.38Z"/><path class="cls-19" d="M1579.76,737.19h-2.81v-21.33h2.81v21.33Z"/></g><rect class="cls-7" x="879" y="120" width="213" height="983" rx="19.24" ry="19.24"/><g><path class="cls-19" d="M964.35,500.67h-3.02l-11.45-17.53v17.53h-3.02v-22.75h3.02l11.48,17.61v-17.61h2.98v22.75Z"/><path class="cls-19" d="M968.54,492.07c0-2.63,.61-4.73,1.83-6.29,1.22-1.56,2.83-2.34,4.84-2.34s3.67,.73,4.83,2.19l.14-1.88h2.64v16.5c0,2.19-.65,3.91-1.95,5.17-1.3,1.26-3.04,1.89-5.23,1.89-1.22,0-2.41-.26-3.58-.78-1.17-.52-2.06-1.23-2.67-2.14l1.5-1.73c1.24,1.53,2.75,2.3,4.55,2.3,1.41,0,2.5-.4,3.29-1.19,.79-.79,1.18-1.91,1.18-3.34v-1.45c-1.16,1.33-2.73,2-4.73,2s-3.58-.8-4.8-2.39-1.84-3.77-1.84-6.52Zm2.91,.33c0,1.91,.39,3.4,1.17,4.49,.78,1.09,1.88,1.63,3.28,1.63,1.82,0,3.16-.83,4.02-2.48v-7.72c-.89-1.61-2.21-2.42-3.98-2.42-1.41,0-2.5,.55-3.3,1.64s-1.19,2.71-1.19,4.86Z"/><path class="cls-19" d="M987.19,479.28c0-.47,.14-.86,.43-1.19,.29-.32,.71-.48,1.27-.48s.99,.16,1.28,.48c.29,.32,.44,.72,.44,1.19s-.15,.86-.44,1.17-.72,.47-1.28,.47-.99-.16-1.27-.47-.43-.7-.43-1.17Zm3.12,21.39h-2.89v-16.91h2.89v16.91Z"/><path class="cls-19" d="M997.68,483.76l.09,2.12c1.29-1.62,2.98-2.44,5.06-2.44,3.57,0,5.38,2.02,5.41,6.05v11.17h-2.89v-11.19c-.01-1.22-.29-2.12-.84-2.7-.55-.58-1.4-.88-2.55-.88-.94,0-1.76,.25-2.47,.75s-1.26,1.16-1.66,1.97v12.05h-2.89v-16.91h2.73Z"/><path class="cls-19" d="M1018.27,489.93l3.75-6.17h3.38l-5.53,8.36,5.7,8.55h-3.34l-3.91-6.33-3.91,6.33h-3.36l5.7-8.55-5.53-8.36h3.34l3.7,6.17Z"/><path class="cls-19" d="M938.71,539.07h-3v-22.75h3v22.75Z"/><path class="cls-19" d="M946.47,522.16l.09,2.12c1.29-1.62,2.98-2.44,5.06-2.44,3.57,0,5.38,2.02,5.41,6.05v11.17h-2.89v-11.19c-.01-1.22-.29-2.12-.84-2.7-.55-.58-1.4-.88-2.55-.88-.94,0-1.76,.25-2.47,.75s-1.26,1.16-1.66,1.97v12.05h-2.89v-16.91h2.73Z"/><path class="cls-19" d="M960.71,530.47c0-2.63,.61-4.73,1.83-6.29,1.22-1.56,2.83-2.34,4.84-2.34s3.67,.73,4.83,2.19l.14-1.88h2.64v16.5c0,2.19-.65,3.91-1.95,5.17-1.3,1.26-3.04,1.89-5.23,1.89-1.22,0-2.41-.26-3.58-.78-1.17-.52-2.06-1.23-2.67-2.14l1.5-1.73c1.24,1.53,2.75,2.3,4.55,2.3,1.41,0,2.5-.4,3.29-1.19,.79-.79,1.18-1.91,1.18-3.34v-1.45c-1.16,1.33-2.73,2-4.73,2s-3.58-.8-4.8-2.39-1.84-3.77-1.84-6.52Zm2.91,.33c0,1.91,.39,3.4,1.17,4.49,.78,1.09,1.88,1.63,3.28,1.63,1.82,0,3.16-.83,4.02-2.48v-7.72c-.89-1.61-2.21-2.42-3.98-2.42-1.41,0-2.5,.55-3.3,1.64s-1.19,2.71-1.19,4.86Z"/><path class="cls-19" d="M987.52,524.75c-.44-.07-.91-.11-1.42-.11-1.9,0-3.18,.81-3.86,2.42v12h-2.89v-16.91h2.81l.05,1.95c.95-1.51,2.29-2.27,4.03-2.27,.56,0,.99,.07,1.28,.22v2.69Z"/><path class="cls-19" d="M996.9,539.38c-2.29,0-4.16-.75-5.59-2.26-1.44-1.5-2.16-3.52-2.16-6.04v-.53c0-1.68,.32-3.17,.96-4.49,.64-1.32,1.54-2.35,2.69-3.09,1.15-.74,2.4-1.12,3.74-1.12,2.2,0,3.91,.72,5.12,2.17,1.22,1.45,1.83,3.52,1.83,6.22v1.2h-11.45c.04,1.67,.53,3.01,1.46,4.04,.93,1.03,2.12,1.54,3.55,1.54,1.02,0,1.89-.21,2.59-.62,.71-.42,1.33-.97,1.86-1.66l1.77,1.38c-1.42,2.18-3.54,3.27-6.38,3.27Zm-.36-15.16c-1.17,0-2.15,.42-2.94,1.27-.79,.85-1.28,2.04-1.47,3.57h8.47v-.22c-.08-1.47-.48-2.61-1.19-3.41-.71-.81-1.67-1.21-2.88-1.21Z"/><path class="cls-19" d="M1016.68,534.58c0-.78-.29-1.39-.88-1.82-.59-.43-1.61-.8-3.08-1.12s-2.62-.69-3.48-1.12-1.5-.96-1.91-1.56c-.41-.6-.62-1.32-.62-2.16,0-1.38,.59-2.56,1.76-3.52,1.17-.96,2.67-1.44,4.49-1.44,1.92,0,3.47,.5,4.66,1.48,1.19,.99,1.79,2.26,1.79,3.8h-2.91c0-.79-.34-1.47-1.01-2.05-.67-.57-1.52-.86-2.54-.86s-1.88,.23-2.47,.69c-.59,.46-.89,1.06-.89,1.8,0,.7,.28,1.22,.83,1.58,.55,.35,1.55,.69,2.99,1.02,1.44,.32,2.61,.71,3.51,1.16,.9,.45,1.56,.99,1.99,1.62,.43,.63,.65,1.4,.65,2.3,0,1.51-.6,2.72-1.81,3.63-1.21,.91-2.78,1.37-4.7,1.37-1.35,0-2.55-.24-3.59-.72s-1.86-1.15-2.45-2.01-.88-1.79-.88-2.79h2.89c.05,.97,.44,1.74,1.16,2.3,.72,.57,1.68,.85,2.87,.85,1.09,0,1.97-.22,2.63-.66,.66-.44,.99-1.03,.99-1.77Z"/><path class="cls-19" d="M1033.18,534.58c0-.78-.29-1.39-.88-1.82-.59-.43-1.61-.8-3.08-1.12s-2.62-.69-3.48-1.12-1.5-.96-1.91-1.56c-.41-.6-.62-1.32-.62-2.16,0-1.38,.59-2.56,1.76-3.52,1.17-.96,2.67-1.44,4.49-1.44,1.92,0,3.47,.5,4.66,1.48,1.19,.99,1.79,2.26,1.79,3.8h-2.91c0-.79-.34-1.47-1.01-2.05-.67-.57-1.52-.86-2.54-.86s-1.88,.23-2.47,.69c-.59,.46-.89,1.06-.89,1.8,0,.7,.28,1.22,.83,1.58,.55,.35,1.55,.69,2.99,1.02,1.44,.32,2.61,.71,3.51,1.16,.9,.45,1.56,.99,1.99,1.62,.43,.63,.65,1.4,.65,2.3,0,1.51-.6,2.72-1.81,3.63-1.21,.91-2.78,1.37-4.7,1.37-1.35,0-2.55-.24-3.59-.72s-1.86-1.15-2.45-2.01-.88-1.79-.88-2.79h2.89c.05,.97,.44,1.74,1.16,2.3,.72,.57,1.68,.85,2.87,.85,1.09,0,1.97-.22,2.63-.66,.66-.44,.99-1.03,.99-1.77Z"/><path class="cls-19" d="M934.99,570.25c-.28,2.41-1.17,4.26-2.66,5.57-1.5,1.31-3.48,1.96-5.96,1.96-2.69,0-4.84-.96-6.46-2.89-1.62-1.93-2.43-4.5-2.43-7.73v-2.19c0-2.11,.38-3.97,1.13-5.58,.75-1.6,1.83-2.84,3.21-3.7s2.99-1.29,4.81-1.29c2.42,0,4.35,.67,5.81,2.02,1.46,1.35,2.31,3.22,2.55,5.6h-3.02c-.26-1.82-.83-3.13-1.7-3.95-.87-.82-2.09-1.22-3.65-1.22-1.92,0-3.42,.71-4.51,2.13s-1.63,3.44-1.63,6.05v2.21c0,2.47,.52,4.44,1.55,5.9,1.03,1.46,2.47,2.19,4.33,2.19,1.67,0,2.95-.38,3.84-1.13,.89-.75,1.48-2.07,1.77-3.95h3.02Z"/><path class="cls-19" d="M937.86,568.86c0-1.66,.33-3.15,.98-4.47,.65-1.32,1.56-2.34,2.72-3.06s2.49-1.08,3.98-1.08c2.3,0,4.16,.8,5.59,2.39s2.13,3.71,2.13,6.36v.2c0,1.65-.32,3.12-.95,4.43-.63,1.31-1.53,2.33-2.7,3.05-1.17,.73-2.52,1.09-4.04,1.09-2.29,0-4.15-.8-5.57-2.39s-2.13-3.7-2.13-6.33v-.2Zm2.91,.34c0,1.88,.43,3.38,1.3,4.52,.87,1.14,2.03,1.7,3.49,1.7s2.64-.58,3.5-1.73c.86-1.15,1.3-2.76,1.3-4.84,0-1.85-.44-3.36-1.32-4.51-.88-1.15-2.05-1.73-3.51-1.73s-2.58,.57-3.45,1.7c-.88,1.14-1.31,2.76-1.31,4.88Z"/><path class="cls-19" d="M959.61,560.56l.09,2.12c1.29-1.62,2.98-2.44,5.06-2.44,3.57,0,5.38,2.02,5.41,6.05v11.17h-2.89v-11.19c-.01-1.22-.29-2.12-.84-2.7-.55-.58-1.4-.88-2.55-.88-.94,0-1.76,.25-2.47,.75s-1.26,1.16-1.66,1.97v12.05h-2.89v-16.91h2.73Z"/><path class="cls-19" d="M978.46,556.47v4.09h3.16v2.23h-3.16v10.5c0,.68,.14,1.19,.42,1.53,.28,.34,.76,.51,1.44,.51,.33,0,.79-.06,1.38-.19v2.33c-.76,.21-1.5,.31-2.22,.31-1.29,0-2.27-.39-2.92-1.17s-.98-1.89-.98-3.33v-10.48h-3.08v-2.23h3.08v-4.09h2.89Z"/><path class="cls-19" d="M993.16,563.15c-.44-.07-.91-.11-1.42-.11-1.9,0-3.18,.81-3.86,2.42v12h-2.89v-16.91h2.81l.05,1.95c.95-1.51,2.29-2.27,4.03-2.27,.56,0,.99,.07,1.28,.22v2.69Z"/><path class="cls-19" d="M994.74,568.86c0-1.66,.33-3.15,.98-4.47,.65-1.32,1.56-2.34,2.72-3.06s2.49-1.08,3.98-1.08c2.3,0,4.16,.8,5.59,2.39s2.13,3.71,2.13,6.36v.2c0,1.65-.32,3.12-.95,4.43-.63,1.31-1.53,2.33-2.7,3.05-1.17,.73-2.52,1.09-4.04,1.09-2.29,0-4.15-.8-5.57-2.39s-2.13-3.7-2.13-6.33v-.2Zm2.91,.34c0,1.88,.43,3.38,1.3,4.52,.87,1.14,2.03,1.7,3.49,1.7s2.64-.58,3.5-1.73c.86-1.15,1.3-2.76,1.3-4.84,0-1.85-.44-3.36-1.32-4.51-.88-1.15-2.05-1.73-3.51-1.73s-2.58,.57-3.45,1.7c-.88,1.14-1.31,2.76-1.31,4.88Z"/><path class="cls-19" d="M1016.9,577.47h-2.89v-24h2.89v24Z"/><path class="cls-19" d="M1024.66,577.47h-2.89v-24h2.89v24Z"/><path class="cls-19" d="M1036.3,577.78c-2.29,0-4.16-.75-5.59-2.26-1.44-1.5-2.16-3.52-2.16-6.04v-.53c0-1.68,.32-3.17,.96-4.49,.64-1.32,1.54-2.35,2.69-3.09,1.15-.74,2.4-1.12,3.74-1.12,2.2,0,3.91,.72,5.12,2.17,1.22,1.45,1.83,3.52,1.83,6.22v1.2h-11.45c.04,1.67,.53,3.01,1.46,4.04,.93,1.03,2.12,1.54,3.55,1.54,1.02,0,1.89-.21,2.59-.62,.71-.42,1.33-.97,1.86-1.66l1.77,1.38c-1.42,2.18-3.54,3.27-6.38,3.27Zm-.36-15.16c-1.17,0-2.15,.42-2.94,1.27-.79,.85-1.28,2.04-1.47,3.57h8.47v-.22c-.08-1.47-.48-2.61-1.19-3.41-.71-.81-1.67-1.21-2.88-1.21Z"/><path class="cls-19" d="M1054.41,563.15c-.44-.07-.91-.11-1.42-.11-1.9,0-3.18,.81-3.86,2.42v12h-2.89v-16.91h2.81l.05,1.95c.95-1.51,2.29-2.27,4.03-2.27,.56,0,.99,.07,1.28,.22v2.69Z"/></g><g><path class="cls-11" d="M125.84,624.63h-59.3c-5.35,.19-9.86-3.97-10.09-9.32v-78.19H127.24"/><path class="cls-11" d="M125.84,624.63h62.07c5.35,.19,9.86-3.97,10.09-9.32v-78.19H127.24"/><path class="cls-11" d="M127.24,537.11h70.76v-10.36c-.02-5.13-4.17-9.28-9.3-9.3H65.77c-5.13,.02-9.28,4.17-9.3,9.3v10.36H127.24"/><circle class="cls-20" cx="67.51" cy="527.29" r="3.46"/><circle class="cls-20" cx="82.04" cy="527.29" r="3.46"/><circle class="cls-20" cx="96.58" cy="527.29" r="3.46"/></g><rect class="cls-5" x="578" y="35" width="1730" height="1098" rx="15.49" ry="15.49"/><g><path class="cls-19" d="M614,71.84h-8.94l-2.01,5.58h-2.9l8.14-21.33h2.46l8.16,21.33h-2.89l-2.04-5.58Zm-8.09-2.3h7.25l-3.63-9.98-3.62,9.98Z"/><path class="cls-19" d="M624.1,75.21h9.27v2.21h-12.58v-1.99l8.75-11.62h-8.61v-2.24h12.01v1.92l-8.83,11.72Z"/><path class="cls-19" d="M646.2,75.86c-1.05,1.24-2.6,1.86-4.64,1.86-1.69,0-2.98-.49-3.86-1.47-.88-.98-1.33-2.43-1.34-4.36v-10.31h2.71v10.24c0,2.4,.98,3.6,2.93,3.6,2.07,0,3.45-.77,4.13-2.31v-11.53h2.71v15.85h-2.58l-.06-1.57Z"/><path class="cls-19" d="M660.62,64.01c-.41-.07-.86-.1-1.33-.1-1.78,0-2.98,.76-3.62,2.27v11.25h-2.71v-15.85h2.64l.04,1.83c.89-1.42,2.15-2.12,3.78-2.12,.53,0,.93,.07,1.2,.21v2.52Z"/><path class="cls-19" d="M669.4,77.72c-2.15,0-3.9-.71-5.24-2.12s-2.02-3.3-2.02-5.66v-.5c0-1.57,.3-2.98,.9-4.21,.6-1.24,1.44-2.2,2.52-2.9,1.08-.7,2.25-1.05,3.51-1.05,2.06,0,3.66,.68,4.8,2.04s1.71,3.3,1.71,5.83v1.13h-10.74c.04,1.56,.5,2.82,1.37,3.79,.88,.96,1.99,1.44,3.33,1.44,.96,0,1.77-.2,2.43-.59s1.24-.91,1.74-1.55l1.66,1.29c-1.33,2.04-3.32,3.06-5.98,3.06Zm-.34-14.21c-1.09,0-2.01,.4-2.75,1.19s-1.2,1.91-1.38,3.35h7.94v-.21c-.08-1.38-.45-2.44-1.11-3.2s-1.56-1.13-2.7-1.13Z"/><path class="cls-19" d="M698.35,71.84h-8.94l-2.01,5.58h-2.9l8.14-21.33h2.46l8.16,21.33h-2.89l-2.04-5.58Zm-8.09-2.3h7.25l-3.63-9.98-3.62,9.98Z"/><path class="cls-19" d="M711.56,67.51l-2.61,2.71v7.21h-2.81v-21.33h2.81v10.55l9.48-10.55h3.4l-8.39,9.42,9.05,11.91h-3.37l-7.56-9.92Z"/><path class="cls-19" d="M731.23,67.92c-2.41-.69-4.17-1.54-5.27-2.56-1.1-1.01-1.65-2.26-1.65-3.74,0-1.68,.67-3.07,2.01-4.17,1.34-1.1,3.09-1.65,5.24-1.65,1.46,0,2.77,.28,3.92,.85,1.15,.57,2.04,1.35,2.67,2.34,.63,1,.95,2.08,.95,3.27h-2.83c0-1.29-.41-2.31-1.23-3.05s-1.98-1.11-3.47-1.11c-1.39,0-2.47,.31-3.25,.92-.78,.61-1.16,1.46-1.16,2.55,0,.87,.37,1.61,1.11,2.21,.74,.6,1.99,1.15,3.77,1.65,1.77,.5,3.16,1.05,4.16,1.65,1,.6,1.74,1.3,2.23,2.1,.48,.8,.72,1.74,.72,2.83,0,1.73-.67,3.11-2.02,4.15s-3.15,1.56-5.4,1.56c-1.46,0-2.83-.28-4.1-.84s-2.25-1.33-2.94-2.31c-.69-.98-1.03-2.08-1.03-3.32h2.83c0,1.29,.47,2.31,1.43,3.05,.95,.75,2.22,1.12,3.82,1.12,1.48,0,2.62-.3,3.41-.91s1.19-1.43,1.19-2.47-.37-1.85-1.1-2.42-2.06-1.14-3.98-1.69Z"/><path class="cls-19" d="M765.86,70.66c-.26,2.26-1.1,4-2.5,5.22-1.4,1.23-3.26,1.84-5.59,1.84-2.52,0-4.54-.9-6.06-2.71-1.52-1.81-2.28-4.22-2.28-7.25v-2.05c0-1.98,.35-3.73,1.06-5.23,.71-1.5,1.71-2.66,3.01-3.46s2.8-1.21,4.51-1.21c2.27,0,4.08,.63,5.45,1.9s2.16,3.02,2.39,5.25h-2.83c-.24-1.71-.78-2.94-1.59-3.7-.82-.76-1.96-1.15-3.42-1.15-1.8,0-3.21,.67-4.23,1.99-1.02,1.33-1.53,3.22-1.53,5.67v2.07c0,2.32,.48,4.16,1.45,5.53s2.32,2.05,4.06,2.05c1.56,0,2.76-.35,3.6-1.06,.84-.71,1.39-1.94,1.66-3.7h2.83Z"/><path class="cls-19" d="M772.22,77.42h-2.71v-22.5h2.71v22.5Z"/><path class="cls-19" d="M786.34,75.86c-1.05,1.24-2.6,1.86-4.64,1.86-1.69,0-2.98-.49-3.86-1.47-.88-.98-1.33-2.43-1.34-4.36v-10.31h2.71v10.24c0,2.4,.98,3.6,2.93,3.6,2.07,0,3.45-.77,4.13-2.31v-11.53h2.71v15.85h-2.58l-.06-1.57Z"/><path class="cls-19" d="M802.32,73.22c0-.73-.28-1.3-.83-1.71-.55-.41-1.51-.75-2.88-1.05-1.37-.29-2.46-.64-3.27-1.05-.8-.41-1.4-.9-1.79-1.46-.39-.57-.58-1.24-.58-2.02,0-1.3,.55-2.4,1.65-3.29,1.1-.9,2.5-1.35,4.21-1.35,1.8,0,3.25,.46,4.37,1.39,1.12,.93,1.68,2.12,1.68,3.56h-2.72c0-.74-.31-1.38-.94-1.92-.63-.54-1.42-.8-2.38-.8s-1.76,.21-2.31,.64-.84,.99-.84,1.68c0,.65,.26,1.15,.78,1.48s1.45,.65,2.8,.95c1.35,.3,2.45,.66,3.29,1.08s1.46,.93,1.87,1.52c.4,.59,.61,1.31,.61,2.16,0,1.42-.57,2.55-1.7,3.41s-2.6,1.28-4.41,1.28c-1.27,0-2.39-.22-3.37-.67s-1.74-1.08-2.29-1.88c-.55-.81-.83-1.68-.83-2.62h2.71c.05,.91,.41,1.63,1.09,2.16,.68,.53,1.57,.8,2.69,.8,1.03,0,1.85-.21,2.47-.62,.62-.42,.93-.97,.93-1.66Z"/><path class="cls-19" d="M812.24,57.74v3.84h2.96v2.09h-2.96v9.84c0,.64,.13,1.11,.4,1.43,.26,.32,.71,.48,1.35,.48,.31,0,.74-.06,1.29-.18v2.19c-.71,.19-1.41,.29-2.08,.29-1.21,0-2.12-.37-2.74-1.1s-.92-1.77-.92-3.12v-9.83h-2.89v-2.09h2.89v-3.84h2.71Z"/><path class="cls-19" d="M824.94,77.72c-2.15,0-3.9-.71-5.24-2.12s-2.02-3.3-2.02-5.66v-.5c0-1.57,.3-2.98,.9-4.21,.6-1.24,1.44-2.2,2.52-2.9,1.08-.7,2.25-1.05,3.51-1.05,2.06,0,3.66,.68,4.8,2.04s1.71,3.3,1.71,5.83v1.13h-10.74c.04,1.56,.5,2.82,1.37,3.79,.88,.96,1.99,1.44,3.33,1.44,.96,0,1.77-.2,2.43-.59s1.24-.91,1.74-1.55l1.66,1.29c-1.33,2.04-3.32,3.06-5.98,3.06Zm-.34-14.21c-1.09,0-2.01,.4-2.75,1.19s-1.2,1.91-1.38,3.35h7.94v-.21c-.08-1.38-.45-2.44-1.11-3.2s-1.56-1.13-2.7-1.13Z"/><path class="cls-19" d="M841.92,64.01c-.41-.07-.85-.1-1.33-.1-1.78,0-2.98,.76-3.62,2.27v11.25h-2.71v-15.85h2.64l.04,1.83c.89-1.42,2.15-2.12,3.78-2.12,.53,0,.93,.07,1.2,.21v2.52Z"/></g><g><path class="cls-19" d="M229.59,544.14h-2.81v-21.33h2.81v21.33Z"/><path class="cls-19" d="M236.87,528.29l.09,1.99c1.21-1.52,2.79-2.29,4.75-2.29,3.35,0,5.04,1.89,5.07,5.67v10.47h-2.71v-10.49c0-1.14-.27-1.99-.78-2.53-.51-.55-1.31-.82-2.4-.82-.88,0-1.65,.23-2.31,.7s-1.18,1.08-1.55,1.85v11.29h-2.71v-15.85h2.56Z"/><path class="cls-19" d="M250.21,536.08c0-2.47,.57-4.44,1.71-5.9,1.14-1.46,2.66-2.19,4.54-2.19s3.44,.68,4.53,2.05l.13-1.76h2.48v15.47c0,2.05-.61,3.67-1.82,4.85-1.21,1.18-2.85,1.77-4.9,1.77-1.14,0-2.26-.24-3.35-.73s-1.93-1.16-2.5-2.01l1.41-1.63c1.16,1.44,2.58,2.15,4.26,2.15,1.32,0,2.35-.37,3.08-1.11,.74-.74,1.11-1.79,1.11-3.13v-1.36c-1.08,1.25-2.56,1.88-4.44,1.88s-3.36-.75-4.5-2.24-1.72-3.53-1.72-6.11Zm2.72,.31c0,1.79,.37,3.19,1.1,4.21s1.76,1.53,3.08,1.53c1.71,0,2.96-.78,3.76-2.33v-7.24c-.83-1.51-2.08-2.27-3.74-2.27-1.32,0-2.35,.51-3.09,1.54s-1.11,2.54-1.11,4.56Z"/><path class="cls-19" d="M275.35,530.72c-.41-.07-.85-.1-1.33-.1-1.78,0-2.98,.76-3.62,2.27v11.25h-2.71v-15.85h2.64l.04,1.83c.89-1.42,2.15-2.12,3.78-2.12,.53,0,.93,.07,1.2,.21v2.52Z"/><path class="cls-19" d="M284.14,544.43c-2.15,0-3.9-.71-5.24-2.12-1.35-1.41-2.02-3.3-2.02-5.66v-.5c0-1.57,.3-2.98,.9-4.21,.6-1.23,1.44-2.2,2.52-2.9,1.08-.7,2.25-1.05,3.51-1.05,2.06,0,3.66,.68,4.8,2.04s1.71,3.3,1.71,5.83v1.13h-10.74c.04,1.56,.5,2.83,1.37,3.79s1.99,1.44,3.33,1.44c.96,0,1.77-.2,2.43-.59s1.25-.91,1.74-1.55l1.66,1.29c-1.33,2.04-3.32,3.06-5.98,3.06Zm-.34-14.21c-1.09,0-2.01,.4-2.75,1.19-.74,.8-1.2,1.91-1.38,3.35h7.94v-.21c-.08-1.38-.45-2.44-1.11-3.2-.66-.76-1.56-1.13-2.7-1.13Z"/><path class="cls-19" d="M302.69,539.93c0-.73-.28-1.3-.83-1.71s-1.51-.75-2.88-1.05c-1.37-.29-2.46-.64-3.27-1.05-.8-.41-1.4-.9-1.79-1.46s-.58-1.24-.58-2.02c0-1.3,.55-2.4,1.65-3.3,1.1-.9,2.5-1.35,4.21-1.35,1.8,0,3.25,.46,4.37,1.39,1.12,.93,1.68,2.11,1.68,3.56h-2.72c0-.74-.32-1.38-.94-1.92-.63-.54-1.42-.81-2.38-.81s-1.76,.21-2.31,.64-.83,.99-.83,1.68c0,.65,.26,1.15,.78,1.48s1.45,.65,2.8,.95,2.45,.66,3.29,1.08,1.46,.93,1.87,1.52,.61,1.31,.61,2.16c0,1.42-.57,2.55-1.7,3.41s-2.6,1.28-4.41,1.28c-1.27,0-2.39-.22-3.37-.67s-1.74-1.08-2.29-1.88c-.55-.8-.83-1.68-.83-2.61h2.71c.05,.91,.41,1.63,1.09,2.16,.68,.53,1.57,.8,2.69,.8,1.03,0,1.85-.21,2.47-.62,.62-.42,.93-.97,.93-1.66Z"/><path class="cls-19" d="M318.15,539.93c0-.73-.28-1.3-.83-1.71s-1.51-.75-2.88-1.05c-1.37-.29-2.46-.64-3.27-1.05-.8-.41-1.4-.9-1.79-1.46s-.58-1.24-.58-2.02c0-1.3,.55-2.4,1.65-3.3,1.1-.9,2.5-1.35,4.21-1.35,1.8,0,3.25,.46,4.37,1.39,1.12,.93,1.68,2.11,1.68,3.56h-2.72c0-.74-.32-1.38-.94-1.92-.63-.54-1.42-.81-2.38-.81s-1.76,.21-2.31,.64-.83,.99-.83,1.68c0,.65,.26,1.15,.78,1.48s1.45,.65,2.8,.95,2.45,.66,3.29,1.08,1.46,.93,1.87,1.52,.61,1.31,.61,2.16c0,1.42-.57,2.55-1.7,3.41s-2.6,1.28-4.41,1.28c-1.27,0-2.39-.22-3.37-.67s-1.74-1.08-2.29-1.88c-.55-.8-.83-1.68-.83-2.61h2.71c.05,.91,.41,1.63,1.09,2.16,.68,.53,1.57,.8,2.69,.8,1.03,0,1.85-.21,2.47-.62,.62-.42,.93-.97,.93-1.66Z"/><path class="cls-19" d="M335.88,522.81l6.97,17.4,6.97-17.4h3.65v21.33h-2.81v-8.31l.26-8.96-7,17.27h-2.15l-6.99-17.23,.28,8.92v8.31h-2.81v-21.33h3.63Z"/><path class="cls-19" d="M367.8,544.14c-.16-.31-.28-.87-.38-1.67-1.26,1.31-2.76,1.96-4.51,1.96-1.56,0-2.84-.44-3.85-1.33-1-.88-1.5-2-1.5-3.36,0-1.65,.63-2.93,1.88-3.85,1.25-.91,3.02-1.37,5.3-1.37h2.64v-1.25c0-.95-.28-1.7-.85-2.26s-1.4-.84-2.5-.84c-.97,0-1.78,.24-2.43,.73s-.98,1.08-.98,1.77h-2.72c0-.79,.28-1.55,.84-2.29,.56-.74,1.32-1.32,2.29-1.75,.96-.43,2.02-.64,3.17-.64,1.83,0,3.26,.46,4.29,1.37,1.04,.91,1.57,2.17,1.61,3.77v7.29c0,1.46,.19,2.61,.56,3.47v.23h-2.84Zm-4.5-2.07c.85,0,1.66-.22,2.42-.66s1.31-1.01,1.66-1.71v-3.25h-2.12c-3.32,0-4.98,.97-4.98,2.92,0,.85,.28,1.51,.85,1.99s1.29,.72,2.18,.72Z"/><path class="cls-19" d="M376.89,528.29l.09,1.99c1.21-1.52,2.79-2.29,4.75-2.29,3.35,0,5.04,1.89,5.07,5.67v10.47h-2.71v-10.49c0-1.14-.27-1.99-.78-2.53-.51-.55-1.31-.82-2.4-.82-.88,0-1.65,.23-2.31,.7s-1.18,1.08-1.55,1.85v11.29h-2.71v-15.85h2.56Z"/><path class="cls-19" d="M400.67,544.14c-.16-.31-.28-.87-.38-1.67-1.26,1.31-2.76,1.96-4.51,1.96-1.56,0-2.84-.44-3.85-1.33-1-.88-1.5-2-1.5-3.36,0-1.65,.63-2.93,1.88-3.85,1.25-.91,3.02-1.37,5.3-1.37h2.64v-1.25c0-.95-.28-1.7-.85-2.26s-1.4-.84-2.5-.84c-.97,0-1.78,.24-2.43,.73s-.98,1.08-.98,1.77h-2.72c0-.79,.28-1.55,.84-2.29,.56-.74,1.32-1.32,2.29-1.75,.96-.43,2.02-.64,3.17-.64,1.83,0,3.26,.46,4.29,1.37,1.04,.91,1.57,2.17,1.61,3.77v7.29c0,1.46,.19,2.61,.56,3.47v.23h-2.84Zm-4.5-2.07c.85,0,1.66-.22,2.42-.66s1.31-1.01,1.66-1.71v-3.25h-2.12c-3.32,0-4.98,.97-4.98,2.92,0,.85,.28,1.51,.85,1.99s1.29,.72,2.18,.72Z"/><path class="cls-19" d="M406.56,536.08c0-2.47,.57-4.44,1.71-5.9,1.14-1.46,2.66-2.19,4.54-2.19s3.44,.68,4.53,2.05l.13-1.76h2.48v15.47c0,2.05-.61,3.67-1.82,4.85-1.21,1.18-2.85,1.77-4.9,1.77-1.14,0-2.26-.24-3.35-.73s-1.93-1.16-2.5-2.01l1.41-1.63c1.16,1.44,2.58,2.15,4.26,2.15,1.32,0,2.35-.37,3.08-1.11,.74-.74,1.11-1.79,1.11-3.13v-1.36c-1.08,1.25-2.56,1.88-4.44,1.88s-3.36-.75-4.5-2.24-1.72-3.53-1.72-6.11Zm2.72,.31c0,1.79,.37,3.19,1.1,4.21s1.76,1.53,3.08,1.53c1.71,0,2.96-.78,3.76-2.33v-7.24c-.83-1.51-2.08-2.27-3.74-2.27-1.32,0-2.35,.51-3.09,1.54s-1.11,2.54-1.11,4.56Z"/><path class="cls-19" d="M430.61,544.43c-2.15,0-3.9-.71-5.24-2.12-1.35-1.41-2.02-3.3-2.02-5.66v-.5c0-1.57,.3-2.98,.9-4.21,.6-1.23,1.44-2.2,2.52-2.9,1.08-.7,2.25-1.05,3.51-1.05,2.06,0,3.66,.68,4.8,2.04s1.71,3.3,1.71,5.83v1.13h-10.74c.04,1.56,.5,2.83,1.37,3.79s1.99,1.44,3.33,1.44c.96,0,1.77-.2,2.43-.59s1.25-.91,1.74-1.55l1.66,1.29c-1.33,2.04-3.32,3.06-5.98,3.06Zm-.34-14.21c-1.09,0-2.01,.4-2.75,1.19-.74,.8-1.2,1.91-1.38,3.35h7.94v-.21c-.08-1.38-.45-2.44-1.11-3.2-.66-.76-1.56-1.13-2.7-1.13Z"/><path class="cls-19" d="M439.27,536.08c0-2.43,.58-4.39,1.73-5.87,1.15-1.48,2.66-2.22,4.53-2.22s3.33,.63,4.41,1.9v-8.26h2.71v22.5h-2.49l-.13-1.7c-1.08,1.33-2.59,1.99-4.53,1.99s-3.33-.75-4.49-2.26c-1.16-1.5-1.74-3.47-1.74-5.89v-.21Zm2.71,.31c0,1.8,.37,3.2,1.11,4.22s1.77,1.52,3.08,1.52c1.72,0,2.97-.77,3.76-2.31v-7.28c-.81-1.49-2.06-2.24-3.74-2.24-1.33,0-2.36,.51-3.11,1.54s-1.11,2.54-1.11,4.56Z"/><path class="cls-19" d="M242.96,616.14h-2.83v-9.86h-10.75v9.86h-2.81v-21.33h2.81v9.17h10.75v-9.17h2.83v21.33Z"/><path class="cls-19" d="M262.27,597.11h-6.86v19.03h-2.8v-19.03h-6.84v-2.3h16.49v2.3Z"/><path class="cls-19" d="M280.41,597.11h-6.86v19.03h-2.8v-19.03h-6.84v-2.3h16.49v2.3Z"/><path class="cls-19" d="M286.38,607.79v8.35h-2.81v-21.33h7.87c2.33,0,4.16,.6,5.49,1.79,1.32,1.19,1.98,2.77,1.98,4.73,0,2.07-.65,3.67-1.94,4.78-1.29,1.12-3.15,1.68-5.56,1.68h-5.02Zm0-2.3h5.05c1.5,0,2.66-.35,3.46-1.06s1.2-1.73,1.2-3.07-.4-2.29-1.2-3.05c-.8-.76-1.9-1.16-3.3-1.19h-5.21v8.38Z"/><path class="cls-19" d="M308.78,606.63c-2.41-.69-4.17-1.55-5.27-2.56-1.1-1.01-1.65-2.26-1.65-3.74,0-1.68,.67-3.07,2.01-4.17,1.34-1.1,3.09-1.65,5.24-1.65,1.46,0,2.77,.28,3.92,.85,1.15,.57,2.04,1.35,2.67,2.34,.63,1,.94,2.08,.94,3.27h-2.83c0-1.29-.41-2.31-1.23-3.05-.82-.74-1.98-1.11-3.47-1.11-1.39,0-2.47,.31-3.25,.92-.78,.61-1.16,1.46-1.16,2.55,0,.87,.37,1.61,1.11,2.21s1.99,1.15,3.77,1.65c1.77,.5,3.16,1.05,4.16,1.65,1,.6,1.74,1.3,2.23,2.1,.48,.8,.72,1.74,.72,2.83,0,1.73-.67,3.11-2.02,4.15-1.35,1.04-3.15,1.56-5.41,1.56-1.46,0-2.83-.28-4.1-.84-1.27-.56-2.25-1.33-2.94-2.31-.69-.98-1.03-2.08-1.03-3.33h2.83c0,1.29,.48,2.31,1.43,3.05,.95,.75,2.22,1.12,3.82,1.12,1.48,0,2.62-.3,3.41-.91s1.19-1.43,1.19-2.48-.37-1.85-1.1-2.42c-.73-.57-2.06-1.14-3.98-1.69Z"/><path class="cls-19" d="M330.55,613.84h10.11v2.3h-12.93v-21.33h2.83v19.03Z"/><path class="cls-19" d="M342.72,608.07c0-1.55,.3-2.95,.92-4.19s1.46-2.2,2.55-2.87,2.33-1.01,3.73-1.01c2.16,0,3.9,.75,5.24,2.24,1.33,1.49,2,3.48,2,5.96v.19c0,1.54-.3,2.93-.89,4.15s-1.44,2.18-2.53,2.86c-1.1,.68-2.36,1.03-3.79,1.03-2.15,0-3.89-.75-5.22-2.24-1.33-1.49-2-3.47-2-5.93v-.19Zm2.72,.32c0,1.76,.41,3.17,1.22,4.23,.81,1.06,1.91,1.6,3.27,1.6s2.47-.54,3.28-1.62,1.22-2.59,1.22-4.53c0-1.74-.41-3.15-1.24-4.23-.83-1.08-1.92-1.62-3.29-1.62s-2.42,.53-3.24,1.6-1.23,2.59-1.23,4.57Z"/><path class="cls-19" d="M370.33,616.14c-.16-.31-.28-.87-.38-1.67-1.26,1.31-2.76,1.96-4.51,1.96-1.56,0-2.84-.44-3.85-1.33-1-.88-1.5-2-1.5-3.36,0-1.65,.63-2.93,1.88-3.85,1.25-.91,3.02-1.37,5.3-1.37h2.64v-1.25c0-.95-.28-1.7-.85-2.26s-1.4-.84-2.5-.84c-.97,0-1.78,.24-2.43,.73s-.98,1.08-.98,1.77h-2.72c0-.79,.28-1.55,.84-2.29,.56-.74,1.32-1.32,2.29-1.75,.96-.43,2.02-.64,3.17-.64,1.83,0,3.26,.46,4.29,1.37,1.04,.91,1.57,2.17,1.61,3.77v7.29c0,1.46,.19,2.61,.56,3.47v.23h-2.84Zm-4.5-2.07c.85,0,1.66-.22,2.42-.66s1.31-1.01,1.66-1.71v-3.25h-2.12c-3.32,0-4.98,.97-4.98,2.92,0,.85,.28,1.51,.85,1.99s1.29,.72,2.18,.72Z"/><path class="cls-19" d="M376.21,608.08c0-2.43,.58-4.39,1.73-5.87,1.15-1.48,2.66-2.22,4.53-2.22s3.33,.63,4.41,1.9v-8.26h2.71v22.5h-2.49l-.13-1.7c-1.08,1.33-2.59,1.99-4.53,1.99s-3.33-.75-4.49-2.26c-1.16-1.5-1.74-3.47-1.74-5.89v-.21Zm2.71,.31c0,1.8,.37,3.2,1.11,4.22s1.77,1.52,3.08,1.52c1.72,0,2.97-.77,3.76-2.31v-7.28c-.81-1.49-2.06-2.24-3.74-2.24-1.33,0-2.36,.51-3.11,1.54s-1.11,2.54-1.11,4.56Z"/><path class="cls-19" d="M401.64,616.14v-21.33h6.97c2.31,0,4.05,.48,5.22,1.44s1.75,2.37,1.75,4.25c0,1-.28,1.88-.85,2.64s-1.34,1.36-2.31,1.78c1.15,.32,2.06,.94,2.73,1.84,.67,.9,1,1.98,1,3.23,0,1.91-.62,3.42-1.86,4.51s-2.99,1.64-5.26,1.64h-7.4Zm2.81-12.23h4.25c1.23,0,2.21-.31,2.95-.92,.74-.62,1.11-1.45,1.11-2.51,0-1.17-.34-2.03-1.03-2.56s-1.72-.8-3.12-.8h-4.16v6.8Zm0,2.26v7.68h4.64c1.31,0,2.34-.34,3.1-1.02,.76-.68,1.14-1.61,1.14-2.8,0-2.57-1.4-3.85-4.19-3.85h-4.69Z"/><path class="cls-19" d="M429.67,616.14c-.16-.31-.28-.87-.38-1.67-1.26,1.31-2.76,1.96-4.51,1.96-1.56,0-2.84-.44-3.85-1.33-1-.88-1.5-2-1.5-3.36,0-1.65,.63-2.93,1.88-3.85,1.25-.91,3.02-1.37,5.3-1.37h2.64v-1.25c0-.95-.28-1.7-.85-2.26s-1.4-.84-2.5-.84c-.97,0-1.78,.24-2.43,.73s-.98,1.08-.98,1.77h-2.72c0-.79,.28-1.55,.84-2.29,.56-.74,1.32-1.32,2.29-1.75,.96-.43,2.02-.64,3.17-.64,1.83,0,3.26,.46,4.29,1.37,1.04,.91,1.57,2.17,1.61,3.77v7.29c0,1.46,.19,2.61,.56,3.47v.23h-2.84Zm-4.5-2.07c.85,0,1.66-.22,2.42-.66s1.31-1.01,1.66-1.71v-3.25h-2.12c-3.32,0-4.98,.97-4.98,2.92,0,.85,.28,1.51,.85,1.99s1.29,.72,2.18,.72Z"/><path class="cls-19" d="M439.15,616.14h-2.71v-22.5h2.71v22.5Z"/><path class="cls-19" d="M453.27,616.14c-.16-.31-.28-.87-.38-1.67-1.26,1.31-2.76,1.96-4.51,1.96-1.56,0-2.84-.44-3.85-1.33-1-.88-1.5-2-1.5-3.36,0-1.65,.63-2.93,1.88-3.85,1.25-.91,3.02-1.37,5.3-1.37h2.64v-1.25c0-.95-.28-1.7-.85-2.26s-1.4-.84-2.5-.84c-.97,0-1.78,.24-2.43,.73s-.98,1.08-.98,1.77h-2.72c0-.79,.28-1.55,.84-2.29,.56-.74,1.32-1.32,2.29-1.75,.96-.43,2.02-.64,3.17-.64,1.83,0,3.26,.46,4.29,1.37,1.04,.91,1.57,2.17,1.61,3.77v7.29c0,1.46,.19,2.61,.56,3.47v.23h-2.84Zm-4.5-2.07c.85,0,1.66-.22,2.42-.66s1.31-1.01,1.66-1.71v-3.25h-2.12c-3.32,0-4.98,.97-4.98,2.92,0,.85,.28,1.51,.85,1.99s1.29,.72,2.18,.72Z"/><path class="cls-19" d="M462.37,600.29l.09,1.99c1.21-1.52,2.79-2.29,4.75-2.29,3.35,0,5.04,1.89,5.07,5.67v10.47h-2.71v-10.49c0-1.14-.27-1.99-.78-2.53-.51-.55-1.31-.82-2.4-.82-.88,0-1.65,.23-2.31,.7s-1.18,1.08-1.55,1.85v11.29h-2.71v-15.85h2.56Z"/><path class="cls-19" d="M482.71,614.22c.97,0,1.81-.29,2.53-.88s1.12-1.32,1.2-2.2h2.56c-.05,.91-.36,1.77-.94,2.59s-1.35,1.47-2.31,1.96c-.96,.49-1.98,.73-3.05,.73-2.16,0-3.88-.72-5.15-2.16-1.28-1.44-1.91-3.41-1.91-5.91v-.45c0-1.54,.28-2.92,.85-4.12s1.38-2.13,2.44-2.8c1.06-.66,2.31-1,3.76-1,1.78,0,3.25,.53,4.43,1.6s1.8,2.45,1.88,4.15h-2.56c-.08-1.03-.47-1.87-1.17-2.53-.7-.66-1.56-.99-2.58-.99-1.38,0-2.44,.5-3.2,1.49-.76,.99-1.14,2.42-1.14,4.3v.51c0,1.83,.38,3.23,1.13,4.22s1.83,1.48,3.22,1.48Z"/><path class="cls-19" d="M498.64,616.43c-2.15,0-3.9-.71-5.24-2.12-1.35-1.41-2.02-3.3-2.02-5.66v-.5c0-1.57,.3-2.98,.9-4.21,.6-1.23,1.44-2.2,2.52-2.9,1.08-.7,2.25-1.05,3.51-1.05,2.06,0,3.66,.68,4.8,2.04s1.71,3.3,1.71,5.83v1.13h-10.74c.04,1.56,.5,2.83,1.37,3.79s1.99,1.44,3.33,1.44c.96,0,1.77-.2,2.43-.59s1.25-.91,1.74-1.55l1.66,1.29c-1.33,2.04-3.32,3.06-5.98,3.06Zm-.34-14.21c-1.09,0-2.01,.4-2.75,1.19-.74,.8-1.2,1.91-1.38,3.35h7.94v-.21c-.08-1.38-.45-2.44-1.11-3.2-.66-.76-1.56-1.13-2.7-1.13Z"/><path class="cls-19" d="M515.62,602.72c-.41-.07-.85-.1-1.33-.1-1.78,0-2.98,.76-3.62,2.27v11.25h-2.71v-15.85h2.64l.04,1.83c.89-1.42,2.15-2.12,3.78-2.12,.53,0,.93,.07,1.2,.21v2.52Z"/></g><g><line class="cls-4" x1="197.2" y1="569.81" x2="566.2" y2="569.81"/><path class="cls-19" d="M556.2,560.27v19.08c0,.9,1.01,1.42,1.75,.9l13.44-9.54c.62-.44,.62-1.36,0-1.8l-13.44-9.54c-.73-.52-1.75,0-1.75,.9Z"/></g><g><path class="cls-3" d="M616,537h-21.68c-1.83,0-3.32,1.49-3.32,3.32v26.36c0,1.83-1.49,3.32-3.32,3.32h-5.68"/><path class="cls-3" d="M615.96,603.12h-21.68c-1.83,0-3.32-1.49-3.32-3.32v-26.36c0-1.83-1.49-3.32-3.32-3.32h25.86"/></g><polyline class="cls-4" points="860 569.69 698 569.69 619 569.69"/><path class="cls-19" d="M858,560.15v19.08c0,.9,1.01,1.42,1.75,.9l13.44-9.54c.62-.44,.62-1.36,0-1.8l-13.44-9.54c-.73-.52-1.75,0-1.75,.9Z"/><g><g><line class="cls-4" x1="1091.6" y1="576.53" x2="1460.6" y2="576.53"/><path class="cls-19" d="M1450.6,566.99v19.08c0,.9,1.01,1.42,1.75,.9l13.44-9.54c.62-.44,.62-1.36,0-1.8l-13.44-9.54c-.73-.52-1.75,0-1.75,.9Z"/></g><g><polygon class="cls-13" points="1580.19 551.34 1549.56 551.34 1534.25 577.86 1549.56 604.39 1580.19 604.39 1595.5 577.86 1580.19 551.34"/><polygon class="cls-6" points="1580.19 551.34 1549.56 551.34 1534.25 577.86 1549.56 604.39 1580.19 604.39 1595.5 577.86 1580.19 551.34"/><g><circle class="cls-10" cx="1564.87" cy="506.6" r="12.88"/><line class="cls-6" x1="1564.87" y1="519.48" x2="1564.87" y2="541.24"/></g><g><circle class="cls-10" cx="1564.87" cy="649.12" r="12.88"/><line class="cls-6" x1="1564.87" y1="636.24" x2="1564.87" y2="614.48"/></g><g><g><circle class="cls-10" cx="1501.61" cy="546.4" r="12.88"/><line class="cls-6" x1="1513.05" y1="552.33" x2="1532.36" y2="562.35"/></g><g><circle class="cls-10" cx="1628.13" cy="612.01" r="12.88"/><line class="cls-6" x1="1616.7" y1="606.08" x2="1597.38" y2="596.06"/></g></g><g><g><circle class="cls-10" cx="1500.93" cy="610.66" r="12.88"/><line class="cls-6" x1="1512.49" y1="604.98" x2="1532.01" y2="595.37"/></g><g><circle class="cls-10" cx="1628.82" cy="547.75" r="12.88"/><line class="cls-6" x1="1617.26" y1="553.44" x2="1597.73" y2="563.04"/></g></g></g><g><rect class="cls-14" x="1093" y="475.63" width="40" height="212" rx="7.66" ry="7.66"/><g><path class="cls-19" d="M1114.67,664.3h6.96v2.34h-17.77v-6.56c0-1.95,.5-3.47,1.49-4.57,.99-1.1,2.31-1.65,3.94-1.65,1.73,0,3.05,.54,3.99,1.62,.93,1.08,1.4,2.62,1.4,4.63v4.19Zm-1.92,0v-4.21c0-1.25-.3-2.21-.89-2.88s-1.44-1-2.56-1-1.91,.33-2.54,1c-.64,.67-.97,1.58-.99,2.75v4.35h6.98Z"/><path class="cls-19" d="M1110.02,648.97c-1.23-1-1.84-2.3-1.84-3.91,0-2.79,1.57-4.2,4.72-4.22h8.73v2.26h-8.74c-.95,0-1.66,.23-2.11,.65-.46,.43-.68,1.09-.68,2,0,.73,.2,1.38,.59,1.93,.39,.55,.9,.99,1.54,1.29h9.41v2.26h-18.75v-2.26h7.14Z"/><path class="cls-19" d="M1121.63,629.3c-.26,.13-.72,.24-1.39,.32,1.09,1.05,1.63,2.3,1.63,3.76,0,1.3-.37,2.37-1.1,3.2-.74,.83-1.67,1.25-2.8,1.25-1.38,0-2.44-.52-3.2-1.57-.76-1.04-1.14-2.52-1.14-4.41v-2.2h-1.04c-.79,0-1.42,.24-1.89,.71-.47,.47-.7,1.17-.7,2.09,0,.81,.2,1.48,.61,2.03s.9,.82,1.48,.82v2.27c-.66,0-1.3-.23-1.91-.7-.62-.47-1.1-1.1-1.46-1.9-.36-.8-.54-1.68-.54-2.64,0-1.52,.38-2.71,1.14-3.58,.76-.86,1.81-1.31,3.14-1.34h6.08c1.21,0,2.18-.15,2.89-.46h.2v2.37Zm-1.72,3.75c0-.71-.18-1.38-.55-2.01-.37-.63-.84-1.09-1.43-1.38h-2.71v1.77c0,2.77,.81,4.15,2.43,4.15,.71,0,1.26-.24,1.66-.71s.6-1.08,.6-1.82Z"/><path class="cls-19" d="M1108.42,621.72l1.66-.07c-1.27-1.01-1.9-2.33-1.9-3.96,0-2.79,1.57-4.2,4.72-4.22h8.73v2.26h-8.74c-.95,0-1.66,.23-2.11,.65-.46,.43-.68,1.09-.68,2,0,.73,.2,1.38,.59,1.93,.39,.55,.9,.99,1.54,1.29h9.41v2.26h-13.21v-2.14Z"/><path class="cls-19" d="M1105.22,607h3.2v-2.46h1.75v2.46h8.2c.53,0,.93-.11,1.19-.33,.26-.22,.4-.59,.4-1.12,0-.26-.05-.62-.15-1.07h1.82c.16,.59,.24,1.17,.24,1.73,0,1.01-.3,1.77-.92,2.28-.61,.51-1.48,.77-2.6,.77h-8.19v2.41h-1.75v-2.41h-3.2v-2.26Z"/><path class="cls-19" d="M1114.9,602.74c-1.29,0-2.46-.25-3.49-.76-1.03-.51-1.83-1.22-2.39-2.12-.56-.91-.84-1.94-.84-3.11,0-1.8,.62-3.25,1.87-4.36,1.25-1.11,2.9-1.67,4.97-1.67h.16c1.29,0,2.44,.25,3.46,.74,1.02,.49,1.82,1.2,2.39,2.11,.57,.92,.85,1.97,.85,3.16,0,1.79-.62,3.24-1.87,4.35-1.25,1.11-2.89,1.67-4.94,1.67h-.16Zm.27-2.27c1.46,0,2.64-.34,3.53-1.02,.89-.68,1.33-1.59,1.33-2.73s-.45-2.06-1.35-2.73c-.9-.68-2.16-1.01-3.78-1.01-1.45,0-2.62,.34-3.52,1.03-.9,.69-1.35,1.6-1.35,2.74s.44,2.01,1.33,2.7,2.16,1.03,3.81,1.03Z"/><path class="cls-19" d="M1108.42,585.76l1.46-.06c-1.14-.97-1.71-2.27-1.71-3.92,0-1.85,.71-3.1,2.12-3.77-.63-.44-1.15-1.01-1.54-1.72-.39-.7-.59-1.54-.59-2.5,0-2.9,1.53-4.37,4.6-4.42h8.85v2.26h-8.71c-.94,0-1.65,.22-2.12,.65-.47,.43-.7,1.16-.7,2.17,0,.84,.25,1.53,.75,2.09,.5,.55,1.17,.87,2.02,.96h8.76v2.27h-8.65c-1.92,0-2.88,.94-2.88,2.82,0,1.48,.63,2.49,1.89,3.04h9.64v2.26h-13.21v-2.14Z"/><path class="cls-19" d="M1105.77,547.64v5.71h15.86v2.33h-15.86v5.7h-1.92v-13.75h1.92Z"/><path class="cls-19" d="M1114.9,547.16c-1.29,0-2.46-.25-3.49-.76-1.03-.51-1.83-1.22-2.39-2.12-.56-.91-.84-1.94-.84-3.11,0-1.8,.62-3.25,1.87-4.36,1.25-1.11,2.9-1.67,4.97-1.67h.16c1.29,0,2.44,.25,3.46,.74,1.02,.49,1.82,1.2,2.39,2.11,.57,.92,.85,1.97,.85,3.16,0,1.79-.62,3.24-1.87,4.35-1.25,1.11-2.89,1.67-4.94,1.67h-.16Zm.27-2.27c1.46,0,2.64-.34,3.53-1.02,.89-.68,1.33-1.59,1.33-2.73s-.45-2.06-1.35-2.73c-.9-.68-2.16-1.01-3.78-1.01-1.45,0-2.62,.34-3.52,1.03-.9,.69-1.35,1.6-1.35,2.74s.44,2.01,1.33,2.7,2.16,1.03,3.81,1.03Z"/><path class="cls-19" d="M1115.51,528.62l1.48,1.42h4.64v2.26h-18.75v-2.26h11.34l-1.45-1.21-4.35-4.11v-2.75l5.52,5.14,7.69-5.74v2.65l-6.12,4.6Z"/><path class="cls-19" d="M1121.87,514.4c0,1.79-.59,3.25-1.76,4.37s-2.75,1.69-4.72,1.69h-.42c-1.31,0-2.48-.25-3.51-.75-1.03-.5-1.83-1.2-2.42-2.1-.58-.9-.87-1.87-.87-2.92,0-1.72,.57-3.05,1.7-4,1.13-.95,2.75-1.43,4.86-1.43h.94v8.95c1.3-.03,2.35-.41,3.16-1.14,.8-.73,1.2-1.65,1.2-2.78,0-.8-.16-1.47-.49-2.03-.33-.55-.76-1.04-1.29-1.45l1.07-1.38c1.7,1.11,2.55,2.77,2.55,4.98Zm-11.84,.28c0,.91,.33,1.68,.99,2.29,.66,.62,1.59,1,2.79,1.15v-6.62h-.17c-1.15,.07-2.04,.37-2.67,.93s-.95,1.3-.95,2.25Z"/><path class="cls-19" d="M1108.42,504.5l1.66-.07c-1.27-1.01-1.9-2.33-1.9-3.96,0-2.79,1.57-4.2,4.72-4.22h8.73v2.26h-8.74c-.95,0-1.66,.23-2.11,.65-.46,.43-.68,1.09-.68,2,0,.73,.2,1.38,.59,1.93,.39,.55,.9,.99,1.54,1.29h9.41v2.26h-13.21v-2.14Z"/></g></g><g id="Graphic_56"><path class="cls-17" d="M1303.69,648.15h18.46v-12.13c-6.7-1.41-10.98-7.99-9.57-14.69,1.01-4.8,4.77-8.56,9.57-9.57v-12.13h-90.3c-2.78-.11-5.13,2.06-5.24,4.84h0v38.82c.11,2.78,2.45,4.96,5.23,4.85h80.41"/><path class="cls-8" d="M1303.69,648.15h18.46v-12.13c-6.7-1.41-10.98-7.99-9.57-14.69,1.01-4.8,4.77-8.56,9.57-9.57v-12.13h-90.3c-2.78-.11-5.13,2.06-5.24,4.84h0v38.82c.11,2.78,2.45,4.96,5.23,4.85h80.41"/><g><path class="cls-21" d="M1252.59,614.2h2.43v12.47c.08,1.48-.47,2.92-1.5,3.98-1.12,.98-2.57,1.48-4.05,1.41-1.49,.1-2.96-.38-4.1-1.33-1.01-.98-1.54-2.35-1.46-3.76h2.3c-.07,.89,.24,1.77,.85,2.43,.65,.61,1.53,.92,2.43,.85,.9,.06,1.78-.27,2.43-.9,.59-.67,.91-1.53,.9-2.43l-.22-12.71Z"/><path class="cls-21" d="M1262.68,626.25l.34,2.43,.51-2.09,3.47-12.3h1.96l3.4,12.3,.49,2.13,.39-2.43,2.74-12.13h2.43l-4.27,17.56h-2.13l-3.61-12.83-.29-1.36-.27,1.36-3.86,12.83h-2.13l-4.24-17.61h2.3l2.79,12.13Z"/><path class="cls-21" d="M1293.22,616.09h-5.65v15.64h-2.43v-15.72h-5.68v-1.89h13.63l.12,1.96Z"/></g></g></g><g><path class="cls-19" d="M1119.54,203.37h-2.17v-7.56h-8.24v7.56h-2.16v-16.35h2.16v7.03h8.24v-7.03h2.17v16.35Z"/><path class="cls-19" d="M1122.49,197.18c0-1.19,.23-2.26,.7-3.21s1.12-1.68,1.95-2.2,1.79-.78,2.86-.78c1.65,0,2.99,.57,4.01,1.72,1.02,1.15,1.53,2.67,1.53,4.57v.15c0,1.18-.23,2.24-.68,3.18s-1.1,1.67-1.94,2.2c-.84,.52-1.81,.79-2.9,.79-1.65,0-2.98-.57-4-1.72-1.02-1.15-1.53-2.66-1.53-4.55v-.15Zm2.09,.25c0,1.35,.31,2.43,.94,3.25,.62,.82,1.46,1.22,2.51,1.22s1.89-.41,2.52-1.24c.62-.83,.93-1.99,.93-3.48,0-1.33-.32-2.41-.95-3.24-.63-.83-1.47-1.24-2.52-1.24s-1.85,.41-2.48,1.22-.94,1.98-.94,3.5Z"/><path class="cls-19" d="M1143.24,200.15c0-.56-.21-1-.63-1.31-.42-.31-1.16-.58-2.21-.8s-1.89-.49-2.5-.81c-.62-.31-1.07-.69-1.37-1.12s-.44-.95-.44-1.55c0-1,.42-1.84,1.26-2.53,.84-.69,1.92-1.03,3.23-1.03,1.38,0,2.5,.36,3.35,1.07s1.29,1.62,1.29,2.73h-2.09c0-.57-.24-1.06-.72-1.47-.48-.41-1.09-.62-1.83-.62s-1.35,.17-1.77,.49c-.43,.33-.64,.76-.64,1.29,0,.5,.2,.88,.59,1.13,.4,.25,1.11,.5,2.15,.73s1.88,.51,2.52,.83,1.12,.71,1.43,1.16c.31,.45,.47,1,.47,1.66,0,1.08-.43,1.96-1.3,2.61-.87,.65-2,.98-3.38,.98-.97,0-1.83-.17-2.58-.52-.75-.34-1.33-.82-1.76-1.44-.42-.62-.63-1.29-.63-2h2.08c.04,.7,.32,1.25,.84,1.66s1.21,.61,2.06,.61c.79,0,1.42-.16,1.89-.48s.71-.74,.71-1.27Z"/><path class="cls-19" d="M1150.84,188.28v2.94h2.27v1.61h-2.27v7.54c0,.49,.1,.85,.3,1.1s.55,.37,1.03,.37c.24,0,.57-.04,.99-.13v1.67c-.55,.15-1.08,.22-1.59,.22-.93,0-1.63-.28-2.1-.84-.47-.56-.71-1.36-.71-2.39v-7.54h-2.21v-1.61h2.21v-2.94h2.08Z"/><path class="cls-19" d="M1155.47,202.28c0-.36,.11-.66,.32-.9,.21-.24,.53-.36,.96-.36s.75,.12,.97,.36,.33,.54,.33,.9-.11,.63-.33,.87c-.22,.23-.54,.35-.97,.35s-.75-.12-.96-.35c-.21-.23-.32-.52-.32-.87Zm.01-9.92c0-.36,.11-.66,.32-.9,.21-.24,.53-.36,.96-.36s.75,.12,.97,.36c.22,.24,.33,.54,.33,.9s-.11,.63-.33,.86-.54,.35-.97,.35-.75-.12-.96-.35c-.21-.23-.32-.52-.32-.86Z"/><path class="cls-19" d="M1174.3,203.37c-.12-.24-.22-.67-.29-1.28-.97,1-2.12,1.51-3.46,1.51-1.2,0-2.18-.34-2.95-1.02-.77-.68-1.15-1.54-1.15-2.58,0-1.27,.48-2.25,1.44-2.95,.96-.7,2.32-1.05,4.06-1.05h2.02v-.96c0-.73-.22-1.3-.65-1.73-.43-.43-1.08-.65-1.92-.65-.74,0-1.36,.19-1.86,.56s-.75,.83-.75,1.36h-2.09c0-.61,.22-1.19,.65-1.76,.43-.56,1.01-1.01,1.75-1.34,.74-.33,1.55-.49,2.43-.49,1.4,0,2.5,.35,3.29,1.05,.79,.7,1.21,1.66,1.24,2.89v5.59c0,1.12,.14,2,.43,2.66v.18h-2.18Zm-3.45-1.58c.65,0,1.27-.17,1.85-.51,.58-.34,1.01-.77,1.27-1.31v-2.49h-1.63c-2.55,0-3.82,.75-3.82,2.23,0,.65,.22,1.16,.65,1.53,.43,.37,.99,.55,1.67,.55Z"/><path class="cls-19" d="M1178.8,197.19c0-1.86,.44-3.36,1.33-4.5,.88-1.13,2.04-1.7,3.47-1.7s2.55,.49,3.38,1.46v-6.33h2.08v17.25h-1.91l-.1-1.3c-.83,1.02-1.99,1.53-3.47,1.53s-2.55-.58-3.44-1.73c-.89-1.15-1.33-2.66-1.33-4.51v-.16Zm2.08,.24c0,1.38,.28,2.46,.85,3.23s1.36,1.17,2.36,1.17c1.32,0,2.28-.59,2.89-1.77v-5.58c-.62-1.15-1.58-1.72-2.86-1.72-1.02,0-1.81,.39-2.38,1.18-.57,.79-.85,1.95-.85,3.49Z"/><path class="cls-19" d="M1194.23,191.22l.06,1.35c.89-1.05,2.09-1.57,3.61-1.57,1.7,0,2.86,.65,3.47,1.96,.4-.58,.93-1.06,1.58-1.42s1.41-.54,2.3-.54c2.67,0,4.02,1.41,4.07,4.23v8.14h-2.08v-8.02c0-.87-.2-1.52-.59-1.95-.4-.43-1.06-.65-2-.65-.77,0-1.41,.23-1.92,.69-.51,.46-.81,1.08-.89,1.86v8.06h-2.09v-7.96c0-1.77-.87-2.65-2.59-2.65-1.36,0-2.29,.58-2.8,1.74v8.87h-2.08v-12.15h1.97Z"/><path class="cls-19" d="M1212.45,188c0-.34,.1-.62,.31-.85s.51-.35,.92-.35,.71,.12,.92,.35,.31,.52,.31,.85-.1,.62-.31,.84-.52,.34-.92,.34-.71-.11-.92-.34-.31-.5-.31-.84Zm2.25,15.38h-2.08v-12.15h2.08v12.15Z"/><path class="cls-19" d="M1219.98,191.22l.07,1.53c.93-1.17,2.14-1.75,3.64-1.75,2.57,0,3.86,1.45,3.88,4.35v8.03h-2.08v-8.04c0-.88-.21-1.52-.6-1.94-.39-.42-1.01-.63-1.84-.63-.67,0-1.27,.18-1.78,.54-.51,.36-.91,.83-1.19,1.42v8.66h-2.08v-12.15h1.96Z"/><path class="cls-19" d="M1230.76,202.28c0-.36,.11-.66,.32-.9,.21-.24,.53-.36,.96-.36s.75,.12,.97,.36,.33,.54,.33,.9-.11,.63-.33,.87c-.22,.23-.54,.35-.97,.35s-.75-.12-.96-.35c-.21-.23-.32-.52-.32-.87Z"/><path class="cls-19" d="M1241.81,203.6c-1.65,0-2.99-.54-4.02-1.62s-1.55-2.53-1.55-4.34v-.38c0-1.21,.23-2.28,.69-3.23,.46-.95,1.1-1.69,1.93-2.22,.83-.54,1.72-.8,2.69-.8,1.58,0,2.81,.52,3.68,1.56s1.31,2.53,1.31,4.47v.87h-8.23c.03,1.2,.38,2.17,1.05,2.9,.67,.74,1.52,1.11,2.55,1.11,.73,0,1.36-.15,1.87-.45,.51-.3,.95-.7,1.34-1.19l1.27,.99c-1.02,1.56-2.55,2.35-4.58,2.35Zm-.26-10.89c-.84,0-1.54,.31-2.11,.92-.57,.61-.92,1.46-1.06,2.57h6.09v-.16c-.06-1.05-.34-1.87-.85-2.45s-1.2-.87-2.07-.87Z"/><path class="cls-19" d="M1253.03,195.66l2.7-4.44h2.43l-3.97,6.01,4.1,6.14h-2.4l-2.81-4.55-2.81,4.55h-2.41l4.1-6.14-3.98-6.01h2.4l2.66,4.44Z"/><path class="cls-19" d="M1267.85,203.37c-.12-.24-.22-.67-.29-1.28-.97,1-2.12,1.51-3.46,1.51-1.2,0-2.18-.34-2.95-1.02-.77-.68-1.15-1.54-1.15-2.58,0-1.27,.48-2.25,1.44-2.95,.96-.7,2.32-1.05,4.06-1.05h2.02v-.96c0-.73-.22-1.3-.65-1.73-.43-.43-1.08-.65-1.92-.65-.74,0-1.36,.19-1.86,.56s-.75,.83-.75,1.36h-2.09c0-.61,.22-1.19,.65-1.76,.43-.56,1.01-1.01,1.75-1.34,.74-.33,1.55-.49,2.43-.49,1.4,0,2.5,.35,3.29,1.05,.79,.7,1.21,1.66,1.24,2.89v5.59c0,1.12,.14,2,.43,2.66v.18h-2.18Zm-3.45-1.58c.65,0,1.27-.17,1.85-.51,.58-.34,1.01-.77,1.27-1.31v-2.49h-1.63c-2.55,0-3.82,.75-3.82,2.23,0,.65,.22,1.16,.65,1.53,.43,.37,.99,.55,1.67,.55Z"/><path class="cls-19" d="M1274.81,191.22l.06,1.35c.89-1.05,2.09-1.57,3.61-1.57,1.7,0,2.86,.65,3.47,1.96,.4-.58,.93-1.06,1.58-1.42s1.41-.54,2.3-.54c2.67,0,4.02,1.41,4.07,4.23v8.14h-2.08v-8.02c0-.87-.2-1.52-.59-1.95-.4-.43-1.06-.65-2-.65-.77,0-1.41,.23-1.92,.69-.51,.46-.81,1.08-.89,1.86v8.06h-2.09v-7.96c0-1.77-.87-2.65-2.59-2.65-1.36,0-2.29,.58-2.8,1.74v8.87h-2.08v-12.15h1.97Z"/><path class="cls-19" d="M1303.28,197.43c0,1.85-.42,3.34-1.27,4.47-.85,1.13-1.99,1.7-3.44,1.7s-2.63-.47-3.48-1.4v5.85h-2.08v-16.82h1.9l.1,1.35c.85-1.05,2.02-1.57,3.53-1.57s2.62,.55,3.46,1.65,1.27,2.63,1.27,4.59v.19Zm-2.08-.24c0-1.37-.29-2.45-.88-3.25s-1.38-1.19-2.4-1.19c-1.26,0-2.2,.56-2.83,1.67v5.81c.62,1.11,1.57,1.66,2.85,1.66,1,0,1.79-.4,2.38-1.18,.59-.79,.88-1.96,.88-3.52Z"/><path class="cls-19" d="M1308.18,203.37h-2.08v-17.25h2.08v17.25Z"/><path class="cls-19" d="M1316.54,203.6c-1.65,0-2.99-.54-4.02-1.62s-1.55-2.53-1.55-4.34v-.38c0-1.21,.23-2.28,.69-3.23,.46-.95,1.1-1.69,1.93-2.22,.83-.54,1.72-.8,2.69-.8,1.58,0,2.81,.52,3.68,1.56s1.31,2.53,1.31,4.47v.87h-8.23c.03,1.2,.38,2.17,1.05,2.9,.67,.74,1.52,1.11,2.55,1.11,.73,0,1.36-.15,1.87-.45,.51-.3,.95-.7,1.34-1.19l1.27,.99c-1.02,1.56-2.55,2.35-4.58,2.35Zm-.26-10.89c-.84,0-1.54,.31-2.11,.92-.57,.61-.92,1.46-1.06,2.57h6.09v-.16c-.06-1.05-.34-1.87-.85-2.45s-1.2-.87-2.07-.87Z"/><path class="cls-19" d="M1323.73,202.28c0-.36,.11-.66,.32-.9,.21-.24,.53-.36,.96-.36s.75,.12,.97,.36,.33,.54,.33,.9-.11,.63-.33,.87c-.22,.23-.54,.35-.97,.35s-.75-.12-.96-.35c-.21-.23-.32-.52-.32-.87Z"/><path class="cls-19" d="M1337.24,203.37c-.12-.24-.22-.67-.29-1.28-.97,1-2.12,1.51-3.46,1.51-1.2,0-2.18-.34-2.95-1.02-.77-.68-1.15-1.54-1.15-2.58,0-1.27,.48-2.25,1.44-2.95,.96-.7,2.32-1.05,4.06-1.05h2.02v-.96c0-.73-.22-1.3-.65-1.73-.43-.43-1.08-.65-1.92-.65-.74,0-1.36,.19-1.86,.56s-.75,.83-.75,1.36h-2.09c0-.61,.22-1.19,.65-1.76,.43-.56,1.01-1.01,1.75-1.34,.74-.33,1.55-.49,2.43-.49,1.4,0,2.5,.35,3.29,1.05,.79,.7,1.21,1.66,1.24,2.89v5.59c0,1.12,.14,2,.43,2.66v.18h-2.18Zm-3.45-1.58c.65,0,1.27-.17,1.85-.51,.58-.34,1.01-.77,1.27-1.31v-2.49h-1.63c-2.55,0-3.82,.75-3.82,2.23,0,.65,.22,1.16,.65,1.53,.43,.37,.99,.55,1.67,.55Z"/><path class="cls-19" d="M1345.64,197.74l-1.3,1.36v4.27h-2.08v-17.25h2.08v10.43l1.11-1.34,3.78-4h2.53l-4.73,5.08,5.28,7.08h-2.44l-4.23-5.63Z"/><path class="cls-19" d="M1360.98,200.15c0-.56-.21-1-.63-1.31-.42-.31-1.16-.58-2.21-.8s-1.89-.49-2.5-.81c-.62-.31-1.07-.69-1.37-1.12s-.44-.95-.44-1.55c0-1,.42-1.84,1.26-2.53,.84-.69,1.92-1.03,3.23-1.03,1.38,0,2.5,.36,3.35,1.07s1.29,1.62,1.29,2.73h-2.09c0-.57-.24-1.06-.72-1.47-.48-.41-1.09-.62-1.83-.62s-1.35,.17-1.77,.49c-.43,.33-.64,.76-.64,1.29,0,.5,.2,.88,.59,1.13,.4,.25,1.11,.5,2.15,.73s1.88,.51,2.52,.83,1.12,.71,1.43,1.16c.31,.45,.47,1,.47,1.66,0,1.08-.43,1.96-1.3,2.61-.87,.65-2,.98-3.38,.98-.97,0-1.83-.17-2.58-.52-.75-.34-1.33-.82-1.76-1.44-.42-.62-.63-1.29-.63-2h2.08c.04,.7,.32,1.25,.84,1.66s1.21,.61,2.06,.61c.79,0,1.42-.16,1.89-.48s.71-.74,.71-1.27Z"/></g><g><path class="cls-19" d="M1119.54,972.23h-2.17v-7.56h-8.24v7.56h-2.16v-16.35h2.16v7.03h8.24v-7.03h2.17v16.35Z"/><path class="cls-19" d="M1122.49,966.04c0-1.19,.23-2.26,.7-3.21,.47-.95,1.12-1.69,1.95-2.2,.83-.52,1.79-.78,2.86-.78,1.65,0,2.99,.57,4.01,1.72,1.02,1.14,1.53,2.67,1.53,4.57v.15c0,1.18-.23,2.24-.68,3.18s-1.1,1.67-1.94,2.2c-.84,.52-1.81,.79-2.9,.79-1.65,0-2.98-.57-4-1.72-1.02-1.15-1.53-2.66-1.53-4.55v-.15Zm2.09,.25c0,1.35,.31,2.43,.94,3.25s1.46,1.22,2.51,1.22,1.89-.41,2.52-1.24c.62-.83,.93-1.99,.93-3.48,0-1.33-.32-2.41-.95-3.24s-1.47-1.24-2.52-1.24-1.85,.41-2.48,1.22c-.63,.82-.94,1.98-.94,3.5Z"/><path class="cls-19" d="M1143.24,969c0-.56-.21-1-.63-1.31-.42-.31-1.16-.58-2.21-.8s-1.89-.49-2.5-.81c-.62-.31-1.07-.69-1.37-1.12-.3-.43-.44-.95-.44-1.55,0-1,.42-1.84,1.26-2.53,.84-.69,1.92-1.03,3.23-1.03,1.38,0,2.5,.36,3.35,1.07,.86,.71,1.29,1.62,1.29,2.73h-2.09c0-.57-.24-1.06-.72-1.47-.48-.41-1.09-.62-1.83-.62s-1.35,.16-1.77,.49-.64,.76-.64,1.29c0,.5,.2,.88,.59,1.13s1.11,.5,2.15,.73c1.04,.23,1.88,.51,2.52,.83,.64,.32,1.12,.71,1.43,1.16,.31,.45,.47,1,.47,1.66,0,1.08-.43,1.96-1.3,2.61-.87,.66-2,.98-3.38,.98-.97,0-1.83-.17-2.58-.52s-1.33-.83-1.76-1.44c-.42-.62-.63-1.29-.63-2h2.08c.04,.7,.32,1.25,.84,1.66s1.21,.61,2.06,.61c.79,0,1.42-.16,1.89-.48s.71-.74,.71-1.28Z"/><path class="cls-19" d="M1150.84,957.13v2.94h2.27v1.61h-2.27v7.54c0,.49,.1,.85,.3,1.1,.2,.24,.55,.37,1.03,.37,.24,0,.57-.04,.99-.13v1.67c-.55,.15-1.08,.22-1.59,.22-.93,0-1.63-.28-2.1-.84-.47-.56-.71-1.36-.71-2.39v-7.54h-2.21v-1.61h2.21v-2.94h2.08Z"/><path class="cls-19" d="M1155.47,971.14c0-.36,.11-.66,.32-.9,.21-.24,.53-.36,.96-.36s.75,.12,.97,.36c.22,.24,.33,.54,.33,.9s-.11,.63-.33,.86-.54,.35-.97,.35-.75-.12-.96-.35c-.21-.23-.32-.52-.32-.86Zm.01-9.92c0-.36,.11-.66,.32-.9,.21-.24,.53-.36,.96-.36s.75,.12,.97,.36,.33,.54,.33,.9-.11,.63-.33,.86c-.22,.23-.54,.35-.97,.35s-.75-.12-.96-.35c-.21-.23-.32-.52-.32-.86Z"/><path class="cls-19" d="M1169.06,972.23h-2.08v-17.25h2.08v17.25Z"/><path class="cls-19" d="M1171.83,966.04c0-1.19,.23-2.26,.7-3.21,.47-.95,1.12-1.69,1.95-2.2,.83-.52,1.79-.78,2.86-.78,1.65,0,2.99,.57,4.01,1.72,1.02,1.14,1.53,2.67,1.53,4.57v.15c0,1.18-.23,2.24-.68,3.18s-1.1,1.67-1.94,2.2c-.84,.52-1.81,.79-2.9,.79-1.65,0-2.98-.57-4-1.72-1.02-1.15-1.53-2.66-1.53-4.55v-.15Zm2.09,.25c0,1.35,.31,2.43,.94,3.25s1.46,1.22,2.51,1.22,1.89-.41,2.52-1.24c.62-.83,.93-1.99,.93-3.48,0-1.33-.32-2.41-.95-3.24s-1.47-1.24-2.52-1.24-1.85,.41-2.48,1.22c-.63,.82-.94,1.98-.94,3.5Z"/><path class="cls-19" d="M1185,966.05c0-1.89,.44-3.4,1.31-4.52,.88-1.12,2.04-1.68,3.48-1.68s2.64,.52,3.47,1.57l.1-1.35h1.9v11.86c0,1.57-.47,2.81-1.4,3.72-.93,.91-2.18,1.36-3.76,1.36-.88,0-1.73-.19-2.57-.56s-1.48-.89-1.92-1.54l1.08-1.25c.89,1.1,1.98,1.65,3.27,1.65,1.01,0,1.8-.29,2.36-.85,.57-.57,.85-1.37,.85-2.4v-1.04c-.83,.96-1.96,1.44-3.4,1.44s-2.57-.57-3.45-1.72c-.88-1.15-1.32-2.71-1.32-4.68Zm2.09,.24c0,1.37,.28,2.45,.84,3.23,.56,.78,1.35,1.17,2.36,1.17,1.31,0,2.27-.6,2.89-1.79v-5.55c-.64-1.16-1.59-1.74-2.86-1.74-1.01,0-1.8,.39-2.37,1.18s-.85,1.95-.85,3.49Z"/><path class="cls-19" d="M1198.41,956.85c0-.34,.1-.62,.31-.85,.21-.23,.51-.35,.92-.35s.71,.12,.92,.35c.21,.23,.31,.52,.31,.85s-.1,.62-.31,.84-.52,.34-.92,.34-.71-.11-.92-.34-.31-.51-.31-.84Zm2.25,15.37h-2.08v-12.15h2.08v12.15Z"/><path class="cls-19" d="M1205.95,960.08l.07,1.53c.93-1.17,2.14-1.75,3.64-1.75,2.57,0,3.86,1.45,3.88,4.35v8.03h-2.08v-8.04c0-.88-.21-1.52-.6-1.94-.39-.42-1.01-.63-1.84-.63-.67,0-1.27,.18-1.78,.54-.51,.36-.91,.83-1.19,1.41v8.66h-2.08v-12.15h1.96Z"/><path class="cls-19" d="M1216.72,971.14c0-.36,.11-.66,.32-.9,.21-.24,.53-.36,.96-.36s.75,.12,.97,.36c.22,.24,.33,.54,.33,.9s-.11,.63-.33,.86-.54,.35-.97,.35-.75-.12-.96-.35c-.21-.23-.32-.52-.32-.86Z"/><path class="cls-19" d="M1227.6,970.76c.74,0,1.39-.22,1.94-.67,.55-.45,.86-1.01,.92-1.68h1.96c-.04,.7-.28,1.36-.72,1.99s-1.03,1.13-1.77,1.5-1.52,.56-2.34,.56c-1.65,0-2.97-.55-3.95-1.66-.98-1.1-1.47-2.62-1.47-4.53v-.35c0-1.18,.22-2.23,.65-3.16,.43-.92,1.06-1.63,1.87-2.14s1.77-.76,2.88-.76c1.36,0,2.49,.41,3.4,1.22,.9,.82,1.38,1.88,1.44,3.18h-1.96c-.06-.79-.36-1.43-.89-1.94-.54-.5-1.2-.76-1.98-.76-1.06,0-1.87,.38-2.45,1.14-.58,.76-.87,1.86-.87,3.3v.39c0,1.4,.29,2.48,.86,3.23s1.4,1.13,2.47,1.13Z"/><path class="cls-19" d="M1242.27,971.03c-.81,.95-2,1.43-3.56,1.43-1.29,0-2.28-.38-2.96-1.13-.68-.75-1.02-1.87-1.03-3.34v-7.91h2.08v7.85c0,1.84,.75,2.76,2.25,2.76,1.59,0,2.64-.59,3.17-1.78v-8.84h2.08v12.15h-1.98l-.04-1.2Z"/><path class="cls-19" d="M1253.32,961.94c-.31-.05-.65-.08-1.02-.08-1.36,0-2.29,.58-2.77,1.74v8.62h-2.08v-12.15h2.02l.03,1.4c.68-1.09,1.65-1.63,2.9-1.63,.4,0,.71,.05,.92,.16v1.93Z"/><path class="cls-19" d="M1255.24,956.85c0-.34,.1-.62,.31-.85,.21-.23,.51-.35,.92-.35s.71,.12,.92,.35c.21,.23,.31,.52,.31,.85s-.1,.62-.31,.84-.52,.34-.92,.34-.71-.11-.92-.34-.31-.51-.31-.84Zm2.25,15.37h-2.08v-12.15h2.08v12.15Z"/><path class="cls-19" d="M1263.63,957.13v2.94h2.27v1.61h-2.27v7.54c0,.49,.1,.85,.3,1.1,.2,.24,.55,.37,1.03,.37,.24,0,.57-.04,.99-.13v1.67c-.55,.15-1.08,.22-1.59,.22-.93,0-1.63-.28-2.1-.84-.47-.56-.71-1.36-.71-2.39v-7.54h-2.21v-1.61h2.21v-2.94h2.08Z"/><path class="cls-19" d="M1272.3,969.18l2.83-9.11h2.22l-4.88,14.03c-.76,2.02-1.96,3.03-3.61,3.03l-.39-.03-.78-.15v-1.68l.56,.04c.7,0,1.25-.14,1.65-.43,.39-.28,.72-.8,.97-1.56l.46-1.24-4.33-12.02h2.27l3.03,9.11Z"/><path class="cls-19" d="M1278.05,971.14c0-.36,.11-.66,.32-.9,.21-.24,.53-.36,.96-.36s.75,.12,.97,.36c.22,.24,.33,.54,.33,.9s-.11,.63-.33,.86-.54,.35-.97,.35-.75-.12-.96-.35c-.21-.23-.32-.52-.32-.86Z"/><path class="cls-19" d="M1291.56,972.23c-.12-.24-.22-.67-.29-1.28-.97,1-2.12,1.5-3.46,1.5-1.2,0-2.18-.34-2.95-1.02s-1.15-1.54-1.15-2.58c0-1.26,.48-2.25,1.44-2.95,.96-.7,2.32-1.05,4.06-1.05h2.02v-.95c0-.73-.22-1.3-.65-1.74-.43-.43-1.08-.65-1.92-.65-.74,0-1.36,.19-1.86,.56-.5,.38-.75,.83-.75,1.36h-2.09c0-.61,.22-1.19,.65-1.76,.43-.56,1.01-1.01,1.75-1.34s1.55-.49,2.43-.49c1.4,0,2.5,.35,3.29,1.05s1.21,1.66,1.24,2.89v5.59c0,1.12,.14,2,.43,2.66v.18h-2.18Zm-3.45-1.58c.65,0,1.27-.17,1.85-.51s1.01-.78,1.27-1.31v-2.49h-1.63c-2.55,0-3.82,.74-3.82,2.23,0,.65,.22,1.16,.65,1.53s.99,.55,1.67,.55Z"/><path class="cls-19" d="M1299.96,966.6l-1.3,1.36v4.27h-2.08v-17.25h2.08v10.43l1.11-1.34,3.78-4h2.53l-4.73,5.08,5.28,7.08h-2.44l-4.23-5.63Z"/><path class="cls-19" d="M1315.3,969c0-.56-.21-1-.63-1.31-.42-.31-1.16-.58-2.21-.8s-1.89-.49-2.5-.81c-.62-.31-1.07-.69-1.37-1.12-.3-.43-.44-.95-.44-1.55,0-1,.42-1.84,1.26-2.53,.84-.69,1.92-1.03,3.23-1.03,1.38,0,2.5,.36,3.35,1.07,.86,.71,1.29,1.62,1.29,2.73h-2.09c0-.57-.24-1.06-.72-1.47-.48-.41-1.09-.62-1.83-.62s-1.35,.16-1.77,.49-.64,.76-.64,1.29c0,.5,.2,.88,.59,1.13s1.11,.5,2.15,.73c1.04,.23,1.88,.51,2.52,.83,.64,.32,1.12,.71,1.43,1.16,.31,.45,.47,1,.47,1.66,0,1.08-.43,1.96-1.3,2.61-.87,.66-2,.98-3.38,.98-.97,0-1.83-.17-2.58-.52s-1.33-.83-1.76-1.44c-.42-.62-.63-1.29-.63-2h2.08c.04,.7,.32,1.25,.84,1.66s1.21,.61,2.06,.61c.79,0,1.42-.16,1.89-.48s.71-.74,.71-1.28Z"/></g><g><path class="cls-12" d="M756.98,566.55l9.02-9-6.43-6.43c-4.37,2.77-10.16,1.48-12.94-2.89-1.95-3.07-1.95-6.99,0-10.06l-6.43-6.41-44.08,44.08c-1.42,1.42-1.42,3.72,0,5.14l20.55,20.55c1.42,1.4,3.7,1.4,5.12,0l39.25-39.25"/><circle class="cls-23" cx="735.38" cy="552.19" r="1.64"/><circle class="cls-23" cx="740.31" cy="557.12" r="1.64"/><circle class="cls-23" cx="745.24" cy="562.05" r="1.64"/></g><g><path class="cls-19" d="M691.45,639.32c0,1.74-.29,3.26-.88,4.56s-1.42,2.29-2.49,2.97-2.33,1.03-3.76,1.03-2.64-.34-3.72-1.03c-1.08-.69-1.92-1.67-2.52-2.94-.6-1.27-.91-2.75-.92-4.42v-1.28c0-1.71,.3-3.22,.89-4.53,.59-1.31,1.43-2.31,2.52-3.01,1.09-.7,2.33-1.04,3.73-1.04s2.68,.34,3.77,1.03c1.09,.69,1.92,1.68,2.51,2.99,.59,1.31,.88,2.83,.88,4.56v1.12Zm-2.33-1.15c0-2.11-.42-3.72-1.27-4.85-.85-1.13-2.03-1.69-3.55-1.69s-2.65,.56-3.5,1.69c-.85,1.13-1.29,2.69-1.31,4.69v1.31c0,2.04,.43,3.65,1.29,4.82,.86,1.17,2.04,1.75,3.55,1.75s2.69-.55,3.52-1.65c.83-1.1,1.26-2.68,1.28-4.74v-1.32Z"/><path class="cls-19" d="M705.77,641.18c0,2.01-.46,3.63-1.38,4.86-.92,1.23-2.16,1.84-3.73,1.84s-2.87-.51-3.79-1.53v6.36h-2.26v-18.29h2.06l.11,1.46c.92-1.14,2.2-1.71,3.83-1.71s2.84,.6,3.77,1.79,1.39,2.86,1.39,4.99v.21Zm-2.26-.26c0-1.49-.32-2.67-.95-3.53-.63-.86-1.51-1.29-2.61-1.29-1.37,0-2.39,.61-3.08,1.82v6.31c.68,1.21,1.71,1.81,3.1,1.81,1.08,0,1.94-.43,2.58-1.29,.64-.86,.96-2.13,.96-3.83Z"/><path class="cls-19" d="M716.79,647.63c-.13-.26-.24-.72-.32-1.39-1.05,1.09-2.3,1.64-3.76,1.64-1.3,0-2.37-.37-3.2-1.1-.83-.74-1.25-1.67-1.25-2.8,0-1.38,.52-2.44,1.57-3.2,1.04-.76,2.52-1.14,4.41-1.14h2.2v-1.04c0-.79-.24-1.42-.71-1.89-.47-.47-1.17-.7-2.09-.7-.81,0-1.48,.2-2.03,.61-.54,.41-.82,.9-.82,1.48h-2.27c0-.66,.23-1.3,.7-1.91,.47-.62,1.1-1.1,1.9-1.46s1.68-.54,2.64-.54c1.52,0,2.71,.38,3.58,1.14,.86,.76,1.31,1.81,1.34,3.14v6.08c0,1.21,.15,2.18,.46,2.89v.2h-2.37Zm-3.75-1.72c.71,0,1.38-.18,2.01-.55s1.09-.84,1.38-1.43v-2.71h-1.77c-2.77,0-4.15,.81-4.15,2.43,0,.71,.24,1.26,.71,1.66s1.08,.6,1.82,.6Z"/><path class="cls-19" d="M721.68,640.92c0-2.08,.48-3.72,1.43-4.93,.95-1.21,2.23-1.81,3.83-1.81s2.8,.52,3.7,1.57l.1-1.33h2.08v18.29h-2.26v-6.3c-.91,.98-2.12,1.46-3.64,1.46-1.59,0-2.87-.62-3.81-1.86-.95-1.24-1.42-2.89-1.42-4.94v-.16Zm2.26,.26c0,1.51,.32,2.7,.96,3.56,.64,.86,1.5,1.29,2.58,1.29,1.34,0,2.37-.59,3.08-1.78v-6.47c-.72-1.16-1.73-1.75-3.05-1.75-1.09,0-1.96,.43-2.6,1.3-.64,.87-.96,2.15-.96,3.84Z"/><path class="cls-19" d="M744.6,646.33c-.88,1.03-2.17,1.55-3.87,1.55-1.41,0-2.48-.41-3.22-1.23-.74-.82-1.11-2.03-1.12-3.63v-8.59h2.26v8.53c0,2,.81,3,2.44,3,1.73,0,2.87-.64,3.44-1.93v-9.61h2.26v13.21h-2.15l-.05-1.31Z"/><path class="cls-19" d="M755.7,647.88c-1.79,0-3.25-.59-4.37-1.76-1.12-1.18-1.69-2.75-1.69-4.72v-.42c0-1.31,.25-2.48,.75-3.51,.5-1.03,1.2-1.84,2.1-2.42,.9-.58,1.87-.87,2.92-.87,1.72,0,3.05,.57,4,1.7,.95,1.13,1.43,2.75,1.43,4.86v.94h-8.95c.03,1.3,.41,2.35,1.14,3.16,.73,.8,1.65,1.2,2.78,1.2,.8,0,1.47-.16,2.03-.49,.55-.33,1.04-.76,1.45-1.29l1.38,1.07c-1.11,1.7-2.77,2.55-4.98,2.55Zm-.28-11.84c-.91,0-1.68,.33-2.29,1-.62,.66-1,1.59-1.15,2.79h6.62v-.17c-.07-1.15-.37-2.04-.93-2.67-.55-.63-1.3-.95-2.25-.95Z"/><path class="cls-19" d="M690.06,661.78h-5.71v15.86h-2.33v-15.86h-5.7v-1.92h13.75v1.92Z"/><path class="cls-19" d="M690.53,670.91c0-1.29,.25-2.46,.76-3.49,.51-1.03,1.22-1.83,2.12-2.39,.91-.56,1.94-.84,3.11-.84,1.8,0,3.25,.62,4.36,1.87,1.11,1.25,1.67,2.9,1.67,4.97v.16c0,1.29-.25,2.44-.74,3.46-.49,1.02-1.2,1.82-2.11,2.39-.92,.57-1.97,.85-3.16,.85-1.79,0-3.24-.62-4.35-1.87-1.11-1.25-1.67-2.89-1.67-4.94v-.16Zm2.27,.27c0,1.46,.34,2.64,1.02,3.53s1.59,1.33,2.73,1.33,2.06-.45,2.73-1.35,1.01-2.16,1.01-3.78c0-1.45-.34-2.62-1.03-3.52s-1.6-1.35-2.74-1.35-2.01,.44-2.7,1.33c-.68,.89-1.03,2.16-1.03,3.81Z"/><path class="cls-19" d="M709.07,671.52l-1.42,1.48v4.64h-2.26v-18.75h2.26v11.34l1.21-1.45,4.11-4.35h2.75l-5.14,5.52,5.74,7.69h-2.65l-4.6-6.12Z"/><path class="cls-19" d="M723.29,677.88c-1.79,0-3.25-.59-4.37-1.76-1.12-1.18-1.69-2.75-1.69-4.72v-.42c0-1.31,.25-2.48,.75-3.51,.5-1.03,1.2-1.84,2.1-2.42,.9-.58,1.87-.87,2.92-.87,1.72,0,3.05,.57,4,1.7,.95,1.13,1.43,2.75,1.43,4.86v.94h-8.95c.03,1.3,.41,2.35,1.14,3.16,.73,.8,1.65,1.2,2.78,1.2,.8,0,1.47-.16,2.03-.49,.55-.33,1.04-.76,1.45-1.29l1.38,1.07c-1.11,1.7-2.77,2.55-4.98,2.55Zm-.28-11.84c-.91,0-1.68,.33-2.29,1-.62,.66-1,1.59-1.15,2.79h6.62v-.17c-.07-1.15-.37-2.04-.93-2.67-.55-.63-1.3-.95-2.25-.95Z"/><path class="cls-19" d="M733.2,664.43l.07,1.66c1.01-1.27,2.33-1.9,3.96-1.9,2.79,0,4.2,1.57,4.22,4.72v8.73h-2.26v-8.74c0-.95-.23-1.66-.65-2.11-.43-.46-1.09-.68-2-.68-.73,0-1.38,.2-1.93,.59-.55,.39-.99,.9-1.29,1.54v9.41h-2.26v-13.21h2.14Z"/></g><g><path class="cls-19" d="M1173.22,557.22h-2.17v-7.56h-8.24v7.56h-2.16v-16.35h2.16v7.03h8.24v-7.03h2.17v16.35Z"/><path class="cls-19" d="M1176.17,551.03c0-1.19,.23-2.26,.7-3.21s1.12-1.68,1.95-2.2,1.79-.78,2.86-.78c1.65,0,2.99,.57,4.01,1.72,1.02,1.15,1.53,2.67,1.53,4.57v.15c0,1.18-.23,2.24-.68,3.18s-1.1,1.67-1.94,2.2c-.84,.52-1.81,.79-2.9,.79-1.65,0-2.98-.57-4-1.72-1.02-1.15-1.53-2.66-1.53-4.55v-.15Zm2.09,.25c0,1.35,.31,2.43,.94,3.25,.62,.82,1.46,1.22,2.51,1.22s1.89-.41,2.52-1.24c.62-.83,.93-1.99,.93-3.48,0-1.33-.32-2.41-.95-3.24-.63-.83-1.47-1.24-2.52-1.24s-1.85,.41-2.48,1.22-.94,1.98-.94,3.5Z"/><path class="cls-19" d="M1196.92,554c0-.56-.21-1-.63-1.31-.42-.31-1.16-.58-2.21-.8s-1.89-.49-2.5-.81c-.62-.31-1.07-.69-1.37-1.12s-.44-.95-.44-1.55c0-1,.42-1.84,1.26-2.53,.84-.69,1.92-1.03,3.23-1.03,1.38,0,2.5,.36,3.35,1.07s1.29,1.62,1.29,2.73h-2.09c0-.57-.24-1.06-.72-1.47-.48-.41-1.09-.62-1.83-.62s-1.35,.17-1.77,.49c-.43,.33-.64,.76-.64,1.29,0,.5,.2,.88,.59,1.13,.4,.25,1.11,.5,2.15,.73s1.88,.51,2.52,.83,1.12,.71,1.43,1.16c.31,.45,.47,1,.47,1.66,0,1.08-.43,1.96-1.3,2.61-.87,.65-2,.98-3.38,.98-.97,0-1.83-.17-2.58-.52-.75-.34-1.33-.82-1.76-1.44-.42-.62-.63-1.29-.63-2h2.08c.04,.7,.32,1.25,.84,1.66s1.21,.61,2.06,.61c.79,0,1.42-.16,1.89-.48s.71-.74,.71-1.27Z"/><path class="cls-19" d="M1204.52,542.12v2.94h2.27v1.61h-2.27v7.54c0,.49,.1,.85,.3,1.1s.55,.37,1.03,.37c.24,0,.57-.04,.99-.13v1.67c-.55,.15-1.08,.22-1.59,.22-.93,0-1.63-.28-2.1-.84-.47-.56-.71-1.36-.71-2.39v-7.54h-2.21v-1.61h2.21v-2.94h2.08Z"/><path class="cls-19" d="M1209.14,556.13c0-.36,.11-.66,.32-.9,.21-.24,.53-.36,.96-.36s.75,.12,.97,.36,.33,.54,.33,.9-.11,.63-.33,.87c-.22,.23-.54,.35-.97,.35s-.75-.12-.96-.35c-.21-.23-.32-.52-.32-.87Zm.01-9.92c0-.36,.11-.66,.32-.9,.21-.24,.53-.36,.96-.36s.75,.12,.97,.36c.22,.24,.33,.54,.33,.9s-.11,.63-.33,.86-.54,.35-.97,.35-.75-.12-.96-.35c-.21-.23-.32-.52-.32-.86Z"/><path class="cls-19" d="M1227.98,557.22c-.12-.24-.22-.67-.29-1.28-.97,1-2.12,1.51-3.46,1.51-1.2,0-2.18-.34-2.95-1.02-.77-.68-1.15-1.54-1.15-2.58,0-1.27,.48-2.25,1.44-2.95,.96-.7,2.32-1.05,4.06-1.05h2.02v-.96c0-.73-.22-1.3-.65-1.73-.43-.43-1.08-.65-1.92-.65-.74,0-1.36,.19-1.86,.56s-.75,.83-.75,1.36h-2.09c0-.61,.22-1.19,.65-1.76,.43-.56,1.01-1.01,1.75-1.34,.74-.33,1.55-.49,2.43-.49,1.4,0,2.5,.35,3.29,1.05,.79,.7,1.21,1.66,1.24,2.89v5.59c0,1.12,.14,2,.43,2.66v.18h-2.18Zm-3.45-1.58c.65,0,1.27-.17,1.85-.51,.58-.34,1.01-.77,1.27-1.31v-2.49h-1.63c-2.55,0-3.82,.75-3.82,2.23,0,.65,.22,1.16,.65,1.53,.43,.37,.99,.55,1.67,.55Z"/><path class="cls-19" d="M1243.25,551.28c0,1.85-.42,3.34-1.27,4.47-.85,1.13-1.99,1.7-3.44,1.7s-2.63-.47-3.48-1.4v5.85h-2.08v-16.82h1.9l.1,1.35c.85-1.05,2.02-1.57,3.53-1.57s2.62,.55,3.46,1.65,1.27,2.63,1.27,4.59v.19Zm-2.08-.24c0-1.37-.29-2.45-.88-3.25s-1.38-1.19-2.4-1.19c-1.26,0-2.2,.56-2.83,1.67v5.81c.62,1.11,1.57,1.66,2.85,1.66,1,0,1.79-.4,2.38-1.18,.59-.79,.88-1.96,.88-3.52Z"/><path class="cls-19" d="M1245.9,541.84c0-.34,.1-.62,.31-.85s.51-.35,.92-.35,.71,.12,.92,.35,.31,.52,.31,.85-.1,.62-.31,.84-.52,.34-.92,.34-.71-.11-.92-.34-.31-.5-.31-.84Zm2.25,15.38h-2.08v-12.15h2.08v12.15Z"/><path class="cls-19" d="M1251.52,556.13c0-.36,.11-.66,.32-.9,.21-.24,.53-.36,.96-.36s.75,.12,.97,.36,.33,.54,.33,.9-.11,.63-.33,.87c-.22,.23-.54,.35-.97,.35s-.75-.12-.96-.35c-.21-.23-.32-.52-.32-.87Z"/><path class="cls-19" d="M1262.57,557.44c-1.65,0-2.99-.54-4.02-1.62s-1.55-2.53-1.55-4.34v-.38c0-1.21,.23-2.28,.69-3.23,.46-.95,1.1-1.69,1.93-2.22,.83-.54,1.72-.8,2.69-.8,1.58,0,2.81,.52,3.68,1.56s1.31,2.53,1.31,4.47v.87h-8.23c.03,1.2,.38,2.17,1.05,2.9,.67,.74,1.52,1.11,2.55,1.11,.73,0,1.36-.15,1.87-.45,.51-.3,.95-.7,1.34-1.19l1.27,.99c-1.02,1.56-2.55,2.35-4.58,2.35Zm-.26-10.89c-.84,0-1.54,.31-2.11,.92-.57,.61-.92,1.46-1.06,2.57h6.09v-.16c-.06-1.05-.34-1.87-.85-2.45s-1.2-.87-2.07-.87Z"/><path class="cls-19" d="M1273.79,549.5l2.7-4.44h2.43l-3.97,6.01,4.1,6.14h-2.4l-2.81-4.55-2.81,4.55h-2.41l4.1-6.14-3.98-6.01h2.4l2.66,4.44Z"/><path class="cls-19" d="M1288.61,557.22c-.12-.24-.22-.67-.29-1.28-.97,1-2.12,1.51-3.46,1.51-1.2,0-2.18-.34-2.95-1.02-.77-.68-1.15-1.54-1.15-2.58,0-1.27,.48-2.25,1.44-2.95,.96-.7,2.32-1.05,4.06-1.05h2.02v-.96c0-.73-.22-1.3-.65-1.73-.43-.43-1.08-.65-1.92-.65-.74,0-1.36,.19-1.86,.56s-.75,.83-.75,1.36h-2.09c0-.61,.22-1.19,.65-1.76,.43-.56,1.01-1.01,1.75-1.34,.74-.33,1.55-.49,2.43-.49,1.4,0,2.5,.35,3.29,1.05,.79,.7,1.21,1.66,1.24,2.89v5.59c0,1.12,.14,2,.43,2.66v.18h-2.18Zm-3.45-1.58c.65,0,1.27-.17,1.85-.51,.58-.34,1.01-.77,1.27-1.31v-2.49h-1.63c-2.55,0-3.82,.75-3.82,2.23,0,.65,.22,1.16,.65,1.53,.43,.37,.99,.55,1.67,.55Z"/><path class="cls-19" d="M1295.57,545.07l.06,1.35c.89-1.05,2.09-1.57,3.61-1.57,1.7,0,2.86,.65,3.47,1.96,.4-.58,.93-1.06,1.58-1.42s1.41-.54,2.3-.54c2.67,0,4.02,1.41,4.07,4.23v8.14h-2.08v-8.02c0-.87-.2-1.52-.59-1.95-.4-.43-1.06-.65-2-.65-.77,0-1.41,.23-1.92,.69-.51,.46-.81,1.08-.89,1.86v8.06h-2.09v-7.96c0-1.77-.87-2.65-2.59-2.65-1.36,0-2.29,.58-2.8,1.74v8.87h-2.08v-12.15h1.97Z"/><path class="cls-19" d="M1324.04,551.28c0,1.85-.42,3.34-1.27,4.47-.85,1.13-1.99,1.7-3.44,1.7s-2.63-.47-3.48-1.4v5.85h-2.08v-16.82h1.9l.1,1.35c.85-1.05,2.02-1.57,3.53-1.57s2.62,.55,3.46,1.65,1.27,2.63,1.27,4.59v.19Zm-2.08-.24c0-1.37-.29-2.45-.88-3.25s-1.38-1.19-2.4-1.19c-1.26,0-2.2,.56-2.83,1.67v5.81c.62,1.11,1.57,1.66,2.85,1.66,1,0,1.79-.4,2.38-1.18,.59-.79,.88-1.96,.88-3.52Z"/><path class="cls-19" d="M1328.94,557.22h-2.08v-17.25h2.08v17.25Z"/><path class="cls-19" d="M1337.31,557.44c-1.65,0-2.99-.54-4.02-1.62s-1.55-2.53-1.55-4.34v-.38c0-1.21,.23-2.28,.69-3.23,.46-.95,1.1-1.69,1.93-2.22,.83-.54,1.72-.8,2.69-.8,1.58,0,2.81,.52,3.68,1.56s1.31,2.53,1.31,4.47v.87h-8.23c.03,1.2,.38,2.17,1.05,2.9,.67,.74,1.52,1.11,2.55,1.11,.73,0,1.36-.15,1.87-.45,.51-.3,.95-.7,1.34-1.19l1.27,.99c-1.02,1.56-2.55,2.35-4.58,2.35Zm-.26-10.89c-.84,0-1.54,.31-2.11,.92-.57,.61-.92,1.46-1.06,2.57h6.09v-.16c-.06-1.05-.34-1.87-.85-2.45s-1.2-.87-2.07-.87Z"/><path class="cls-19" d="M1344.5,556.13c0-.36,.11-.66,.32-.9,.21-.24,.53-.36,.96-.36s.75,.12,.97,.36,.33,.54,.33,.9-.11,.63-.33,.87c-.22,.23-.54,.35-.97,.35s-.75-.12-.96-.35c-.21-.23-.32-.52-.32-.87Z"/><path class="cls-19" d="M1358,557.22c-.12-.24-.22-.67-.29-1.28-.97,1-2.12,1.51-3.46,1.51-1.2,0-2.18-.34-2.95-1.02-.77-.68-1.15-1.54-1.15-2.58,0-1.27,.48-2.25,1.44-2.95,.96-.7,2.32-1.05,4.06-1.05h2.02v-.96c0-.73-.22-1.3-.65-1.73-.43-.43-1.08-.65-1.92-.65-.74,0-1.36,.19-1.86,.56s-.75,.83-.75,1.36h-2.09c0-.61,.22-1.19,.65-1.76,.43-.56,1.01-1.01,1.75-1.34,.74-.33,1.55-.49,2.43-.49,1.4,0,2.5,.35,3.29,1.05,.79,.7,1.21,1.66,1.24,2.89v5.59c0,1.12,.14,2,.43,2.66v.18h-2.18Zm-3.45-1.58c.65,0,1.27-.17,1.85-.51,.58-.34,1.01-.77,1.27-1.31v-2.49h-1.63c-2.55,0-3.82,.75-3.82,2.23,0,.65,.22,1.16,.65,1.53,.43,.37,.99,.55,1.67,.55Z"/><path class="cls-19" d="M1366.41,551.59l-1.3,1.36v4.27h-2.08v-17.25h2.08v10.43l1.11-1.34,3.78-4h2.53l-4.73,5.08,5.28,7.08h-2.44l-4.23-5.63Z"/><path class="cls-19" d="M1381.75,554c0-.56-.21-1-.63-1.31-.42-.31-1.16-.58-2.21-.8s-1.89-.49-2.5-.81c-.62-.31-1.07-.69-1.37-1.12s-.44-.95-.44-1.55c0-1,.42-1.84,1.26-2.53,.84-.69,1.92-1.03,3.23-1.03,1.38,0,2.5,.36,3.35,1.07s1.29,1.62,1.29,2.73h-2.09c0-.57-.24-1.06-.72-1.47-.48-.41-1.09-.62-1.83-.62s-1.35,.17-1.77,.49c-.43,.33-.64,.76-.64,1.29,0,.5,.2,.88,.59,1.13,.4,.25,1.11,.5,2.15,.73s1.88,.51,2.52,.83,1.12,.71,1.43,1.16c.31,.45,.47,1,.47,1.66,0,1.08-.43,1.96-1.3,2.61-.87,.65-2,.98-3.38,.98-.97,0-1.83-.17-2.58-.52-.75-.34-1.33-.82-1.76-1.44-.42-.62-.63-1.29-.63-2h2.08c.04,.7,.32,1.25,.84,1.66s1.21,.61,2.06,.61c.79,0,1.42-.16,1.89-.48s.71-.74,.71-1.27Z"/></g></svg>