<svg xmlns="http://www.w3.org/2000/svg" xmlns:xlink="http://www.w3.org/1999/xlink" version="1.1" viewBox="0 0 4746 2626" style="background: #ffffff"><defs joint-selector="defs"></defs><g joint-selector="layers"  transform="matrix(1,0,0,1,0,0)"><g ></g><g ><g   id="j_157"  transform="translate(20,2581)"><g id="v-1788"><text  id="v-1789" font-size="22px" xml:space="preserve" y="0.8em" font-weight="normal" text-anchor="start" fill="#aaaaaa" pointer-events="none" font-family="Open Sans" display="block"><tspan dy="0" >Monday, April 3, 2023 at 4:04 PM British Summer Time</tspan></text></g></g><g   id="j_156"  transform="translate(20,2537)"><g id="v-1786"><text  id="v-1787" font-size="36px" xml:space="preserve" y="0.8em" font-weight="normal" text-anchor="start" fill="#000000" pointer-events="none" font-family="Open Sans" display="block"><tspan dy="0" >[Deployment] Goalie Software System - Live</tspan></text></g></g><g   id="j_142"  transform="translate(199,200)" style=""><g  id="v-1536" style="opacity: 1;"><rect  id="v-1537" width="4346" height="2226" rx="10" ry="10" fill="#ffffff" stroke="#888888" stroke-width="1" pointer-events="none" style="stroke: rgb(136, 136, 136);"></rect><text  id="v-1538" font-size="24px" xml:space="preserve" y="2187" font-weight="normal" text-anchor="start" pointer-events="visible" font-family="Open Sans" fill="#000000" transform="matrix(1,0,0,1,15,0)" style="fill: rgb(0, 0, 0);"><tspan dy="0" >Azure</tspan></text><text  id="v-1539" font-size="17px" xml:space="preserve" y="2211" font-weight="normal" text-anchor="start" pointer-events="visible" font-family="Open Sans" fill="#000000" transform="matrix(1,0,0,1,15,0)" style="fill: rgb(0, 0, 0);"><tspan dy="0" >[Deployment Node]</tspan></text><text  id="v-1540" font-size="40px" xml:space="preserve" display="none" y="2211" font-weight="normal" fill="#000000" text-anchor="end" pointer-events="visible" font-family="Open Sans" transform="matrix(1,0,0,1,4331,0)"><tspan dy="0" style="fill-opacity: 0; stroke-opacity: 0;" >-</tspan></text><image  id="v-1541" pointer-events="visible"></image></g></g><g   id="j_137"  transform="translate(219,220)" style=""><g  id="v-1506" style="opacity: 1;"><rect  id="v-1507" width="4306" height="2115" rx="10" ry="10" fill="#ffffff" stroke="#888888" stroke-width="1" pointer-events="none" style="stroke: rgb(136, 136, 136);"></rect><text  id="v-1508" font-size="24px" xml:space="preserve" y="2076" font-weight="normal" text-anchor="start" pointer-events="visible" font-family="Open Sans" fill="#000000" transform="matrix(1,0,0,1,15,0)" style="fill: rgb(0, 0, 0);"><tspan dy="0" >UK South</tspan></text><text  id="v-1509" font-size="17px" xml:space="preserve" y="2100" font-weight="normal" text-anchor="start" pointer-events="visible" font-family="Open Sans" fill="#000000" transform="matrix(1,0,0,1,15,0)" style="fill: rgb(0, 0, 0);"><tspan dy="0" >[Deployment Node]</tspan></text><text  id="v-1510" font-size="40px" xml:space="preserve" display="none" y="2100" font-weight="normal" fill="#000000" text-anchor="end" pointer-events="visible" font-family="Open Sans" transform="matrix(1,0,0,1,4291,0)"><tspan dy="0" style="fill-opacity: 0; stroke-opacity: 0;" >-</tspan></text><image  id="v-1511" pointer-events="visible"></image></g></g><g   id="j_139"  transform="translate(969,911)" style=""><g  id="v-1518" style="opacity: 1;"><rect  id="v-1519" width="2760" height="1333" rx="10" ry="10" fill="#ffffff" stroke="#341a6e" stroke-width="1" pointer-events="none" style="stroke: rgb(52, 26, 110);"></rect><text  id="v-1520" font-size="24px" xml:space="preserve" y="1294" font-weight="normal" text-anchor="start" pointer-events="visible" font-family="Open Sans" fill="#341a6e" transform="matrix(1,0,0,1,73,0)" style="fill: rgb(52, 26, 110);"><tspan dy="0" >Azure Kubernetes Service</tspan></text><text  id="v-1521" font-size="17px" xml:space="preserve" y="1318" font-weight="normal" text-anchor="start" pointer-events="visible" font-family="Open Sans" fill="#341a6e" transform="matrix(1,0,0,1,73,0)" style="fill: rgb(52, 26, 110);"><tspan dy="0" >[Deployment Node]</tspan></text><text  id="v-1522" font-size="40px" xml:space="preserve" display="none" y="1318" font-weight="normal" fill="#341a6e" text-anchor="end" pointer-events="visible" font-family="Open Sans" transform="matrix(1,0,0,1,2745,0)"><tspan dy="0" style="fill-opacity: 0; stroke-opacity: 0;" >-</tspan></text><image  id="v-1523" pointer-events="visible" xlink:href="https://static.structurizr.com/themes/microsoft-azure-2023.01.24/10023-icon-service-Kubernetes-Services.png" width="48" height="48" opacity="1" x="15" y="1275"></image></g></g><g   id="j_141"  transform="translate(969,240)" style=""><g  id="v-1530" style="opacity: 1;"><rect  id="v-1531" width="490" height="411" rx="10" ry="10" fill="#ffffff" stroke="#005ba1" stroke-width="1" pointer-events="none" style="stroke: rgb(0, 91, 161);"></rect><text  id="v-1532" font-size="24px" xml:space="preserve" y="372" font-weight="normal" text-anchor="start" pointer-events="visible" font-family="Open Sans" fill="#005ba1" transform="matrix(1,0,0,1,73,0)" style="fill: rgb(0, 91, 161);"><tspan dy="0" >Static Web App</tspan></text><text  id="v-1533" font-size="17px" xml:space="preserve" y="396" font-weight="normal" text-anchor="start" pointer-events="visible" font-family="Open Sans" fill="#005ba1" transform="matrix(1,0,0,1,73,0)" style="fill: rgb(0, 91, 161);"><tspan dy="0" >[Deployment Node]</tspan></text><text  id="v-1534" font-size="40px" xml:space="preserve" display="none" y="396" font-weight="normal" fill="#005ba1" text-anchor="end" pointer-events="visible" font-family="Open Sans" transform="matrix(1,0,0,1,475,0)"><tspan dy="0" style="fill-opacity: 0; stroke-opacity: 0;" >-</tspan></text><image  id="v-1535" pointer-events="visible" xlink:href="https://static.structurizr.com/themes/microsoft-azure-2023.01.24/01007-icon-service-Static-Apps.png" width="48" height="48" opacity="1" x="15" y="353"></image></g></g><g   id="j_140"  transform="translate(3219,1073)" style=""><g  id="v-1524" style="opacity: 1;"><rect  id="v-1525" width="490" height="411" rx="10" ry="10" fill="#ffffff" stroke="#888888" stroke-width="1" pointer-events="none" style="stroke: rgb(136, 136, 136);"></rect><text  id="v-1526" font-size="24px" xml:space="preserve" y="372" font-weight="normal" text-anchor="start" pointer-events="visible" font-family="Open Sans" fill="#000000" transform="matrix(1,0,0,1,15,0)" style="fill: rgb(0, 0, 0);"><tspan dy="0" >EventStore</tspan></text><text  id="v-1527" font-size="17px" xml:space="preserve" y="396" font-weight="normal" text-anchor="start" pointer-events="visible" font-family="Open Sans" fill="#000000" transform="matrix(1,0,0,1,15,0)" style="fill: rgb(0, 0, 0);"><tspan dy="0" >[Deployment Node]</tspan></text><text  id="v-1528" font-size="40px" xml:space="preserve" display="none" y="396" font-weight="normal" fill="#000000" text-anchor="end" pointer-events="visible" font-family="Open Sans" transform="matrix(1,0,0,1,475,0)"><tspan dy="0" style="fill-opacity: 0; stroke-opacity: 0;" >-</tspan></text><image  id="v-1529" pointer-events="visible"></image></g></g><g   id="j_138"  transform="translate(4015,1744)" style=""><g  id="v-1512" style="opacity: 1;"><rect  id="v-1513" width="490" height="411" rx="10" ry="10" fill="#ffffff" stroke="#50e6ff" stroke-width="1" pointer-events="none" style="stroke: rgb(80, 230, 255);"></rect><text  id="v-1514" font-size="24px" xml:space="preserve" y="372" font-weight="normal" text-anchor="start" pointer-events="visible" font-family="Open Sans" fill="#50e6ff" transform="matrix(1,0,0,1,73,0)" style="fill: rgb(80, 230, 255);"><tspan dy="0" >PostgreSQL</tspan></text><text  id="v-1515" font-size="17px" xml:space="preserve" y="396" font-weight="normal" text-anchor="start" pointer-events="visible" font-family="Open Sans" fill="#50e6ff" transform="matrix(1,0,0,1,73,0)" style="fill: rgb(80, 230, 255);"><tspan dy="0" >[Deployment Node]</tspan></text><text  id="v-1516" font-size="40px" xml:space="preserve" display="none" y="396" font-weight="normal" fill="#50e6ff" text-anchor="end" pointer-events="visible" font-family="Open Sans" transform="matrix(1,0,0,1,475,0)"><tspan dy="0" style="fill-opacity: 0; stroke-opacity: 0;" >-</tspan></text><image  id="v-1517" pointer-events="visible" xlink:href="https://static.structurizr.com/themes/microsoft-azure-2023.01.24/10131-icon-service-Azure-Database-PostgreSQL-Server.png" width="48" height="48" opacity="1" x="15" y="353"></image></g></g><g   id="j_125"  transform="translate(989,260)" style=""><g  id="v-1393" style="opacity: 1;"><rect  id="v-1394" rx="1" ry="1" stroke="#c7c7c7" stroke-width="2" pointer-events="visiblePainted" fill="#dddddd" width="450" height="300" style="fill: rgb(221, 221, 221); stroke: rgb(199, 199, 199);"></rect><text  id="v-1395" font-size="34" xml:space="preserve" y="0.8em" font-weight="bold" text-anchor="middle" pointer-events="visible" font-family="Open Sans" fill="#000000" transform="matrix(1,0,0,1,225,113.1)" style="fill: rgb(0, 0, 0);"><tspan dy="0" >Web Application</tspan></text><text  id="v-1396" font-size="17" xml:space="preserve" y="0.8em" text-anchor="middle" font-family="Open Sans" fill="#000000" transform="matrix(1,0,0,1,225,155.6)" style="fill: rgb(0, 0, 0);"><tspan dy="0" >[Container: Angular]</tspan></text><text  id="v-1397" font-size="24" xml:space="preserve" display="none" y="0.8em" text-anchor="middle" font-family="Open Sans" fill="#000000" transform="matrix(1,0,0,1,225,186.9)" style="fill: rgb(0, 0, 0);"><tspan dy="0" style="fill-opacity: 0; stroke-opacity: 0;" >-</tspan></text><g  id="v-1398" color="#000000" transform="matrix(1,0,0,1,222.5,196.9)" display="none" style="fill: rgb(0, 0, 0);"><g ></g><g ></g><g ></g><g ></g></g><image  id="v-1399"></image></g></g><g   id="j_126"  transform="translate(239,898)" style=""><g  id="v-1400" style="opacity: 1;"><rect  id="v-1401" rx="1" ry="1" stroke="#5ea0ef" stroke-width="2" pointer-events="visiblePainted" fill="#dddddd" width="450" height="300" style="fill: rgb(221, 221, 221); stroke: rgb(94, 160, 239);"></rect><text  id="v-1402" font-size="34" xml:space="preserve" y="0.8em" font-weight="bold" text-anchor="middle" pointer-events="visible" font-family="Open Sans" fill="#5ea0ef" transform="matrix(1,0,0,1,225,75.6)" style="fill: rgb(94, 160, 239);"><tspan dy="0" >DNS Zone</tspan></text><text  id="v-1403" font-size="17" xml:space="preserve" y="0.8em" text-anchor="middle" font-family="Open Sans" fill="#5ea0ef" transform="matrix(1,0,0,1,225,118.1)" style="fill: rgb(94, 160, 239);"><tspan dy="0" >[Infrastructure Node]</tspan></text><text  id="v-1404" font-size="24" xml:space="preserve" display="none" y="0.8em" text-anchor="middle" font-family="Open Sans" fill="#5ea0ef" transform="matrix(1,0,0,1,225,149.4)" style="fill: rgb(94, 160, 239);"><tspan dy="0" style="fill-opacity: 0; stroke-opacity: 0;" >-</tspan></text><g  id="v-1405" color="#5ea0ef" transform="matrix(1,0,0,1,222.5,234.4)" display="none" style="fill: rgb(94, 160, 239);"><g ></g><g ></g><g ></g><g ></g></g><image  id="v-1406" xlink:href="https://static.structurizr.com/themes/microsoft-azure-2023.01.24/10064-icon-service-DNS-Zones.png" width="60" height="60" opacity="1" transform="matrix(1,0,0,1,195,159.4)"></image></g></g><g   id="j_127"  transform="translate(1739,1531)" style=""><g  id="v-1410" style="opacity: 1;"><polygon  id="v-1411" stroke="#d87e94" stroke-width="2" pointer-events="visiblePainted" fill="#f08ca4" points="112.5,0 337.5,0 450,194.5 337.5,389 112.5,389 0,194.5" style="fill: rgb(240, 140, 164); stroke: rgb(216, 126, 148);"></polygon><text  id="v-1412" font-size="34" xml:space="preserve" y="0.8em" font-weight="bold" text-anchor="middle" pointer-events="visible" font-family="Open Sans" fill="#000000" transform="matrix(1,0,0,1,225,136.4)" style="fill: rgb(0, 0, 0);"><tspan dy="0" >OAuth Agent Service</tspan><tspan dy="1.2em" x="0" >API</tspan></text><text  id="v-1413" font-size="17" xml:space="preserve" y="0.8em" text-anchor="middle" font-family="Open Sans" fill="#000000" transform="matrix(1,0,0,1,225,221.4)" style="fill: rgb(0, 0, 0);"><tspan dy="0" >[Container: NestJS]</tspan></text><text  id="v-1414" font-size="24" xml:space="preserve" display="none" y="0.8em" text-anchor="middle" font-family="Open Sans" fill="#000000" transform="matrix(1,0,0,1,225,252.6)" style="fill: rgb(0, 0, 0);"><tspan dy="0" style="fill-opacity: 0; stroke-opacity: 0;" >-</tspan></text><g  id="v-1415" font-weight="normal" text-anchor="middle" color="#000000" transform="matrix(1,0,0,1,222.1,262.6)" display="none" style="fill: rgb(0, 0, 0);"><g ></g><g ></g><g ></g><g ></g></g><image  id="v-1416"></image></g></g><g   id="j_128"  transform="translate(2489,331)" style=""><g  id="v-1420" style="opacity: 1;"><rect  id="v-1421" rx="1" ry="1" stroke="#767676" stroke-width="2" pointer-events="visiblePainted" fill="#dddddd" width="450" height="300" style="fill: rgb(221, 221, 221); stroke: rgb(118, 118, 118);"></rect><text  id="v-1422" font-size="34" xml:space="preserve" y="0.8em" font-weight="bold" text-anchor="middle" pointer-events="visible" font-family="Open Sans" fill="#767676" transform="matrix(1,0,0,1,225,75.6)" style="fill: rgb(118, 118, 118);"><tspan dy="0" >Container Registry</tspan></text><text  id="v-1423" font-size="17" xml:space="preserve" y="0.8em" text-anchor="middle" font-family="Open Sans" fill="#767676" transform="matrix(1,0,0,1,225,118.1)" style="fill: rgb(118, 118, 118);"><tspan dy="0" >[Infrastructure Node]</tspan></text><text  id="v-1424" font-size="24" xml:space="preserve" display="none" y="0.8em" text-anchor="middle" font-family="Open Sans" fill="#767676" transform="matrix(1,0,0,1,225,149.4)" style="fill: rgb(118, 118, 118);"><tspan dy="0" style="fill-opacity: 0; stroke-opacity: 0;" >-</tspan></text><g  id="v-1425" color="#767676" transform="matrix(1,0,0,1,222.5,234.4)" display="none" style="fill: rgb(118, 118, 118);"><g ></g><g ></g><g ></g><g ></g></g><image  id="v-1426" xlink:href="https://static.structurizr.com/themes/microsoft-azure-2023.01.24/10105-icon-service-Container-Registries.png" width="60" height="60" opacity="1" transform="matrix(1,0,0,1,195,159.4)"></image></g></g><g   id="j_129"  transform="translate(3239,1764)" style=""><g  id="v-1430" style="opacity: 1;"><polygon  id="v-1431" stroke="#e69b2e" stroke-width="2" pointer-events="visiblePainted" fill="#ffac33" points="112.5,0 337.5,0 450,194.5 337.5,389 112.5,389 0,194.5" style="fill: rgb(255, 172, 51); stroke: rgb(230, 155, 46);"></polygon><text  id="v-1432" font-size="34" xml:space="preserve" y="0.8em" font-weight="bold" text-anchor="middle" pointer-events="visible" font-family="Open Sans" fill="#000000" transform="matrix(1,0,0,1,225,157.6)" style="fill: rgb(0, 0, 0);"><tspan dy="0" >Curity Service API</tspan></text><text  id="v-1433" font-size="17" xml:space="preserve" y="0.8em" text-anchor="middle" font-family="Open Sans" fill="#000000" transform="matrix(1,0,0,1,225,200.1)" style="fill: rgb(0, 0, 0);"><tspan dy="0" >[Container: Java]</tspan></text><text  id="v-1434" font-size="24" xml:space="preserve" display="none" y="0.8em" text-anchor="middle" font-family="Open Sans" fill="#000000" transform="matrix(1,0,0,1,225,231.4)" style="fill: rgb(0, 0, 0);"><tspan dy="0" style="fill-opacity: 0; stroke-opacity: 0;" >-</tspan></text><g  id="v-1435" font-weight="normal" text-anchor="middle" color="#000000" transform="matrix(1,0,0,1,222.1,241.4)" display="none" style="fill: rgb(0, 0, 0);"><g ></g><g ></g><g ></g><g ></g></g><image  id="v-1436"></image></g></g><g   id="j_130"  transform="translate(4035,1764)" style=""><g  id="v-1440" style="opacity: 1;"><path  d="M 0,30 a 225,30 0,0,0 450 0 a 225,30 0,0,0 -450 0 l 0,240 a 225,30 0,0,0 450 0 l 0,-240" id="v-1441" stroke="#e69b2e" stroke-width="2" pointer-events="visiblePainted" fill="#ffac33" style="fill: rgb(255, 172, 51); stroke: rgb(230, 155, 46);"></path><rect  id="v-1442" stroke-width="0" pointer-events="visiblePainted" fill="none" stroke="none" width="450" height="270" x="0" y="30"></rect><text  id="v-1443" font-size="34" xml:space="preserve" y="0.8em" font-weight="bold" text-anchor="middle" pointer-events="visible" font-family="Open Sans" fill="#000000" transform="matrix(1,0,0,1,225,143.1)" style="fill: rgb(0, 0, 0);"><tspan dy="0" >Curity Service Database</tspan></text><text  id="v-1444" font-size="17" xml:space="preserve" y="0.8em" text-anchor="middle" font-family="Open Sans" fill="#000000" transform="matrix(1,0,0,1,225,185.6)" style="fill: rgb(0, 0, 0);"><tspan dy="0" >[Container: PostgreSQL]</tspan></text><text  id="v-1445" font-size="24" xml:space="preserve" display="none" y="0.8em" text-anchor="middle" font-family="Open Sans" fill="#000000" transform="matrix(1,0,0,1,225,216.9)" style="fill: rgb(0, 0, 0);"><tspan dy="0" style="fill-opacity: 0; stroke-opacity: 0;" >-</tspan></text><g  id="v-1446" font-weight="normal" text-anchor="middle" color="#000000" transform="matrix(1,0,0,1,222.5,226.9)" display="none" style="fill: rgb(0, 0, 0);"><g ></g><g ></g><g ></g><g ></g></g><image  id="v-1447"></image></g></g><g   id="j_131"  transform="translate(989,1531)" style=""><g  id="v-1451" style="opacity: 1;"><rect  id="v-1452" rx="1" ry="1" stroke="#c7c7c7" stroke-width="2" pointer-events="visiblePainted" fill="#dddddd" width="450" height="300" style="fill: rgb(221, 221, 221); stroke: rgb(199, 199, 199);"></rect><text  id="v-1453" font-size="34" xml:space="preserve" y="0.8em" font-weight="bold" text-anchor="middle" pointer-events="visible" font-family="Open Sans" fill="#000000" transform="matrix(1,0,0,1,225,113.1)" style="fill: rgb(0, 0, 0);"><tspan dy="0" >Ingress Controller</tspan></text><text  id="v-1454" font-size="17" xml:space="preserve" y="0.8em" text-anchor="middle" font-family="Open Sans" fill="#000000" transform="matrix(1,0,0,1,225,155.6)" style="fill: rgb(0, 0, 0);"><tspan dy="0" >[Infrastructure Node: NGINX]</tspan></text><text  id="v-1455" font-size="24" xml:space="preserve" display="none" y="0.8em" text-anchor="middle" font-family="Open Sans" fill="#000000" transform="matrix(1,0,0,1,225,186.9)" style="fill: rgb(0, 0, 0);"><tspan dy="0" style="fill-opacity: 0; stroke-opacity: 0;" >-</tspan></text><g  id="v-1456" color="#000000" transform="matrix(1,0,0,1,222.5,196.9)" display="none" style="fill: rgb(0, 0, 0);"><g ></g><g ></g><g ></g><g ></g></g><image  id="v-1457"></image></g></g><g   id="j_132"  transform="translate(1739,931)" style=""><g  id="v-1461" style="opacity: 1;"><polygon  id="v-1462" stroke="#d5d87e" stroke-width="2" pointer-events="visiblePainted" fill="#edf08c" points="112.5,0 337.5,0 450,194.5 337.5,389 112.5,389 0,194.5" style="fill: rgb(237, 240, 140); stroke: rgb(213, 216, 126);"></polygon><text  id="v-1463" font-size="34" xml:space="preserve" y="0.8em" font-weight="bold" text-anchor="middle" pointer-events="visible" font-family="Open Sans" fill="#000000" transform="matrix(1,0,0,1,225,157.6)" style="fill: rgb(0, 0, 0);"><tspan dy="0" >API Gateway API</tspan></text><text  id="v-1464" font-size="17" xml:space="preserve" y="0.8em" text-anchor="middle" font-family="Open Sans" fill="#000000" transform="matrix(1,0,0,1,225,200.1)" style="fill: rgb(0, 0, 0);"><tspan dy="0" >[Container: NestJS]</tspan></text><text  id="v-1465" font-size="24" xml:space="preserve" display="none" y="0.8em" text-anchor="middle" font-family="Open Sans" fill="#000000" transform="matrix(1,0,0,1,225,231.4)" style="fill: rgb(0, 0, 0);"><tspan dy="0" style="fill-opacity: 0; stroke-opacity: 0;" >-</tspan></text><g  id="v-1466" font-weight="normal" text-anchor="middle" color="#000000" transform="matrix(1,0,0,1,222.1,241.4)" display="none" style="fill: rgb(0, 0, 0);"><g ></g><g ></g><g ></g><g ></g></g><image  id="v-1467"></image></g></g><g   id="j_133"  transform="translate(3239,1093)" style=""><g  id="v-1471" style="opacity: 1;"><path  d="M 0,30 a 225,30 0,0,0 450 0 a 225,30 0,0,0 -450 0 l 0,240 a 225,30 0,0,0 450 0 l 0,-240" id="v-1472" stroke="#83d89d" stroke-width="2" pointer-events="visiblePainted" fill="#91f0ae" style="fill: rgb(145, 240, 174); stroke: rgb(131, 216, 157);"></path><rect  id="v-1473" stroke-width="0" pointer-events="visiblePainted" fill="none" stroke="none" width="450" height="270" x="0" y="30"></rect><text  id="v-1474" font-size="34" xml:space="preserve" y="0.8em" font-weight="bold" text-anchor="middle" pointer-events="visible" font-family="Open Sans" fill="#000000" transform="matrix(1,0,0,1,225,143.1)" style="fill: rgb(0, 0, 0);"><tspan dy="0" >Goals Service EventStore</tspan></text><text  id="v-1475" font-size="17" xml:space="preserve" y="0.8em" text-anchor="middle" font-family="Open Sans" fill="#000000" transform="matrix(1,0,0,1,225,185.6)" style="fill: rgb(0, 0, 0);"><tspan dy="0" >[Container: EventStoreDB]</tspan></text><text  id="v-1476" font-size="24" xml:space="preserve" display="none" y="0.8em" text-anchor="middle" font-family="Open Sans" fill="#000000" transform="matrix(1,0,0,1,225,216.9)" style="fill: rgb(0, 0, 0);"><tspan dy="0" style="fill-opacity: 0; stroke-opacity: 0;" >-</tspan></text><g  id="v-1477" font-weight="normal" text-anchor="middle" color="#000000" transform="matrix(1,0,0,1,222.5,226.9)" display="none" style="fill: rgb(0, 0, 0);"><g ></g><g ></g><g ></g><g ></g></g><image  id="v-1478"></image></g></g><g   id="j_134"  transform="translate(2489,931)" style=""><g  id="v-1482" style="opacity: 1;"><polygon  id="v-1483" stroke="#83d89d" stroke-width="2" pointer-events="visiblePainted" fill="#91f0ae" points="112.5,0 337.5,0 450,194.5 337.5,389 112.5,389 0,194.5" style="fill: rgb(145, 240, 174); stroke: rgb(131, 216, 157);"></polygon><text  id="v-1484" font-size="34" xml:space="preserve" y="0.8em" font-weight="bold" text-anchor="middle" pointer-events="visible" font-family="Open Sans" fill="#000000" transform="matrix(1,0,0,1,225,157.6)" style="fill: rgb(0, 0, 0);"><tspan dy="0" >Goals Service API</tspan></text><text  id="v-1485" font-size="17" xml:space="preserve" y="0.8em" text-anchor="middle" font-family="Open Sans" fill="#000000" transform="matrix(1,0,0,1,225,200.1)" style="fill: rgb(0, 0, 0);"><tspan dy="0" >[Container: NestJS]</tspan></text><text  id="v-1486" font-size="24" xml:space="preserve" display="none" y="0.8em" text-anchor="middle" font-family="Open Sans" fill="#000000" transform="matrix(1,0,0,1,225,231.4)" style="fill: rgb(0, 0, 0);"><tspan dy="0" style="fill-opacity: 0; stroke-opacity: 0;" >-</tspan></text><g  id="v-1487" font-weight="normal" text-anchor="middle" color="#000000" transform="matrix(1,0,0,1,222.1,241.4)" display="none" style="fill: rgb(0, 0, 0);"><g ></g><g ></g><g ></g><g ></g></g><image  id="v-1488"></image></g></g><g   id="j_135"  transform="translate(989,931)" style=""><g  id="v-1489" style="opacity: 1;"><rect  id="v-1490" rx="1" ry="1" stroke="#c7c7c7" stroke-width="2" pointer-events="visiblePainted" fill="#dddddd" width="450" height="300" style="fill: rgb(221, 221, 221); stroke: rgb(199, 199, 199);"></rect><text  id="v-1491" font-size="34" xml:space="preserve" y="0.8em" font-weight="bold" text-anchor="middle" pointer-events="visible" font-family="Open Sans" fill="#000000" transform="matrix(1,0,0,1,225,113.1)" style="fill: rgb(0, 0, 0);"><tspan dy="0" >NATS</tspan></text><text  id="v-1492" font-size="17" xml:space="preserve" y="0.8em" text-anchor="middle" font-family="Open Sans" fill="#000000" transform="matrix(1,0,0,1,225,155.6)" style="fill: rgb(0, 0, 0);"><tspan dy="0" >[Infrastructure Node: NATS]</tspan></text><text  id="v-1493" font-size="24" xml:space="preserve" display="none" y="0.8em" text-anchor="middle" font-family="Open Sans" fill="#000000" transform="matrix(1,0,0,1,225,186.9)" style="fill: rgb(0, 0, 0);"><tspan dy="0" style="fill-opacity: 0; stroke-opacity: 0;" >-</tspan></text><g  id="v-1494" color="#000000" transform="matrix(1,0,0,1,222.5,196.9)" display="none" style="fill: rgb(0, 0, 0);"><g ></g><g ></g><g ></g><g ></g></g><image  id="v-1495"></image></g></g><g   id="j_136"  transform="translate(2489,1531)" style=""><g  id="v-1499" style="opacity: 1;"><polygon  id="v-1500" stroke="#7ebbd8" stroke-width="2" pointer-events="visiblePainted" fill="#8cd0f0" points="112.5,0 337.5,0 450,194.5 337.5,389 112.5,389 0,194.5" style="fill: rgb(140, 208, 240); stroke: rgb(126, 187, 216);"></polygon><text  id="v-1501" font-size="34" xml:space="preserve" y="0.8em" font-weight="bold" text-anchor="middle" pointer-events="visible" font-family="Open Sans" fill="#000000" transform="matrix(1,0,0,1,225,157.6)" style="fill: rgb(0, 0, 0);"><tspan dy="0" >Users Service API</tspan></text><text  id="v-1502" font-size="17" xml:space="preserve" y="0.8em" text-anchor="middle" font-family="Open Sans" fill="#000000" transform="matrix(1,0,0,1,225,200.1)" style="fill: rgb(0, 0, 0);"><tspan dy="0" >[Container: NestJS]</tspan></text><text  id="v-1503" font-size="24" xml:space="preserve" display="none" y="0.8em" text-anchor="middle" font-family="Open Sans" fill="#000000" transform="matrix(1,0,0,1,225,231.4)" style="fill: rgb(0, 0, 0);"><tspan dy="0" style="fill-opacity: 0; stroke-opacity: 0;" >-</tspan></text><g  id="v-1504" font-weight="normal" text-anchor="middle" color="#000000" transform="matrix(1,0,0,1,222.1,241.4)" display="none" style="fill: rgb(0, 0, 0);"><g ></g><g ></g><g ></g><g ></g></g><image  id="v-1505"></image></g></g><g   id="j_143" ><path  stroke="#707070" d="M 642 1198 L 1036 1531" id="v-1551" stroke-width="2" stroke-dasharray="30 30" fill="none" style="opacity: 1;"></path><path  fill="black" stroke="black" d="M 0 0 0 0" transform="matrix(0.7641894334309886,0.6449918680358887,-0.6449918680358887,0.7641894334309886,641.72998046875,1198)"></path><path  fill="#707070" stroke="#707070" d="M 20 0 L 0 10 L 20 20 z" id="v-1553" transform="matrix(-0.7641893904880557,-0.6449919189148763,0.6449919189148763,-0.7641893904880557,1029.8200264735442,1538.641861922154)" style="opacity: 1;"></path><path  d="M 642 1198 L 1036 1531" id="v-1552" fill="none" style="cursor: auto; pointer-events: visiblepainted;"></path><g ><g id="v-1545"  label-idx="0" cursor="move" transform="matrix(1,0,0,1,839,1364.5)" style="cursor: default; opacity: 1;"><rect joint-selector="rect" id="v-1548" fill="#ffffff" rx="3" ry="3" stroke="#ffffff" stroke-width="20px" pointer-events="none" width="126.31392669677734" height="31.61097812652588" transform="matrix(1,0,0,1,-63.2,-15.8)"></rect><text joint-selector="text" id="v-1547" font-size="24px" xml:space="preserve" y="0.8em" fill="#707070" text-anchor="middle" pointer-events="none" font-family="Open Sans" font-weight="normal" transform="matrix(1,0,0,1,0,-10)"><tspan dy="0" >Resolves to</tspan></text></g><g id="v-1546"  label-idx="1" cursor="move" transform="matrix(1,0,0,1,829,1391.5)" style="cursor: default; opacity: 1;"><rect joint-selector="rect" id="v-1550" fill="#ffffff" rx="3" ry="3"  width="0" height="0" transform="matrix(1,0,0,1,0,0)" display="none"></rect><text joint-selector="text" id="v-1549" fill="#000000" font-size="14" text-anchor="middle" pointer-events="none"></text></g></g><g  display="none" style="display: none;"></g><g  id="v-1555" display="none"><g  id="v-1543"><path  end="source" d="M 26 0 L 0 13 L 26 26 z"></path></g><g  id="v-1544"><path  end="target" d="M 26 0 L 0 13 L 26 26 z"></path></g></g><g  id="v-1554" display="none"><g  id="v-1542" transform="translate(672.5501520384526, 1223.820306164479) "><g  event="remove"><circle r="11"></circle><path transform="scale(.8) translate(-16, -16)" d="M24.778,21.419 19.276,15.917 24.777,10.415 21.949,7.585 16.447,13.087 10.945,7.585 8.117,10.415 13.618,15.917 8.116,21.419 10.946,24.248 16.447,18.746 21.948,24.248z"></path><title>Remove link.</title></g><g  event="link:options"><circle r="11" transform="translate(25)"></circle><path fill="white" transform="scale(.55) translate(29, -16)" d="M31.229,17.736c0.064-0.571,0.104-1.148,0.104-1.736s-0.04-1.166-0.104-1.737l-4.377-1.557c-0.218-0.716-0.504-1.401-0.851-2.05l1.993-4.192c-0.725-0.91-1.549-1.734-2.458-2.459l-4.193,1.994c-0.647-0.347-1.334-0.632-2.049-0.849l-1.558-4.378C17.165,0.708,16.588,0.667,16,0.667s-1.166,0.041-1.737,0.105L12.707,5.15c-0.716,0.217-1.401,0.502-2.05,0.849L6.464,4.005C5.554,4.73,4.73,5.554,4.005,6.464l1.994,4.192c-0.347,0.648-0.632,1.334-0.849,2.05l-4.378,1.557C0.708,14.834,0.667,15.412,0.667,16s0.041,1.165,0.105,1.736l4.378,1.558c0.217,0.715,0.502,1.401,0.849,2.049l-1.994,4.193c0.725,0.909,1.549,1.733,2.459,2.458l4.192-1.993c0.648,0.347,1.334,0.633,2.05,0.851l1.557,4.377c0.571,0.064,1.148,0.104,1.737,0.104c0.588,0,1.165-0.04,1.736-0.104l1.558-4.377c0.715-0.218,1.399-0.504,2.049-0.851l4.193,1.993c0.909-0.725,1.733-1.549,2.458-2.458l-1.993-4.193c0.347-0.647,0.633-1.334,0.851-2.049L31.229,17.736zM16,20.871c-2.69,0-4.872-2.182-4.872-4.871c0-2.69,2.182-4.872,4.872-4.872c2.689,0,4.871,2.182,4.871,4.872C20.871,18.689,18.689,20.871,16,20.871z"></path><title>Link options.</title></g></g></g></g><g   id="j_144" ><path  stroke="#707070" d="M 651 898 L 969 642" id="v-1565" stroke-width="2" stroke-dasharray="30 30" fill="none" style="opacity: 1;"></path><path  fill="black" stroke="black" d="M 0 0 0 0" transform="matrix(0.7796053606762402,-0.6262710927424879,0.6262710927424879,0.7796053606762402,650.719970703125,898)"></path><path  fill="#707070" stroke="#707070" d="M 20 0 L 0 10 L 20 20 z" id="v-1567" transform="matrix(-0.7796055274622931,0.6262708851209996,-0.6262708851209996,-0.7796055274622931,975.2626825828639,650.1160490601318)" style="opacity: 1;"></path><path  d="M 651 898 L 969 642" id="v-1566" fill="none" style="cursor: auto; pointer-events: visiblepainted;"></path><g ><g id="v-1559"  label-idx="0" cursor="move" transform="matrix(1,0,0,1,810,770)" style="cursor: default; opacity: 1;"><rect joint-selector="rect" id="v-1562" fill="#ffffff" rx="3" ry="3" stroke="#ffffff" stroke-width="20px" pointer-events="none" width="126.31392669677734" height="31.61097812652588" transform="matrix(1,0,0,1,-63.2,-15.8)"></rect><text joint-selector="text" id="v-1561" font-size="24px" xml:space="preserve" y="0.8em" fill="#707070" text-anchor="middle" pointer-events="none" font-family="Open Sans" font-weight="normal" transform="matrix(1,0,0,1,0,-10)"><tspan dy="0" >Resolves to</tspan></text></g><g id="v-1560"  label-idx="1" cursor="move" transform="matrix(1,0,0,1,800,797)" style="cursor: default; opacity: 1;"><rect joint-selector="rect" id="v-1564" fill="#ffffff" rx="3" ry="3"  width="0" height="0" transform="matrix(1,0,0,1,0,0)" display="none"></rect><text joint-selector="text" id="v-1563" fill="#000000" font-size="14" text-anchor="middle" pointer-events="none"></text></g></g><g  display="none" style="display: none;"></g><g  id="v-1569" display="none"><g  id="v-1557"><path  end="source" d="M 26 0 L 0 13 L 26 26 z"></path></g><g  id="v-1558"><path  end="target" d="M 26 0 L 0 13 L 26 26 z"></path></g></g><g  id="v-1568" display="none"><g  id="v-1556" transform="translate(682.1581326970877, 872.9167233633508) "><g  event="remove"><circle r="11"></circle><path transform="scale(.8) translate(-16, -16)" d="M24.778,21.419 19.276,15.917 24.777,10.415 21.949,7.585 16.447,13.087 10.945,7.585 8.117,10.415 13.618,15.917 8.116,21.419 10.946,24.248 16.447,18.746 21.948,24.248z"></path><title>Remove link.</title></g><g  event="link:options"><circle r="11" transform="translate(25)"></circle><path fill="white" transform="scale(.55) translate(29, -16)" d="M31.229,17.736c0.064-0.571,0.104-1.148,0.104-1.736s-0.04-1.166-0.104-1.737l-4.377-1.557c-0.218-0.716-0.504-1.401-0.851-2.05l1.993-4.192c-0.725-0.91-1.549-1.734-2.458-2.459l-4.193,1.994c-0.647-0.347-1.334-0.632-2.049-0.849l-1.558-4.378C17.165,0.708,16.588,0.667,16,0.667s-1.166,0.041-1.737,0.105L12.707,5.15c-0.716,0.217-1.401,0.502-2.05,0.849L6.464,4.005C5.554,4.73,4.73,5.554,4.005,6.464l1.994,4.192c-0.347,0.648-0.632,1.334-0.849,2.05l-4.378,1.557C0.708,14.834,0.667,15.412,0.667,16s0.041,1.165,0.105,1.736l4.378,1.558c0.217,0.715,0.502,1.401,0.849,2.049l-1.994,4.193c0.725,0.909,1.549,1.733,2.459,2.458l4.192-1.993c0.648,0.347,1.334,0.633,2.05,0.851l1.557,4.377c0.571,0.064,1.148,0.104,1.737,0.104c0.588,0,1.165-0.04,1.736-0.104l1.558-4.377c0.715-0.218,1.399-0.504,2.049-0.851l4.193,1.993c0.909-0.725,1.733-1.549,2.458-2.458l-1.993-4.193c0.347-0.647,0.633-1.334,0.851-2.049L31.229,17.736zM16,20.871c-2.69,0-4.872-2.182-4.872-4.871c0-2.69,2.182-4.872,4.872-4.872c2.689,0,4.871,2.182,4.871,4.872C20.871,18.689,18.689,20.871,16,20.871z"></path><title>Link options.</title></g></g></g></g><g   id="j_145" ><path  stroke="#707070" d="M 2939 1161 L 3239 1208" id="v-1582" stroke-width="2" stroke-dasharray="30 30" fill="none" style="opacity: 1;"></path><path  fill="black" stroke="black" d="M 0 0 0 0" transform="matrix(0.9879491648270892,0.1547787056330987,-0.1547787056330987,0.9879491648270892,2939,1160.75)"></path><path  fill="#707070" stroke="#707070" d="M 20 0 L 0 10 L 20 20 z" id="v-1584" transform="matrix(-0.9879491674033429,-0.1547786891889251,0.1547786891889251,-0.9879491674033429,3237.452310250894,1217.629549073735)" style="opacity: 1;"></path><path  d="M 2939 1161 L 3239 1208" id="v-1583" fill="none" style="cursor: auto; pointer-events: visiblepainted;"></path><g ><g id="v-1576"  label-idx="0" cursor="move" transform="matrix(1,0,0,1,3089,1184.5)" style="cursor: default; opacity: 1;"><rect joint-selector="rect" id="v-1579" fill="#ffffff" rx="3" ry="3" stroke="#ffffff" stroke-width="20px" pointer-events="none" width="177.4477996826172" height="60.41097831726074" transform="matrix(1,0,0,1,-88.7,-30.2)"></rect><text joint-selector="text" id="v-1578" font-size="24px" xml:space="preserve" y="0.8em" fill="#707070" text-anchor="middle" pointer-events="none" font-family="Open Sans" font-weight="normal" transform="matrix(1,0,0,1,0,-24.4)"><tspan dy="0" >Reads from and</tspan><tspan dy="1.2em" x="0" >writes to</tspan></text></g><g id="v-1577"  label-idx="1" cursor="move" transform="matrix(1,0,0,1,3079,1226.5)" style="cursor: default; opacity: 1;"><rect joint-selector="rect" id="v-1581" fill="#ffffff" rx="3" ry="3"  width="0" height="0" transform="matrix(1,0,0,1,0,0)" display="none"></rect><text joint-selector="text" id="v-1580" fill="#000000" font-size="14" text-anchor="middle" pointer-events="none"></text></g></g><g  display="none" style="display: none;"></g><g  id="v-1586" display="none"><g  id="v-1574"><path  end="source" d="M 26 0 L 0 13 L 26 26 z"></path></g><g  id="v-1575"><path  end="target" d="M 26 0 L 0 13 L 26 26 z"></path></g></g><g  id="v-1585" display="none"><g  id="v-1573" transform="translate(2978.5179666123113, 1167.1911481025954) "><g  event="remove"><circle r="11"></circle><path transform="scale(.8) translate(-16, -16)" d="M24.778,21.419 19.276,15.917 24.777,10.415 21.949,7.585 16.447,13.087 10.945,7.585 8.117,10.415 13.618,15.917 8.116,21.419 10.946,24.248 16.447,18.746 21.948,24.248z"></path><title>Remove link.</title></g><g  event="link:options"><circle r="11" transform="translate(25)"></circle><path fill="white" transform="scale(.55) translate(29, -16)" d="M31.229,17.736c0.064-0.571,0.104-1.148,0.104-1.736s-0.04-1.166-0.104-1.737l-4.377-1.557c-0.218-0.716-0.504-1.401-0.851-2.05l1.993-4.192c-0.725-0.91-1.549-1.734-2.458-2.459l-4.193,1.994c-0.647-0.347-1.334-0.632-2.049-0.849l-1.558-4.378C17.165,0.708,16.588,0.667,16,0.667s-1.166,0.041-1.737,0.105L12.707,5.15c-0.716,0.217-1.401,0.502-2.05,0.849L6.464,4.005C5.554,4.73,4.73,5.554,4.005,6.464l1.994,4.192c-0.347,0.648-0.632,1.334-0.849,2.05l-4.378,1.557C0.708,14.834,0.667,15.412,0.667,16s0.041,1.165,0.105,1.736l4.378,1.558c0.217,0.715,0.502,1.401,0.849,2.049l-1.994,4.193c0.725,0.909,1.549,1.733,2.459,2.458l4.192-1.993c0.648,0.347,1.334,0.633,2.05,0.851l1.557,4.377c0.571,0.064,1.148,0.104,1.737,0.104c0.588,0,1.165-0.04,1.736-0.104l1.558-4.377c0.715-0.218,1.399-0.504,2.049-0.851l4.193,1.993c0.909-0.725,1.733-1.549,2.458-2.458l-1.993-4.193c0.347-0.647,0.633-1.334,0.851-2.049L31.229,17.736zM16,20.871c-2.69,0-4.872-2.182-4.872-4.871c0-2.69,2.182-4.872,4.872-4.872c2.689,0,4.871,2.182,4.871,4.872C20.871,18.689,18.689,20.871,16,20.871z"></path><title>Link options.</title></g></g></g></g><g   id="j_146" ><path  stroke="#707070" d="M 2189 1126 L 2489 1126" id="v-1596" stroke-width="2" stroke-dasharray="30 30" fill="none" style="opacity: 1;"></path><path  fill="black" stroke="black" d="M 0 0 0 0" transform="matrix(1.0000000000000002,0,0,1.0000000000000002,2189,1125.5)"></path><path  fill="#707070" stroke="#707070" d="M 20 0 L 0 10 L 20 20 z" id="v-1598" transform="matrix(-1.0000000000000002,1.2246467991473535e-16,-1.2246467991473535e-16,-1.0000000000000002,2489,1135.5)" style="opacity: 1;"></path><path  d="M 2189 1126 L 2489 1126" id="v-1597" fill="none" style="cursor: auto; pointer-events: visiblepainted;"></path><g ><g id="v-1590"  label-idx="0" cursor="move" transform="matrix(1,0,0,1,2339,1126)" style="cursor: default; opacity: 1;"><rect joint-selector="rect" id="v-1593" fill="#ffffff" rx="3" ry="3" stroke="#ffffff" stroke-width="20px" pointer-events="none" width="111.41829681396484" height="31.61097812652588" transform="matrix(1,0,0,1,-55.7,-15.8)"></rect><text joint-selector="text" id="v-1592" font-size="24px" xml:space="preserve" y="0.8em" fill="#707070" text-anchor="middle" pointer-events="none" font-family="Open Sans" font-weight="normal" transform="matrix(1,0,0,1,0,-10)"><tspan dy="0" >Proxies to</tspan></text></g><g id="v-1591"  label-idx="1" cursor="move" transform="matrix(1,0,0,1,2329,1153)" style="cursor: default; opacity: 1;"><rect joint-selector="rect" id="v-1595" fill="#ffffff" rx="3" ry="3"  width="0" height="0" transform="matrix(1,0,0,1,0,0)" display="none"></rect><text joint-selector="text" id="v-1594" fill="#000000" font-size="14" text-anchor="middle" pointer-events="none"></text></g></g><g  display="none" style="display: none;"></g><g  id="v-1600" display="none"><g  id="v-1588"><path  end="source" d="M 26 0 L 0 13 L 26 26 z"></path></g><g  id="v-1589"><path  end="target" d="M 26 0 L 0 13 L 26 26 z"></path></g></g><g  id="v-1599" display="none"><g  id="v-1587" transform="translate(2229, 1126) "><g  event="remove"><circle r="11"></circle><path transform="scale(.8) translate(-16, -16)" d="M24.778,21.419 19.276,15.917 24.777,10.415 21.949,7.585 16.447,13.087 10.945,7.585 8.117,10.415 13.618,15.917 8.116,21.419 10.946,24.248 16.447,18.746 21.948,24.248z"></path><title>Remove link.</title></g><g  event="link:options"><circle r="11" transform="translate(25)"></circle><path fill="white" transform="scale(.55) translate(29, -16)" d="M31.229,17.736c0.064-0.571,0.104-1.148,0.104-1.736s-0.04-1.166-0.104-1.737l-4.377-1.557c-0.218-0.716-0.504-1.401-0.851-2.05l1.993-4.192c-0.725-0.91-1.549-1.734-2.458-2.459l-4.193,1.994c-0.647-0.347-1.334-0.632-2.049-0.849l-1.558-4.378C17.165,0.708,16.588,0.667,16,0.667s-1.166,0.041-1.737,0.105L12.707,5.15c-0.716,0.217-1.401,0.502-2.05,0.849L6.464,4.005C5.554,4.73,4.73,5.554,4.005,6.464l1.994,4.192c-0.347,0.648-0.632,1.334-0.849,2.05l-4.378,1.557C0.708,14.834,0.667,15.412,0.667,16s0.041,1.165,0.105,1.736l4.378,1.558c0.217,0.715,0.502,1.401,0.849,2.049l-1.994,4.193c0.725,0.909,1.549,1.733,2.459,2.458l4.192-1.993c0.648,0.347,1.334,0.633,2.05,0.851l1.557,4.377c0.571,0.064,1.148,0.104,1.737,0.104c0.588,0,1.165-0.04,1.736-0.104l1.558-4.377c0.715-0.218,1.399-0.504,2.049-0.851l4.193,1.993c0.909-0.725,1.733-1.549,2.458-2.458l-1.993-4.193c0.347-0.647,0.633-1.334,0.851-2.049L31.229,17.736zM16,20.871c-2.69,0-4.872-2.182-4.872-4.871c0-2.69,2.182-4.872,4.872-4.872c2.689,0,4.871,2.182,4.871,4.872C20.871,18.689,18.689,20.871,16,20.871z"></path><title>Link options.</title></g></g></g></g><g   id="j_147" ><path  stroke="#707070" d="M 2189 1835 L 2480 1977 C 2486 1979.6666666666665 2492.333333333333 1980.9999999999998 2499 1981 L 2929 1981 C 2935.6666666666665 1980.9999999999998 2942.333333333333 1980.9999999999998 2949 1981 L 3239 1968" id="v-1615" stroke-width="2" stroke-dasharray="30 30" fill="none" style="opacity: 1;"></path><path  fill="black" stroke="black" d="M 0 0 0 0" transform="matrix(0.8991713400299776,0.43759673361291773,-0.43759673361291773,0.8991713400299776,2189,1835)"></path><path  fill="#707070" stroke="#707070" d="M 20 0 L 0 10 L 20 20 z" id="v-1617" transform="matrix(-0.9990824900491954,0.04282730527478895,-0.04282730527478895,-0.9990824900491954,3239.4283752969895,1978.1307891524316)" style="opacity: 1;"></path><path  d="M 2189 1835 L 2480 1977 C 2486 1979.6666666666665 2492.333333333333 1980.9999999999998 2499 1981 L 2929 1981 C 2935.6666666666665 1980.9999999999998 2942.333333333333 1980.9999999999998 2949 1981 L 3239 1968" id="v-1616" fill="none" style="cursor: auto; pointer-events: visiblepainted;"></path><g ><g id="v-1609"  label-idx="0" cursor="move" transform="matrix(1,0,0,1,2697.46728515625,1981)" style="cursor: default; opacity: 1;"><rect joint-selector="rect" id="v-1612" fill="#ffffff" rx="3" ry="3" stroke="#ffffff" stroke-width="20px" pointer-events="none" width="156.096435546875" height="60.41097831726074" transform="matrix(1,0,0,1,-78.8,-30.2)"></rect><text joint-selector="text" id="v-1611" font-size="24px" xml:space="preserve" y="0.8em" fill="#707070" text-anchor="middle" pointer-events="none" font-family="Open Sans" font-weight="normal" transform="matrix(1,0,0,1,0,-24.4)"><tspan dy="0" >Authenticates</tspan><tspan dy="1.2em" x="0" >with</tspan></text></g><g id="v-1610"  label-idx="1" cursor="move" transform="matrix(1,0,0,1,2687.46728515625,2023)" style="cursor: default; opacity: 1;"><rect joint-selector="rect" id="v-1614" fill="#ffffff" rx="3" ry="3"  width="0" height="0" transform="matrix(1,0,0,1,0,0)" display="none"></rect><text joint-selector="text" id="v-1613" fill="#000000" font-size="14" text-anchor="middle" pointer-events="none"></text></g></g><g  display="none" style="display: none;"><g  transform="translate(2489, 1981)" id="v-1605"><circle  idx="0" r="10"></circle><path  idx="0" d="M16,5.333c-7.732,0-14,4.701-14,10.5c0,1.982,0.741,3.833,2.016,5.414L2,25.667l5.613-1.441c2.339,1.317,5.237,2.107,8.387,2.107c7.732,0,14-4.701,14-10.5C30,10.034,23.732,5.333,16,5.333z" transform="translate(5, -33)"></path><path  idx="0" transform="scale(.8) translate(9.5, -37)" d="M24.778,21.419 19.276,15.917 24.777,10.415 21.949,7.585 16.447,13.087 10.945,7.585 8.117,10.415 13.618,15.917 8.116,21.419 10.946,24.248 16.447,18.746 21.948,24.248z"><title>Remove vertex.</title></path></g><g  transform="translate(2939, 1981)" id="v-1606"><circle  idx="1" r="10"></circle><path  idx="1" d="M16,5.333c-7.732,0-14,4.701-14,10.5c0,1.982,0.741,3.833,2.016,5.414L2,25.667l5.613-1.441c2.339,1.317,5.237,2.107,8.387,2.107c7.732,0,14-4.701,14-10.5C30,10.034,23.732,5.333,16,5.333z" transform="translate(5, -33)"></path><path  idx="1" transform="scale(.8) translate(9.5, -37)" d="M24.778,21.419 19.276,15.917 24.777,10.415 21.949,7.585 16.447,13.087 10.945,7.585 8.117,10.415 13.618,15.917 8.116,21.419 10.946,24.248 16.447,18.746 21.948,24.248z"><title>Remove vertex.</title></path></g></g><g  id="v-1619" display="none"><g  id="v-1607"><path  end="source" d="M 26 0 L 0 13 L 26 26 z"></path></g><g  id="v-1608"><path  end="target" d="M 26 0 L 0 13 L 26 26 z"></path></g></g><g  id="v-1618" display="none"><g  id="v-1604" transform="translate(2224.9483629860033, 1852.5418128660224) "><g  event="remove"><circle r="11"></circle><path transform="scale(.8) translate(-16, -16)" d="M24.778,21.419 19.276,15.917 24.777,10.415 21.949,7.585 16.447,13.087 10.945,7.585 8.117,10.415 13.618,15.917 8.116,21.419 10.946,24.248 16.447,18.746 21.948,24.248z"></path><title>Remove link.</title></g><g  event="link:options"><circle r="11" transform="translate(25)"></circle><path fill="white" transform="scale(.55) translate(29, -16)" d="M31.229,17.736c0.064-0.571,0.104-1.148,0.104-1.736s-0.04-1.166-0.104-1.737l-4.377-1.557c-0.218-0.716-0.504-1.401-0.851-2.05l1.993-4.192c-0.725-0.91-1.549-1.734-2.458-2.459l-4.193,1.994c-0.647-0.347-1.334-0.632-2.049-0.849l-1.558-4.378C17.165,0.708,16.588,0.667,16,0.667s-1.166,0.041-1.737,0.105L12.707,5.15c-0.716,0.217-1.401,0.502-2.05,0.849L6.464,4.005C5.554,4.73,4.73,5.554,4.005,6.464l1.994,4.192c-0.347,0.648-0.632,1.334-0.849,2.05l-4.378,1.557C0.708,14.834,0.667,15.412,0.667,16s0.041,1.165,0.105,1.736l4.378,1.558c0.217,0.715,0.502,1.401,0.849,2.049l-1.994,4.193c0.725,0.909,1.549,1.733,2.459,2.458l4.192-1.993c0.648,0.347,1.334,0.633,2.05,0.851l1.557,4.377c0.571,0.064,1.148,0.104,1.737,0.104c0.588,0,1.165-0.04,1.736-0.104l1.558-4.377c0.715-0.218,1.399-0.504,2.049-0.851l4.193,1.993c0.909-0.725,1.733-1.549,2.458-2.458l-1.993-4.193c0.347-0.647,0.633-1.334,0.851-2.049L31.229,17.736zM16,20.871c-2.69,0-4.872-2.182-4.872-4.871c0-2.69,2.182-4.872,4.872-4.872c2.689,0,4.871,2.182,4.871,4.872C20.871,18.689,18.689,20.871,16,20.871z"></path><title>Link options.</title></g></g></g></g><g   id="j_148" ><path  stroke="#707070" d="M 2939 1795 L 3239 1889" id="v-1632" stroke-width="2" stroke-dasharray="30 30" fill="none" style="opacity: 1;"></path><path  fill="black" stroke="black" d="M 0 0 0 0" transform="matrix(0.954977091204417,0.29667954980879807,-0.29667954980879807,0.954977091204417,2939,1795.4000244140625)"></path><path  fill="#707070" stroke="#707070" d="M 20 0 L 0 10 L 20 20 z" id="v-1634" transform="matrix(-0.9549771307096803,-0.29667942264590375,0.29667942264590375,-0.9549771307096803,3236.0331723931376,1898.1497442444931)" style="opacity: 1;"></path><path  d="M 2939 1795 L 3239 1889" id="v-1633" fill="none" style="cursor: auto; pointer-events: visiblepainted;"></path><g ><g id="v-1626"  label-idx="0" cursor="move" transform="matrix(1,0,0,1,3089,1842)" style="cursor: default; opacity: 1;"><rect joint-selector="rect" id="v-1629" fill="#ffffff" rx="3" ry="3" stroke="#ffffff" stroke-width="20px" pointer-events="none" width="197.3086395263672" height="60.41097831726074" transform="matrix(1,0,0,1,-98.7,-30.2)"></rect><text joint-selector="text" id="v-1628" font-size="24px" xml:space="preserve" y="0.8em" fill="#707070" text-anchor="middle" pointer-events="none" font-family="Open Sans" font-weight="normal" transform="matrix(1,0,0,1,0,-24.4)"><tspan dy="0" >Fetches user data</tspan><tspan dy="1.2em" x="0" >from</tspan></text></g><g id="v-1627"  label-idx="1" cursor="move" transform="matrix(1,0,0,1,3079,1884)" style="cursor: default; opacity: 1;"><rect joint-selector="rect" id="v-1631" fill="#ffffff" rx="3" ry="3"  width="0" height="0" transform="matrix(1,0,0,1,0,0)" display="none"></rect><text joint-selector="text" id="v-1630" fill="#000000" font-size="14" text-anchor="middle" pointer-events="none"></text></g></g><g  display="none" style="display: none;"></g><g  id="v-1636" display="none"><g  id="v-1624"><path  end="source" d="M 26 0 L 0 13 L 26 26 z"></path></g><g  id="v-1625"><path  end="target" d="M 26 0 L 0 13 L 26 26 z"></path></g></g><g  id="v-1635" display="none"><g  id="v-1623" transform="translate(2977.1701323392062, 1806.959974799618) "><g  event="remove"><circle r="11"></circle><path transform="scale(.8) translate(-16, -16)" d="M24.778,21.419 19.276,15.917 24.777,10.415 21.949,7.585 16.447,13.087 10.945,7.585 8.117,10.415 13.618,15.917 8.116,21.419 10.946,24.248 16.447,18.746 21.948,24.248z"></path><title>Remove link.</title></g><g  event="link:options"><circle r="11" transform="translate(25)"></circle><path fill="white" transform="scale(.55) translate(29, -16)" d="M31.229,17.736c0.064-0.571,0.104-1.148,0.104-1.736s-0.04-1.166-0.104-1.737l-4.377-1.557c-0.218-0.716-0.504-1.401-0.851-2.05l1.993-4.192c-0.725-0.91-1.549-1.734-2.458-2.459l-4.193,1.994c-0.647-0.347-1.334-0.632-2.049-0.849l-1.558-4.378C17.165,0.708,16.588,0.667,16,0.667s-1.166,0.041-1.737,0.105L12.707,5.15c-0.716,0.217-1.401,0.502-2.05,0.849L6.464,4.005C5.554,4.73,4.73,5.554,4.005,6.464l1.994,4.192c-0.347,0.648-0.632,1.334-0.849,2.05l-4.378,1.557C0.708,14.834,0.667,15.412,0.667,16s0.041,1.165,0.105,1.736l4.378,1.558c0.217,0.715,0.502,1.401,0.849,2.049l-1.994,4.193c0.725,0.909,1.549,1.733,2.459,2.458l4.192-1.993c0.648,0.347,1.334,0.633,2.05,0.851l1.557,4.377c0.571,0.064,1.148,0.104,1.737,0.104c0.588,0,1.165-0.04,1.736-0.104l1.558-4.377c0.715-0.218,1.399-0.504,2.049-0.851l4.193,1.993c0.909-0.725,1.733-1.549,2.458-2.458l-1.993-4.193c0.347-0.647,0.633-1.334,0.851-2.049L31.229,17.736zM16,20.871c-2.69,0-4.872-2.182-4.872-4.871c0-2.69,2.182-4.872,4.872-4.872c2.689,0,4.871,2.182,4.871,4.872C20.871,18.689,18.689,20.871,16,20.871z"></path><title>Link options.</title></g></g></g></g><g   id="j_149" ><path  stroke="#707070" d="M 2189 1306 L 2489 1546" id="v-1646" stroke-width="2" stroke-dasharray="30 30" fill="none" style="opacity: 1;"></path><path  fill="black" stroke="black" d="M 0 0 0 0" transform="matrix(0.7808688000832674,0.6246950592541282,-0.6246950592541282,0.7808688000832674,2189,1305.5)"></path><path  fill="#707070" stroke="#707070" d="M 20 0 L 0 10 L 20 20 z" id="v-1648" transform="matrix(-0.780868841674855,-0.6246950072646417,0.6246950072646417,-0.780868841674855,2482.753144594102,1553.3086902472073)" style="opacity: 1;"></path><path  d="M 2189 1306 L 2489 1546" id="v-1647" fill="none" style="cursor: auto; pointer-events: visiblepainted;"></path><g ><g id="v-1640"  label-idx="0" cursor="move" transform="matrix(1,0,0,1,2339,1426)" style="cursor: default; opacity: 1;"><rect joint-selector="rect" id="v-1643" fill="#ffffff" rx="3" ry="3" stroke="#ffffff" stroke-width="20px" pointer-events="none" width="111.41829681396484" height="31.61097812652588" transform="matrix(1,0,0,1,-55.7,-15.8)"></rect><text joint-selector="text" id="v-1642" font-size="24px" xml:space="preserve" y="0.8em" fill="#707070" text-anchor="middle" pointer-events="none" font-family="Open Sans" font-weight="normal" transform="matrix(1,0,0,1,0,-10)"><tspan dy="0" >Proxies to</tspan></text></g><g id="v-1641"  label-idx="1" cursor="move" transform="matrix(1,0,0,1,2329,1453)" style="cursor: default; opacity: 1;"><rect joint-selector="rect" id="v-1645" fill="#ffffff" rx="3" ry="3"  width="0" height="0" transform="matrix(1,0,0,1,0,0)" display="none"></rect><text joint-selector="text" id="v-1644" fill="#000000" font-size="14" text-anchor="middle" pointer-events="none"></text></g></g><g  display="none" style="display: none;"></g><g  id="v-1650" display="none"><g  id="v-1638"><path  end="source" d="M 26 0 L 0 13 L 26 26 z"></path></g><g  id="v-1639"><path  end="target" d="M 26 0 L 0 13 L 26 26 z"></path></g></g><g  id="v-1649" display="none"><g  id="v-1637" transform="translate(2220.234752377721, 1330.987801902177) "><g  event="remove"><circle r="11"></circle><path transform="scale(.8) translate(-16, -16)" d="M24.778,21.419 19.276,15.917 24.777,10.415 21.949,7.585 16.447,13.087 10.945,7.585 8.117,10.415 13.618,15.917 8.116,21.419 10.946,24.248 16.447,18.746 21.948,24.248z"></path><title>Remove link.</title></g><g  event="link:options"><circle r="11" transform="translate(25)"></circle><path fill="white" transform="scale(.55) translate(29, -16)" d="M31.229,17.736c0.064-0.571,0.104-1.148,0.104-1.736s-0.04-1.166-0.104-1.737l-4.377-1.557c-0.218-0.716-0.504-1.401-0.851-2.05l1.993-4.192c-0.725-0.91-1.549-1.734-2.458-2.459l-4.193,1.994c-0.647-0.347-1.334-0.632-2.049-0.849l-1.558-4.378C17.165,0.708,16.588,0.667,16,0.667s-1.166,0.041-1.737,0.105L12.707,5.15c-0.716,0.217-1.401,0.502-2.05,0.849L6.464,4.005C5.554,4.73,4.73,5.554,4.005,6.464l1.994,4.192c-0.347,0.648-0.632,1.334-0.849,2.05l-4.378,1.557C0.708,14.834,0.667,15.412,0.667,16s0.041,1.165,0.105,1.736l4.378,1.558c0.217,0.715,0.502,1.401,0.849,2.049l-1.994,4.193c0.725,0.909,1.549,1.733,2.459,2.458l4.192-1.993c0.648,0.347,1.334,0.633,2.05,0.851l1.557,4.377c0.571,0.064,1.148,0.104,1.737,0.104c0.588,0,1.165-0.04,1.736-0.104l1.558-4.377c0.715-0.218,1.399-0.504,2.049-0.851l4.193,1.993c0.909-0.725,1.733-1.549,2.458-2.458l-1.993-4.193c0.347-0.647,0.633-1.334,0.851-2.049L31.229,17.736zM16,20.871c-2.69,0-4.872-2.182-4.872-4.871c0-2.69,2.182-4.872,4.872-4.872c2.689,0,4.871,2.182,4.871,4.872C20.871,18.689,18.689,20.871,16,20.871z"></path><title>Link options.</title></g></g></g></g><g   id="j_150" ><path  stroke="#707070" d="M 1388 560 L 1535 686 C 1540.333333333333 690.6666666666666 1545.333333333333 695.3333333333333 1550 700 L 1775 931" id="v-1664" stroke-width="2" stroke-dasharray="30 30" fill="none" style="opacity: 1;"></path><path  fill="black" stroke="black" d="M 0 0 0 0" transform="matrix(0.7581202171115813,0.6521148184228674,-0.6521148184228674,0.7581202171115813,1388.3800048828125,560)"></path><path  fill="#707070" stroke="#707070" d="M 20 0 L 0 10 L 20 20 z" id="v-1666" transform="matrix(-0.6975134201704655,-0.7165717191475672,0.7165717191475672,-0.6975134201704655,1767.5042412289788,937.9751409439614)" style="opacity: 1;"></path><path  d="M 1388 560 L 1535 686 C 1540.333333333333 690.6666666666666 1545.333333333333 695.3333333333333 1550 700 L 1775 931" id="v-1665" fill="none" style="cursor: auto; pointer-events: visiblepainted;"></path><g ><g id="v-1658"  label-idx="0" cursor="move" transform="matrix(1,0,0,1,1587.79541015625,738.8032836914062)" style="cursor: default; opacity: 1;"><rect joint-selector="rect" id="v-1661" fill="#ffffff" rx="3" ry="3" stroke="#ffffff" stroke-width="20px" pointer-events="none" width="183.296875" height="31.61097812652588" transform="matrix(1,0,0,1,-91.6,-15.8)"></rect><text joint-selector="text" id="v-1660" font-size="24px" xml:space="preserve" y="0.8em" fill="#707070" text-anchor="middle" pointer-events="none" font-family="Open Sans" font-weight="normal" transform="matrix(1,0,0,1,0,-10)"><tspan dy="0" >Loads data from</tspan></text></g><g id="v-1659"  label-idx="1" cursor="move" transform="matrix(1,0,0,1,1577.79541015625,765.8032836914062)" style="cursor: default; opacity: 1;"><rect joint-selector="rect" id="v-1663" fill="#ffffff" rx="3" ry="3"  width="0" height="0" transform="matrix(1,0,0,1,0,0)" display="none"></rect><text joint-selector="text" id="v-1662" fill="#000000" font-size="14" text-anchor="middle" pointer-events="none"></text></g></g><g  display="none" style="display: none;"><g  transform="translate(1543, 693)" id="v-1655"><circle  idx="0" r="10"></circle><path  idx="0" d="M16,5.333c-7.732,0-14,4.701-14,10.5c0,1.982,0.741,3.833,2.016,5.414L2,25.667l5.613-1.441c2.339,1.317,5.237,2.107,8.387,2.107c7.732,0,14-4.701,14-10.5C30,10.034,23.732,5.333,16,5.333z" transform="translate(5, -33)"></path><path  idx="0" transform="scale(.8) translate(9.5, -37)" d="M24.778,21.419 19.276,15.917 24.777,10.415 21.949,7.585 16.447,13.087 10.945,7.585 8.117,10.415 13.618,15.917 8.116,21.419 10.946,24.248 16.447,18.746 21.948,24.248z"><title>Remove vertex.</title></path></g></g><g  id="v-1668" display="none"><g  id="v-1656"><path  end="source" d="M 26 0 L 0 13 L 26 26 z"></path></g><g  id="v-1657"><path  end="target" d="M 26 0 L 0 13 L 26 26 z"></path></g></g><g  id="v-1667" display="none"><g  id="v-1654" transform="translate(1418.370264094612, 586.0316549382387) "><g  event="remove"><circle r="11"></circle><path transform="scale(.8) translate(-16, -16)" d="M24.778,21.419 19.276,15.917 24.777,10.415 21.949,7.585 16.447,13.087 10.945,7.585 8.117,10.415 13.618,15.917 8.116,21.419 10.946,24.248 16.447,18.746 21.948,24.248z"></path><title>Remove link.</title></g><g  event="link:options"><circle r="11" transform="translate(25)"></circle><path fill="white" transform="scale(.55) translate(29, -16)" d="M31.229,17.736c0.064-0.571,0.104-1.148,0.104-1.736s-0.04-1.166-0.104-1.737l-4.377-1.557c-0.218-0.716-0.504-1.401-0.851-2.05l1.993-4.192c-0.725-0.91-1.549-1.734-2.458-2.459l-4.193,1.994c-0.647-0.347-1.334-0.632-2.049-0.849l-1.558-4.378C17.165,0.708,16.588,0.667,16,0.667s-1.166,0.041-1.737,0.105L12.707,5.15c-0.716,0.217-1.401,0.502-2.05,0.849L6.464,4.005C5.554,4.73,4.73,5.554,4.005,6.464l1.994,4.192c-0.347,0.648-0.632,1.334-0.849,2.05l-4.378,1.557C0.708,14.834,0.667,15.412,0.667,16s0.041,1.165,0.105,1.736l4.378,1.558c0.217,0.715,0.502,1.401,0.849,2.049l-1.994,4.193c0.725,0.909,1.549,1.733,2.459,2.458l4.192-1.993c0.648,0.347,1.334,0.633,2.05,0.851l1.557,4.377c0.571,0.064,1.148,0.104,1.737,0.104c0.588,0,1.165-0.04,1.736-0.104l1.558-4.377c0.715-0.218,1.399-0.504,2.049-0.851l4.193,1.993c0.909-0.725,1.733-1.549,2.458-2.458l-1.993-4.193c0.347-0.647,0.633-1.334,0.851-2.049L31.229,17.736zM16,20.871c-2.69,0-4.872-2.182-4.872-4.871c0-2.69,2.182-4.872,4.872-4.872c2.689,0,4.871,2.182,4.871,4.872C20.871,18.689,18.689,20.871,16,20.871z"></path><title>Link options.</title></g></g></g></g><g   id="j_151" ><path  stroke="#707070" d="M 1388 560 L 1535 686 C 1540.333333333333 690.6666666666666 1543.9999999999998 696.3333333333333 1546 703 L 1736 1371 C 1738 1377.6666666666665 1740.6666666666665 1383.6666666666665 1744 1389 L 1837 1531" id="v-1683" stroke-width="2" stroke-dasharray="30 30" fill="none" style="opacity: 1;"></path><path  fill="black" stroke="black" d="M 0 0 0 0" transform="matrix(0.7581202171115813,0.6521148184228674,-0.6521148184228674,0.7581202171115813,1388.3800048828125,560)"></path><path  fill="#707070" stroke="#707070" d="M 20 0 L 0 10 L 20 20 z" id="v-1685" transform="matrix(-0.546831150485603,-0.8372429115009528,0.8372429115009528,-0.546831150485603,1828.5975913742213,1536.4683040964278)" style="opacity: 1;"></path><path  d="M 1388 560 L 1535 686 C 1540.333333333333 690.6666666666666 1543.9999999999998 696.3333333333333 1546 703 L 1736 1371 C 1738 1377.6666666666665 1740.6666666666665 1383.6666666666665 1744 1389 L 1837 1531" id="v-1684" fill="none" style="cursor: auto; pointer-events: visiblepainted;"></path><g ><g id="v-1677"  label-idx="0" cursor="move" transform="matrix(1,0,0,1,1637.63037109375,1025.1529541015625)" style="cursor: default; opacity: 1;"><rect joint-selector="rect" id="v-1680" fill="#ffffff" rx="3" ry="3" stroke="#ffffff" stroke-width="20px" pointer-events="none" width="156.096435546875" height="60.41097831726074" transform="matrix(1,0,0,1,-78.8,-30.2)"></rect><text joint-selector="text" id="v-1679" font-size="24px" xml:space="preserve" y="0.8em" fill="#707070" text-anchor="middle" pointer-events="none" font-family="Open Sans" font-weight="normal" transform="matrix(1,0,0,1,0,-24.4)"><tspan dy="0" >Authenticates</tspan><tspan dy="1.2em" x="0" >with</tspan></text></g><g id="v-1678"  label-idx="1" cursor="move" transform="matrix(1,0,0,1,1627.63037109375,1067.1529541015625)" style="cursor: default; opacity: 1;"><rect joint-selector="rect" id="v-1682" fill="#ffffff" rx="3" ry="3"  width="0" height="0" transform="matrix(1,0,0,1,0,0)" display="none"></rect><text joint-selector="text" id="v-1681" fill="#000000" font-size="14" text-anchor="middle" pointer-events="none"></text></g></g><g  display="none" style="display: none;"><g  transform="translate(1543, 693)" id="v-1673"><circle  idx="0" r="10"></circle><path  idx="0" d="M16,5.333c-7.732,0-14,4.701-14,10.5c0,1.982,0.741,3.833,2.016,5.414L2,25.667l5.613-1.441c2.339,1.317,5.237,2.107,8.387,2.107c7.732,0,14-4.701,14-10.5C30,10.034,23.732,5.333,16,5.333z" transform="translate(5, -33)"></path><path  idx="0" transform="scale(.8) translate(9.5, -37)" d="M24.778,21.419 19.276,15.917 24.777,10.415 21.949,7.585 16.447,13.087 10.945,7.585 8.117,10.415 13.618,15.917 8.116,21.419 10.946,24.248 16.447,18.746 21.948,24.248z"><title>Remove vertex.</title></path></g><g  transform="translate(1739, 1381)" id="v-1674"><circle  idx="1" r="10"></circle><path  idx="1" d="M16,5.333c-7.732,0-14,4.701-14,10.5c0,1.982,0.741,3.833,2.016,5.414L2,25.667l5.613-1.441c2.339,1.317,5.237,2.107,8.387,2.107c7.732,0,14-4.701,14-10.5C30,10.034,23.732,5.333,16,5.333z" transform="translate(5, -33)"></path><path  idx="1" transform="scale(.8) translate(9.5, -37)" d="M24.778,21.419 19.276,15.917 24.777,10.415 21.949,7.585 16.447,13.087 10.945,7.585 8.117,10.415 13.618,15.917 8.116,21.419 10.946,24.248 16.447,18.746 21.948,24.248z"><title>Remove vertex.</title></path></g></g><g  id="v-1687" display="none"><g  id="v-1675"><path  end="source" d="M 26 0 L 0 13 L 26 26 z"></path></g><g  id="v-1676"><path  end="target" d="M 26 0 L 0 13 L 26 26 z"></path></g></g><g  id="v-1686" display="none"><g  id="v-1672" transform="translate(1418.370264094612, 586.0316549382387) "><g  event="remove"><circle r="11"></circle><path transform="scale(.8) translate(-16, -16)" d="M24.778,21.419 19.276,15.917 24.777,10.415 21.949,7.585 16.447,13.087 10.945,7.585 8.117,10.415 13.618,15.917 8.116,21.419 10.946,24.248 16.447,18.746 21.948,24.248z"></path><title>Remove link.</title></g><g  event="link:options"><circle r="11" transform="translate(25)"></circle><path fill="white" transform="scale(.55) translate(29, -16)" d="M31.229,17.736c0.064-0.571,0.104-1.148,0.104-1.736s-0.04-1.166-0.104-1.737l-4.377-1.557c-0.218-0.716-0.504-1.401-0.851-2.05l1.993-4.192c-0.725-0.91-1.549-1.734-2.458-2.459l-4.193,1.994c-0.647-0.347-1.334-0.632-2.049-0.849l-1.558-4.378C17.165,0.708,16.588,0.667,16,0.667s-1.166,0.041-1.737,0.105L12.707,5.15c-0.716,0.217-1.401,0.502-2.05,0.849L6.464,4.005C5.554,4.73,4.73,5.554,4.005,6.464l1.994,4.192c-0.347,0.648-0.632,1.334-0.849,2.05l-4.378,1.557C0.708,14.834,0.667,15.412,0.667,16s0.041,1.165,0.105,1.736l4.378,1.558c0.217,0.715,0.502,1.401,0.849,2.049l-1.994,4.193c0.725,0.909,1.549,1.733,2.459,2.458l4.192-1.993c0.648,0.347,1.334,0.633,2.05,0.851l1.557,4.377c0.571,0.064,1.148,0.104,1.737,0.104c0.588,0,1.165-0.04,1.736-0.104l1.558-4.377c0.715-0.218,1.399-0.504,2.049-0.851l4.193,1.993c0.909-0.725,1.733-1.549,2.458-2.458l-1.993-4.193c0.347-0.647,0.633-1.334,0.851-2.049L31.229,17.736zM16,20.871c-2.69,0-4.872-2.182-4.872-4.871c0-2.69,2.182-4.872,4.872-4.872c2.689,0,4.871,2.182,4.871,4.872C20.871,18.689,18.689,20.871,16,20.871z"></path><title>Link options.</title></g></g></g></g><g   id="j_152" ><path  stroke="#707070" d="M 2571 911 L 2664 631" id="v-1700" stroke-width="2" stroke-dasharray="30 30" fill="none" style="opacity: 1;"></path><path  fill="black" stroke="black" d="M 0 0 0 0" transform="matrix(0.31585159484841185,-0.9488086055847698,0.9488086055847698,0.31585159484841185,2570.860107421875,911)"></path><path  fill="#707070" stroke="#707070" d="M 20 0 L 0 10 L 20 20 z" id="v-1702" transform="matrix(-0.3158515948484124,0.9488086055847695,-0.9488086055847695,-0.3158515948484124,2673.5579789574567,634.1585280371679)" style="opacity: 1;"></path><path  d="M 2571 911 L 2664 631" id="v-1701" fill="none" style="cursor: auto; pointer-events: visiblepainted;"></path><g ><g id="v-1694"  label-idx="0" cursor="move" transform="matrix(1,0,0,1,2617.5,771)" style="cursor: default; opacity: 1;"><rect joint-selector="rect" id="v-1697" fill="#ffffff" rx="3" ry="3" stroke="#ffffff" stroke-width="20px" pointer-events="none" width="190.84100341796875" height="60.41097831726074" transform="matrix(1,0,0,1,-95.3,-30.2)"></rect><text joint-selector="text" id="v-1696" font-size="24px" xml:space="preserve" y="0.8em" fill="#707070" text-anchor="middle" pointer-events="none" font-family="Open Sans" font-weight="normal" transform="matrix(1,0,0,1,0,-24.4)"><tspan dy="0" >Loads containers</tspan><tspan dy="1.2em" x="0" >from</tspan></text></g><g id="v-1695"  label-idx="1" cursor="move" transform="matrix(1,0,0,1,2607.5,813)" style="cursor: default; opacity: 1;"><rect joint-selector="rect" id="v-1699" fill="#ffffff" rx="3" ry="3"  width="0" height="0" transform="matrix(1,0,0,1,0,0)" display="none"></rect><text joint-selector="text" id="v-1698" fill="#000000" font-size="14" text-anchor="middle" pointer-events="none"></text></g></g><g  display="none" style="display: none;"></g><g  id="v-1704" display="none"><g  id="v-1692"><path  end="source" d="M 26 0 L 0 13 L 26 26 z"></path></g><g  id="v-1693"><path  end="target" d="M 26 0 L 0 13 L 26 26 z"></path></g></g><g  id="v-1703" display="none"><g  id="v-1691" transform="translate(2583.6084310170404, 873.0391324218144) "><g  event="remove"><circle r="11"></circle><path transform="scale(.8) translate(-16, -16)" d="M24.778,21.419 19.276,15.917 24.777,10.415 21.949,7.585 16.447,13.087 10.945,7.585 8.117,10.415 13.618,15.917 8.116,21.419 10.946,24.248 16.447,18.746 21.948,24.248z"></path><title>Remove link.</title></g><g  event="link:options"><circle r="11" transform="translate(25)"></circle><path fill="white" transform="scale(.55) translate(29, -16)" d="M31.229,17.736c0.064-0.571,0.104-1.148,0.104-1.736s-0.04-1.166-0.104-1.737l-4.377-1.557c-0.218-0.716-0.504-1.401-0.851-2.05l1.993-4.192c-0.725-0.91-1.549-1.734-2.458-2.459l-4.193,1.994c-0.647-0.347-1.334-0.632-2.049-0.849l-1.558-4.378C17.165,0.708,16.588,0.667,16,0.667s-1.166,0.041-1.737,0.105L12.707,5.15c-0.716,0.217-1.401,0.502-2.05,0.849L6.464,4.005C5.554,4.73,4.73,5.554,4.005,6.464l1.994,4.192c-0.347,0.648-0.632,1.334-0.849,2.05l-4.378,1.557C0.708,14.834,0.667,15.412,0.667,16s0.041,1.165,0.105,1.736l4.378,1.558c0.217,0.715,0.502,1.401,0.849,2.049l-1.994,4.193c0.725,0.909,1.549,1.733,2.459,2.458l4.192-1.993c0.648,0.347,1.334,0.633,2.05,0.851l1.557,4.377c0.571,0.064,1.148,0.104,1.737,0.104c0.588,0,1.165-0.04,1.736-0.104l1.558-4.377c0.715-0.218,1.399-0.504,2.049-0.851l4.193,1.993c0.909-0.725,1.733-1.549,2.458-2.458l-1.993-4.193c0.347-0.647,0.633-1.334,0.851-2.049L31.229,17.736zM16,20.871c-2.69,0-4.872-2.182-4.872-4.871c0-2.69,2.182-4.872,4.872-4.872c2.689,0,4.871,2.182,4.871,4.872C20.871,18.689,18.689,20.871,16,20.871z"></path><title>Link options.</title></g></g></g></g><g   id="j_153" ><path  stroke="#707070" d="M 1417 1531 L 1739 1292" id="v-1714" stroke-width="2" stroke-dasharray="30 30" fill="none" style="opacity: 1;"></path><path  fill="black" stroke="black" d="M 0 0 0 0" transform="matrix(0.8035858946486827,-0.5951888019121971,0.5951888019121971,0.8035858946486827,1416.52001953125,1531)"></path><path  fill="#707070" stroke="#707070" d="M 20 0 L 0 10 L 20 20 z" id="v-1716" transform="matrix(-0.8035858946486826,0.5951888019121975,-0.5951888019121975,-0.8035858946486826,1744.9518582937335,1300.1858996383025)" style="opacity: 1;"></path><path  d="M 1417 1531 L 1739 1292" id="v-1715" fill="none" style="cursor: auto; pointer-events: visiblepainted;"></path><g ><g id="v-1708"  label-idx="0" cursor="move" transform="matrix(1,0,0,1,1578,1411.5)" style="cursor: default; opacity: 1;"><rect joint-selector="rect" id="v-1711" fill="#ffffff" rx="3" ry="3" stroke="#ffffff" stroke-width="20px" pointer-events="none" width="106.63505554199219" height="31.61097812652588" transform="matrix(1,0,0,1,-53.3,-15.8)"></rect><text joint-selector="text" id="v-1710" font-size="24px" xml:space="preserve" y="0.8em" fill="#707070" text-anchor="middle" pointer-events="none" font-family="Open Sans" font-weight="normal" transform="matrix(1,0,0,1,0,-10)"><tspan dy="0" >Routes to</tspan></text></g><g id="v-1709"  label-idx="1" cursor="move" transform="matrix(1,0,0,1,1568,1438.5)" style="cursor: default; opacity: 1;"><rect joint-selector="rect" id="v-1713" fill="#ffffff" rx="3" ry="3"  width="0" height="0" transform="matrix(1,0,0,1,0,0)" display="none"></rect><text joint-selector="text" id="v-1712" fill="#000000" font-size="14" text-anchor="middle" pointer-events="none"></text></g></g><g  display="none" style="display: none;"></g><g  id="v-1718" display="none"><g  id="v-1706"><path  end="source" d="M 26 0 L 0 13 L 26 26 z"></path></g><g  id="v-1707"><path  end="target" d="M 26 0 L 0 13 L 26 26 z"></path></g></g><g  id="v-1717" display="none"><g  id="v-1705" transform="translate(1449.1193012593017, 1507.159897512506) "><g  event="remove"><circle r="11"></circle><path transform="scale(.8) translate(-16, -16)" d="M24.778,21.419 19.276,15.917 24.777,10.415 21.949,7.585 16.447,13.087 10.945,7.585 8.117,10.415 13.618,15.917 8.116,21.419 10.946,24.248 16.447,18.746 21.948,24.248z"></path><title>Remove link.</title></g><g  event="link:options"><circle r="11" transform="translate(25)"></circle><path fill="white" transform="scale(.55) translate(29, -16)" d="M31.229,17.736c0.064-0.571,0.104-1.148,0.104-1.736s-0.04-1.166-0.104-1.737l-4.377-1.557c-0.218-0.716-0.504-1.401-0.851-2.05l1.993-4.192c-0.725-0.91-1.549-1.734-2.458-2.459l-4.193,1.994c-0.647-0.347-1.334-0.632-2.049-0.849l-1.558-4.378C17.165,0.708,16.588,0.667,16,0.667s-1.166,0.041-1.737,0.105L12.707,5.15c-0.716,0.217-1.401,0.502-2.05,0.849L6.464,4.005C5.554,4.73,4.73,5.554,4.005,6.464l1.994,4.192c-0.347,0.648-0.632,1.334-0.849,2.05l-4.378,1.557C0.708,14.834,0.667,15.412,0.667,16s0.041,1.165,0.105,1.736l4.378,1.558c0.217,0.715,0.502,1.401,0.849,2.049l-1.994,4.193c0.725,0.909,1.549,1.733,2.459,2.458l4.192-1.993c0.648,0.347,1.334,0.633,2.05,0.851l1.557,4.377c0.571,0.064,1.148,0.104,1.737,0.104c0.588,0,1.165-0.04,1.736-0.104l1.558-4.377c0.715-0.218,1.399-0.504,2.049-0.851l4.193,1.993c0.909-0.725,1.733-1.549,2.458-2.458l-1.993-4.193c0.347-0.647,0.633-1.334,0.851-2.049L31.229,17.736zM16,20.871c-2.69,0-4.872-2.182-4.872-4.871c0-2.69,2.182-4.872,4.872-4.872c2.689,0,4.871,2.182,4.871,4.872C20.871,18.689,18.689,20.871,16,20.871z"></path><title>Link options.</title></g></g></g></g><g   id="j_154" ><path  stroke="#707070" d="M 3689 1946 L 4035 1927" id="v-1731" stroke-width="2" stroke-dasharray="30 30" fill="none" style="opacity: 1;"></path><path  fill="black" stroke="black" d="M 0 0 0 0" transform="matrix(0.998441465786136,-0.05580895446819073,0.05580895446819073,0.998441465786136,3689,1945.9200439453125)"></path><path  fill="#707070" stroke="#707070" d="M 20 0 L 0 10 L 20 20 z" id="v-1733" transform="matrix(-0.998441465786136,0.055808954468190605,-0.055808954468190605,-0.998441465786136,4035.558129202543,1936.564386636617)" style="opacity: 1;"></path><path  d="M 3689 1946 L 4035 1927" id="v-1732" fill="none" style="cursor: auto; pointer-events: visiblepainted;"></path><g ><g id="v-1725"  label-idx="0" cursor="move" transform="matrix(1,0,0,1,3862,1936.5)" style="cursor: default; opacity: 1;"><rect joint-selector="rect" id="v-1728" fill="#ffffff" rx="3" ry="3" stroke="#ffffff" stroke-width="20px" pointer-events="none" width="177.4477996826172" height="60.41097831726074" transform="matrix(1,0,0,1,-88.7,-30.2)"></rect><text joint-selector="text" id="v-1727" font-size="24px" xml:space="preserve" y="0.8em" fill="#707070" text-anchor="middle" pointer-events="none" font-family="Open Sans" font-weight="normal" transform="matrix(1,0,0,1,0,-24.4)"><tspan dy="0" >Reads from and</tspan><tspan dy="1.2em" x="0" >writes to</tspan></text></g><g id="v-1726"  label-idx="1" cursor="move" transform="matrix(1,0,0,1,3852,1978.5)" style="cursor: default; opacity: 1;"><rect joint-selector="rect" id="v-1730" fill="#ffffff" rx="3" ry="3"  width="0" height="0" transform="matrix(1,0,0,1,0,0)" display="none"></rect><text joint-selector="text" id="v-1729" fill="#000000" font-size="14" text-anchor="middle" pointer-events="none"></text></g></g><g  display="none" style="display: none;"></g><g  id="v-1735" display="none"><g  id="v-1723"><path  end="source" d="M 26 0 L 0 13 L 26 26 z"></path></g><g  id="v-1724"><path  end="target" d="M 26 0 L 0 13 L 26 26 z"></path></g></g><g  id="v-1734" display="none"><g  id="v-1722" transform="translate(3728.939826655128, 1943.8067725247186) "><g  event="remove"><circle r="11"></circle><path transform="scale(.8) translate(-16, -16)" d="M24.778,21.419 19.276,15.917 24.777,10.415 21.949,7.585 16.447,13.087 10.945,7.585 8.117,10.415 13.618,15.917 8.116,21.419 10.946,24.248 16.447,18.746 21.948,24.248z"></path><title>Remove link.</title></g><g  event="link:options"><circle r="11" transform="translate(25)"></circle><path fill="white" transform="scale(.55) translate(29, -16)" d="M31.229,17.736c0.064-0.571,0.104-1.148,0.104-1.736s-0.04-1.166-0.104-1.737l-4.377-1.557c-0.218-0.716-0.504-1.401-0.851-2.05l1.993-4.192c-0.725-0.91-1.549-1.734-2.458-2.459l-4.193,1.994c-0.647-0.347-1.334-0.632-2.049-0.849l-1.558-4.378C17.165,0.708,16.588,0.667,16,0.667s-1.166,0.041-1.737,0.105L12.707,5.15c-0.716,0.217-1.401,0.502-2.05,0.849L6.464,4.005C5.554,4.73,4.73,5.554,4.005,6.464l1.994,4.192c-0.347,0.648-0.632,1.334-0.849,2.05l-4.378,1.557C0.708,14.834,0.667,15.412,0.667,16s0.041,1.165,0.105,1.736l4.378,1.558c0.217,0.715,0.502,1.401,0.849,2.049l-1.994,4.193c0.725,0.909,1.549,1.733,2.459,2.458l4.192-1.993c0.648,0.347,1.334,0.633,2.05,0.851l1.557,4.377c0.571,0.064,1.148,0.104,1.737,0.104c0.588,0,1.165-0.04,1.736-0.104l1.558-4.377c0.715-0.218,1.399-0.504,2.049-0.851l4.193,1.993c0.909-0.725,1.733-1.549,2.458-2.458l-1.993-4.193c0.347-0.647,0.633-1.334,0.851-2.049L31.229,17.736zM16,20.871c-2.69,0-4.872-2.182-4.872-4.871c0-2.69,2.182-4.872,4.872-4.872c2.689,0,4.871,2.182,4.871,4.872C20.871,18.689,18.689,20.871,16,20.871z"></path><title>Link options.</title></g></g></g></g><g   id="j_155" ><path  stroke="#707070" d="M 1439 1694 L 1739 1712" id="v-1745" stroke-width="2" stroke-dasharray="30 30" fill="none" style="opacity: 1;"></path><path  fill="black" stroke="black" d="M 0 0 0 0" transform="matrix(0.9982444118329559,0.05922916717527392,-0.05922916717527392,0.9982444118329559,1439,1694.3499755859375)"></path><path  fill="#707070" stroke="#707070" d="M 20 0 L 0 10 L 20 20 z" id="v-1747" transform="matrix(-0.998244411586492,-0.059229171329157546,0.059229171329157546,-0.998244411586492,1738.4077305275732,1722.132475086969)" style="opacity: 1;"></path><path  d="M 1439 1694 L 1739 1712" id="v-1746" fill="none" style="cursor: auto; pointer-events: visiblepainted;"></path><g ><g id="v-1739"  label-idx="0" cursor="move" transform="matrix(1,0,0,1,1589,1703)" style="cursor: default; opacity: 1;"><rect joint-selector="rect" id="v-1742" fill="#ffffff" rx="3" ry="3" stroke="#ffffff" stroke-width="20px" pointer-events="none" width="106.63505554199219" height="31.61097812652588" transform="matrix(1,0,0,1,-53.3,-15.8)"></rect><text joint-selector="text" id="v-1741" font-size="24px" xml:space="preserve" y="0.8em" fill="#707070" text-anchor="middle" pointer-events="none" font-family="Open Sans" font-weight="normal" transform="matrix(1,0,0,1,0,-10)"><tspan dy="0" >Routes to</tspan></text></g><g id="v-1740"  label-idx="1" cursor="move" transform="matrix(1,0,0,1,1579,1730)" style="cursor: default; opacity: 1;"><rect joint-selector="rect" id="v-1744" fill="#ffffff" rx="3" ry="3"  width="0" height="0" transform="matrix(1,0,0,1,0,0)" display="none"></rect><text joint-selector="text" id="v-1743" fill="#000000" font-size="14" text-anchor="middle" pointer-events="none"></text></g></g><g  display="none" style="display: none;"></g><g  id="v-1749" display="none"><g  id="v-1737"><path  end="source" d="M 26 0 L 0 13 L 26 26 z"></path></g><g  id="v-1738"><path  end="target" d="M 26 0 L 0 13 L 26 26 z"></path></g></g><g  id="v-1748" display="none"><g  id="v-1736" transform="translate(1478.9281938186311, 1696.3956916291181) "><g  event="remove"><circle r="11"></circle><path transform="scale(.8) translate(-16, -16)" d="M24.778,21.419 19.276,15.917 24.777,10.415 21.949,7.585 16.447,13.087 10.945,7.585 8.117,10.415 13.618,15.917 8.116,21.419 10.946,24.248 16.447,18.746 21.948,24.248z"></path><title>Remove link.</title></g><g  event="link:options"><circle r="11" transform="translate(25)"></circle><path fill="white" transform="scale(.55) translate(29, -16)" d="M31.229,17.736c0.064-0.571,0.104-1.148,0.104-1.736s-0.04-1.166-0.104-1.737l-4.377-1.557c-0.218-0.716-0.504-1.401-0.851-2.05l1.993-4.192c-0.725-0.91-1.549-1.734-2.458-2.459l-4.193,1.994c-0.647-0.347-1.334-0.632-2.049-0.849l-1.558-4.378C17.165,0.708,16.588,0.667,16,0.667s-1.166,0.041-1.737,0.105L12.707,5.15c-0.716,0.217-1.401,0.502-2.05,0.849L6.464,4.005C5.554,4.73,4.73,5.554,4.005,6.464l1.994,4.192c-0.347,0.648-0.632,1.334-0.849,2.05l-4.378,1.557C0.708,14.834,0.667,15.412,0.667,16s0.041,1.165,0.105,1.736l4.378,1.558c0.217,0.715,0.502,1.401,0.849,2.049l-1.994,4.193c0.725,0.909,1.549,1.733,2.459,2.458l4.192-1.993c0.648,0.347,1.334,0.633,2.05,0.851l1.557,4.377c0.571,0.064,1.148,0.104,1.737,0.104c0.588,0,1.165-0.04,1.736-0.104l1.558-4.377c0.715-0.218,1.399-0.504,2.049-0.851l4.193,1.993c0.909-0.725,1.733-1.549,2.458-2.458l-1.993-4.193c0.347-0.647,0.633-1.334,0.851-2.049L31.229,17.736zM16,20.871c-2.69,0-4.872-2.182-4.872-4.871c0-2.69,2.182-4.872,4.872-4.872c2.689,0,4.871,2.182,4.871,4.872C20.871,18.689,18.689,20.871,16,20.871z"></path><title>Link options.</title></g></g></g></g></g><g ></g><g ></g><g ></g></g></svg>